<?xml version="1.0" encoding="UTF-8"?>
<svg enable-background="new 0 0 1921 133" version="1.1" viewBox="0 0 1921 133" xml:space="preserve" xmlns="http://www.w3.org/2000/svg"><path d="m5.5 101.8c9.9 0.9 19.6 3.1 28.9 6.7 18.7-35.3 57-59.5 101.1-59.5 20.7-0.1 41 5.4 58.8 15.8 13.6-30 44.8-51 81.1-53.6 13.9-4.8 28.4-7.2 43.1-7.2 37.6 0 71.2 15.6 93.3 40 4.3-0.1 8.6 0 12.9 0.4 35.7 3.2 65.3 23.6 79.9 51.3 3-0.4 5.9-0.7 8.9-0.7 10-0.1 19.9 2.5 28.6 7.3 20.4-39.7 65.1-60.6 108.7-50.9 14.7-5.4 30.3-7.4 45.9-6 20.7 1.8 40.4 9.7 56.5 22.8 12-15.2 30.1-24.1 49.4-22.4 8.4 0.8 16.4 3.5 23.5 8 18-29.6 54-48 93.6-44.5 27.4 2.5 51.1 15 67.3 33.2 23.5-24.5 61-38.6 101.8-34.9 36.7 3.3 68.2 20.4 87.8 44.4 8.1-2.9 16.7-4 25.3-3.2 11.1 0.9 21.7 5.1 30.5 12 28.4-25.4 69.1-31.6 103.8-15.8 6.1-0.6 12.3-0.6 18.4 0 33.9 3.1 61.4 22.4 71.3 47.2 2.2 0 4.4 0.1 6.6 0.3 17.2 1.5 33.6 8.3 46.8 19.4 6.9-23.9 28.7-40.8 53.5-40.6 10.7-40.8 57.9-68.7 111.5-63.9 15.4 1.3 30.5 5.5 44.5 12.2 17.4-8.6 36.8-12.2 56.1-10.4 30.4 2.8 56.5 18 72.5 39.5 7.6-2.9 15.7-4 23.8-3.2 29.9 2.7 51.9 29.5 49.7 60.2 10.8 3.1 21 8 30.3 14.5v-120.2h-1921.2v101.5c1.8 0.1 3.6 0.2 5.5 0.3z" fill="none"/><path d="m1493 126.9c8.4-9.5 18.7-17.1 30.2-22.6 10.4-34.3 43.4-57.7 80-54.4 15.2 1.4 29.6 7.3 41.4 17.1 7.9-20.5 23.8-37.2 44-47.3-14-6.7-29-10.8-44.5-12.2-53.6-4.8-100.8 23.1-111.5 63.9-24.8-0.3-46.5 16.6-53.5 40.6 5.3 4.3 10 9.3 13.9 14.9z" fill="#F2F2F2" fill-opacity=".6"/><path d="m5.5 101.8c-1.8-0.2-3.6-0.3-5.5-0.4v31.6h25c2.1-8.5 5.2-16.7 9.3-24.4-9.2-3.6-19-5.9-28.8-6.8z" fill="#F2F2F2" fill-opacity=".6"/><path d="m275.4 11.2c-36.3 2.6-67.4 23.6-81.1 53.6 4.2 2.4 8.2 5.1 12.1 8.1 12.4-28.3 37.5-50.8 69-61.7z" fill="#F2F2F2" fill-opacity=".6"/><path d="m436.5 76c19.1 0.1 36 12.3 42.1 30.4 7.6-5.7 16.5-9.4 26-10.7-14.6-27.7-44.2-48.1-79.9-51.3-4.3-0.4-8.6-0.5-12.9-0.4 8.6 9.4 15.4 20.4 20.2 32.2 1.5-0.1 3-0.2 4.5-0.2z" fill="#F2F2F2" fill-opacity=".6"/><path d="m857.5 55c30.6 0 57.1 22.1 70 54.2 11.2-4.6 22.7-8.4 34.5-11.4 0-0.8 0.1-1.5 0.2-2.3 1.8-20.3 10.9-38.5 24.8-53-16.2-18.2-40-30.7-67.3-33.2-39.6-3.6-75.6 14.9-93.6 44.5-7.1-4.5-15.2-7.2-23.5-8-19.3-1.7-37.3 7.2-49.4 22.4-16.1-13.1-35.8-21.1-56.5-22.8-15.5-1.5-31.2 0.6-45.9 6 39.8 8.9 70 41.4 76.1 81.7h2.9c15.9-13.3 36.2-22.8 59-26.8 13.3-30.6 39.1-51.3 68.7-51.3z" fill="#F2F2F2" fill-opacity=".6"/><path d="m1387.2 100.9c12-5.9 25.2-8.9 38.6-8.7-9.9-24.8-37.4-44.1-71.3-47.2-6.1-0.6-12.3-0.5-18.4 0 23.8 11 42.2 31.2 51.1 55.9z" fill="#F2F2F2" fill-opacity=".6"/><path d="m1834.1 104.8c11.8-3.1 24.1-4.1 36.3-3 6.9 0.6 13.7 1.9 20.3 3.8 2.2-30.6-19.8-57.5-49.7-60.2-8.1-0.7-16.2 0.4-23.8 3.2 11.9 16.1 18.3 35.6 16.9 56.2z" fill="#F2F2F2" fill-opacity=".6"/><path d="m650.8 51.3c-43.6-9.7-88.2 11.2-108.7 50.9-8.8-4.8-18.6-7.3-28.6-7.3-3 0-6 0.2-8.9 0.7-9.4 1.3-18.4 5-26 10.7-6.6-19.6-25.9-32.2-46.6-30.1-4.7-11.9-11.6-22.8-20.2-32.2-22.1-24.4-55.7-40-93.3-40-14.7 0-29.2 2.4-43.1 7.2-31.5 10.9-56.6 33.4-69 61.7-3.8-3-7.9-5.7-12.1-8.1-17.9-10.4-38.2-15.8-58.8-15.8-44.1 0-82.4 24.2-101.2 59.6-4.1 7.7-7.2 15.9-9.3 24.4h701.8c-6.1-40.3-36.3-72.7-76-81.7z" fill="#fff"/><path d="m1870.5 101.8c-12.2-1.1-24.5-0.1-36.3 3 1.4-20.5-5-40-16.9-56.1-16-21.6-42-36.8-72.5-39.5-19.3-1.8-38.7 1.8-56.1 10.4-20.2 10.2-36.1 26.9-44 47.3-11.7-9.8-26.2-15.7-41.4-17.1-36.6-3.3-69.5 20.1-80 54.4-11.5 5.4-21.7 13.1-30.2 22.6-4-5.6-8.6-10.6-13.8-15-13.2-11.1-29.6-17.9-46.8-19.4-2.2-0.2-4.4-0.3-6.6-0.3-13.4-0.2-26.6 2.8-38.6 8.7-8.9-24.7-27.3-44.8-51.1-55.8-34.6-15.9-75.4-9.7-103.8 15.8-8.8-6.9-19.4-11-30.5-12-8.6-0.8-17.2 0.3-25.3 3.2-19.6-24-51.1-41.1-87.8-44.4-40.8-3.7-78.3 10.5-101.8 34.9-13.9 14.5-23 32.7-24.8 53-0.1 0.8-0.1 1.5-0.2 2.3-11.7 3-23.3 6.8-34.5 11.4-13-32.2-39.5-54.2-70-54.2-29.6 0-55.4 20.7-68.7 51.2-22.8 4-43.1 13.6-59 26.8h1191.2v-12.9c-9.2-6.4-19.4-11.3-30.3-14.5-6.6-1.9-13.4-3.2-20.2-3.8z" fill="#fff"/></svg>