<svg xmlns="http://www.w3.org/2000/svg" xmlns:xlink="http://www.w3.org/1999/xlink" viewBox="0 0 1877.7 512"><defs><style>.cls-1{fill:#fff;}.cls-2{isolation:isolate;}.cls-3{fill:#58595b;}.cls-4{fill:#fc8300;}</style><symbol id="Prompt" data-name="Prompt" viewBox="0 0 482 482"><rect width="482" height="482"/><path class="cls-1" d="M180.4,202.8l-83-46c-4.2-2.3-6.9-4.4-8.3-6.2a11.21,11.21,0,0,1-2.1-7,13.33,13.33,0,0,1,13-13.1c2.2,0,5.5,1.2,10,3.6l123.6,68.8L110,271.7c-4.5,2.5-7.8,3.8-10,3.8a12.42,12.42,0,0,1-9.1-3.9,12.76,12.76,0,0,1-3.9-9.4,11.21,11.21,0,0,1,2.1-7c1.4-1.8,4.1-3.9,8.3-6.2Z"/><path class="cls-1" d="M377.9,352.6H237.2c-6.2,0-10.6-1.2-13.2-3.5a11.72,11.72,0,0,1-3.9-9.2,12.08,12.08,0,0,1,3.9-9.3q3.9-3.6,13.2-3.6H378c6.1,0,10.4,1.2,13.1,3.6a11.75,11.75,0,0,1,3.9,9.3,11.87,11.87,0,0,1-3.9,9.2C388.5,351.4,384.1,352.6,377.9,352.6Z"/></symbol><symbol id="orange" data-name="orange" viewBox="0 0 512 512"><use width="482" height="482" transform="translate(14.61 15)" xlink:href="#Prompt"/><path class="cls-4" d="M482,30V482H30V30H482M512,0H0V512H512Z"/></symbol><symbol id="Text_Dark" data-name="Text Dark" viewBox="0 0 773.69 176.41"><g class="cls-2"><path class="cls-1" d="M73.17,90q-3,1.31-5.39,2.44a53.1,53.1,0,0,1-6.32,2.38,61.86,61.86,0,0,1-7.18,1.76,45.93,45.93,0,0,1-8.54.73,49,49,0,0,1-16-2.46,32.41,32.41,0,0,1-12.49-7.73A35.16,35.16,0,0,1,9.16,74,53.33,53.33,0,0,1,6.23,55.58,52.57,52.57,0,0,1,9.05,37.75a36.06,36.06,0,0,1,8.13-13.28,34.05,34.05,0,0,1,12.44-8A45.37,45.37,0,0,1,45.8,13.69a54.79,54.79,0,0,1,13,1.57,69.36,69.36,0,0,1,14.39,5.53V33.52h-.81a48,48,0,0,0-13.23-8.13,38.38,38.38,0,0,0-14-2.54,29.25,29.25,0,0,0-11,2A24.17,24.17,0,0,0,25.31,31a28.49,28.49,0,0,0-5.83,10.28A44.93,44.93,0,0,0,17.4,55.58a41.72,41.72,0,0,0,2.3,14.63,29.36,29.36,0,0,0,5.94,10,23.58,23.58,0,0,0,8.86,5.93,29.72,29.72,0,0,0,10.7,1.93,39.48,39.48,0,0,0,14.53-2.66,41.62,41.62,0,0,0,12.68-8h.76Z"/><path class="cls-1" d="M139.13,65.61q0,14.79-7.59,23.36t-20.32,8.56q-12.85,0-20.41-8.56T83.25,65.61q0-14.8,7.56-23.39t20.41-8.59q12.73,0,20.32,8.59T139.13,65.61Zm-10.52,0q0-11.76-4.6-17.48t-12.79-5.72q-8.3,0-12.88,5.72T93.76,65.61q0,11.39,4.61,17.26t12.85,5.88q8.13,0,12.76-5.83T128.61,65.61Z"/><path class="cls-1" d="M205.52,95.85H195.33V61.38a60.3,60.3,0,0,0-.48-7.83,14.55,14.55,0,0,0-1.79-5.72,8.29,8.29,0,0,0-3.9-3.39,16.76,16.76,0,0,0-6.62-1.11,21.17,21.17,0,0,0-8.72,2.06,44.73,44.73,0,0,0-8.73,5.26v45.2H154.9V35.31h10.19V42A41.27,41.27,0,0,1,175,35.85a25.9,25.9,0,0,1,10.46-2.22q9.81,0,15,5.91t5.15,17Z"/><path class="cls-1" d="M256.58,95.31a55.85,55.85,0,0,1-6.26,1.25,43.55,43.55,0,0,1-6,.48q-9.27,0-14.1-5t-4.82-16V43.88h-6.88V35.31h6.88V17.91h10.19v17.4h21v8.57h-21V71.46c0,3.18.07,5.67.22,7.45a12.22,12.22,0,0,0,1.51,5,7.38,7.38,0,0,0,3.28,3.17,15.4,15.4,0,0,0,6.37,1,19.8,19.8,0,0,0,5.2-.73A39,39,0,0,0,256,86.15h.54Z"/><path class="cls-1" d="M315.93,95.85H305.79V89.4q-1.35.93-3.66,2.58a25.84,25.84,0,0,1-4.47,2.63,30.47,30.47,0,0,1-5.85,2.08,31.75,31.75,0,0,1-7.75.84,19.36,19.36,0,0,1-13.88-5.42,18.26,18.26,0,0,1-5.69-13.82q0-6.89,3-11.14a19.77,19.77,0,0,1,8.42-6.69,45.5,45.5,0,0,1,13.28-3.31q7.75-.85,16.64-1.3V54.28a12,12,0,0,0-1.22-5.74A8.9,8.9,0,0,0,301.08,45a14.53,14.53,0,0,0-5.21-1.68,44.55,44.55,0,0,0-6.34-.44,43.4,43.4,0,0,0-8.94,1.06A70.79,70.79,0,0,0,270.4,47h-.54V36.61c2-.54,4.86-1.14,8.62-1.79a65,65,0,0,1,11.11-1,52,52,0,0,1,11.13,1,21.74,21.74,0,0,1,8.22,3.61,16,16,0,0,1,5.2,6.45,23.85,23.85,0,0,1,1.79,9.81ZM305.79,81V64.09c-3.11.18-6.76.45-11,.81a57,57,0,0,0-10,1.58,16.37,16.37,0,0,0-7.1,3.87A9.61,9.61,0,0,0,275,77.59c0,3.46,1,6.08,3.14,7.83s5.29,2.63,9.59,2.63A22.79,22.79,0,0,0,297.55,86,44,44,0,0,0,305.79,81Z"/><path class="cls-1" d="M346.5,25.18H335V14.61H346.5Zm-.65,70.67H335.66V35.31h10.19Z"/><path class="cls-1" d="M416.63,95.85H406.44V61.38a58.53,58.53,0,0,0-.49-7.83,14.23,14.23,0,0,0-1.79-5.72,8.2,8.2,0,0,0-3.9-3.39,16.71,16.71,0,0,0-6.61-1.11,21.25,21.25,0,0,0-8.73,2.06,45,45,0,0,0-8.72,5.26v45.2H366V35.31H376.2V42a41.22,41.22,0,0,1,9.86-6.18,25.94,25.94,0,0,1,10.46-2.22q9.81,0,15,5.91t5.15,17Z"/><path class="cls-1" d="M486.93,66.64H442.32A25.84,25.84,0,0,0,444,76.37a18,18,0,0,0,11.3,10.7,26.61,26.61,0,0,0,8.54,1.3,33.84,33.84,0,0,0,12.44-2.46c4.17-1.65,7.14-3.26,8.91-4.86h.54V92.17a85.28,85.28,0,0,1-10.51,3.63A42.93,42.93,0,0,1,464,97.26q-15.07,0-23.53-8.16T432,65.93q0-14.85,8.1-23.57t21.33-8.73q12.24,0,18.89,7.16t6.64,20.32ZM477,58.83q-.06-8-4-12.41T460.86,42q-8.19,0-13,4.83a18.7,18.7,0,0,0-5.5,12Z"/><path class="cls-1" d="M540.15,46.42h-.54a37.05,37.05,0,0,0-4.42-.78,43.74,43.74,0,0,0-5.07-.25,21,21,0,0,0-9.1,2.09,42,42,0,0,0-8.46,5.39v43H502.37V35.31h10.19v8.94a50.33,50.33,0,0,1,10.71-6.91,23.4,23.4,0,0,1,9.45-2,38,38,0,0,1,3.85.14c.8.09,2,.26,3.58.51Z"/><path class="cls-1" d="M609.2,72.82a21.39,21.39,0,0,1-2.2,9.32,22.08,22.08,0,0,1-6.15,7.8,32.67,32.67,0,0,1-10.11,5.42,43.63,43.63,0,0,1-13.9,2,69.42,69.42,0,0,1-15.69-1.62A79.36,79.36,0,0,1,547,90.87V77.42h.76a44.52,44.52,0,0,0,14.14,7.86A46.46,46.46,0,0,0,577,88.05q10,0,15.53-3.74a11.51,11.51,0,0,0,5.55-10q0-5.35-2.62-7.91c-1.76-1.7-4.42-3-8-4a80.08,80.08,0,0,0-8.81-1.78q-4.74-.7-10.05-1.79-10.72-2.28-15.91-7.78t-5.17-14.34q0-10.13,8.56-16.61t21.73-6.47a70.14,70.14,0,0,1,15.61,1.62,71.94,71.94,0,0,1,12.58,4V32h-.76a37.41,37.41,0,0,0-12.11-6.47A47,47,0,0,0,577.71,23q-8.62,0-13.85,3.58t-5.23,9.21c0,3.37.87,6,2.6,7.92S566,47,570.39,48.05c2.31.5,5.6,1.12,9.87,1.84s7.87,1.46,10.84,2.22q9,2.39,13.55,7.21T609.2,72.82Z"/><path class="cls-1" d="M683.89,72.82a21.53,21.53,0,0,1-2.2,9.32,22.08,22.08,0,0,1-6.15,7.8,32.67,32.67,0,0,1-10.11,5.42,43.67,43.67,0,0,1-13.9,2,69.42,69.42,0,0,1-15.69-1.62,79.09,79.09,0,0,1-14.17-4.82V77.42h.75a44.57,44.57,0,0,0,14.15,7.86,46.46,46.46,0,0,0,15.07,2.77q10,0,15.53-3.74a11.51,11.51,0,0,0,5.55-10q0-5.35-2.63-7.91c-1.75-1.7-4.42-3-8-4a80.56,80.56,0,0,0-8.81-1.78q-4.74-.7-10-1.79-10.74-2.28-15.91-7.78t-5.18-14.34q0-10.13,8.57-16.61t21.73-6.47a70.21,70.21,0,0,1,15.61,1.62,72.09,72.09,0,0,1,12.57,4V32h-.75a37.47,37.47,0,0,0-12.12-6.47A47,47,0,0,0,652.4,23q-8.62,0-13.85,3.58t-5.23,9.21c0,3.37.87,6,2.6,7.92s4.79,3.38,9.16,4.39c2.31.5,5.6,1.12,9.86,1.84s7.88,1.46,10.84,2.22q9,2.39,13.55,7.21T683.89,72.82Z"/><path class="cls-1" d="M762.85,95.85H752.12V56.34H711.85V95.85H701.12V15.15h10.73V46.8h40.27V15.15h10.73Z"/></g><g class="cls-2"><path class="cls-3" d="M31.2,161.25H8V124.9h4.89v32H31.2Z"/><path class="cls-3" d="M57.12,161.25H52.51v-2.9c-.41.27-1,.66-1.67,1.16a11.65,11.65,0,0,1-2,1.18,14,14,0,0,1-2.66.94,14.74,14.74,0,0,1-3.53.38,8.92,8.92,0,0,1-6.32-2.44,8.22,8.22,0,0,1-2.59-6.23,8.54,8.54,0,0,1,1.35-5,8.94,8.94,0,0,1,3.83-3,21,21,0,0,1,6-1.49q3.53-.39,7.57-.59v-.7a5.37,5.37,0,0,0-.56-2.59,4,4,0,0,0-1.59-1.61,6.43,6.43,0,0,0-2.36-.76,20.81,20.81,0,0,0-2.89-.2,19.63,19.63,0,0,0-4.07.48,32.59,32.59,0,0,0-4.64,1.38h-.24v-4.66c.9-.25,2.21-.52,3.92-.81a30.15,30.15,0,0,1,5.05-.44,23.6,23.6,0,0,1,5.07.48,9.85,9.85,0,0,1,3.74,1.62,7.18,7.18,0,0,1,2.37,2.91,10.64,10.64,0,0,1,.81,4.42Zm-4.61-6.71v-7.6c-1.42.09-3.08.21-5,.37A25.83,25.83,0,0,0,43,148a7.54,7.54,0,0,0-3.23,1.74,5,5,0,0,0,.2,6.79,6.75,6.75,0,0,0,4.37,1.19,10.57,10.57,0,0,0,4.46-.94A20.19,20.19,0,0,0,52.51,154.54Z"/><path class="cls-3" d="M88.89,161.25H84.25v-3A22.53,22.53,0,0,1,79.77,161,11.36,11.36,0,0,1,75,162a8.72,8.72,0,0,1-6.76-2.63c-1.61-1.75-2.42-4.31-2.42-7.7V134h4.64v15.53a27.51,27.51,0,0,0,.2,3.55,6.41,6.41,0,0,0,.84,2.53,4,4,0,0,0,1.72,1.56,7.59,7.59,0,0,0,3.09.49,9.9,9.9,0,0,0,3.93-.93,18.44,18.44,0,0,0,4-2.37V134h4.64Z"/><path class="cls-3" d="M121.05,161.25h-4.63V145.72a27.7,27.7,0,0,0-.22-3.52,6.37,6.37,0,0,0-.82-2.58,3.8,3.8,0,0,0-1.77-1.53,7.78,7.78,0,0,0-3-.5,9.67,9.67,0,0,0-4,.93,20.3,20.3,0,0,0-4,2.37v20.36H98V134h4.63v3a19.12,19.12,0,0,1,4.49-2.79,12.07,12.07,0,0,1,4.76-1q4.47,0,6.81,2.66c1.56,1.78,2.34,4.33,2.34,7.67Z"/><path class="cls-3" d="M150.36,159.54a31,31,0,0,1-4.41,1.71,15.53,15.53,0,0,1-4.42.61,16.53,16.53,0,0,1-5.48-.87,11.19,11.19,0,0,1-4.27-2.62,11.64,11.64,0,0,1-2.78-4.44,18.16,18.16,0,0,1-1-6.28q0-6.69,3.71-10.5a13.12,13.12,0,0,1,9.81-3.8,17,17,0,0,1,4.65.65,24.23,24.23,0,0,1,4.18,1.62v5.1h-.25a17.69,17.69,0,0,0-4.38-2.52,12.17,12.17,0,0,0-4.4-.87A7.82,7.82,0,0,0,135.1,140q-2.28,2.63-2.28,7.7t2.23,7.58a7.75,7.75,0,0,0,6.28,2.65,11.86,11.86,0,0,0,2.86-.36,13.21,13.21,0,0,0,2.62-1,21.23,21.23,0,0,0,1.89-1.08,16.43,16.43,0,0,0,1.41-1h.25Z"/><path class="cls-3" d="M179.34,161.25H174.7V145.72a26,26,0,0,0-.22-3.52,6.54,6.54,0,0,0-.81-2.58,3.82,3.82,0,0,0-1.78-1.53,7.74,7.74,0,0,0-3-.5,9.67,9.67,0,0,0-4,.93,20.52,20.52,0,0,0-4,2.37v20.36H156.3v-38h4.64V137a18.92,18.92,0,0,1,4.49-2.79,12,12,0,0,1,4.76-1,8.63,8.63,0,0,1,6.81,2.66c1.56,1.78,2.34,4.33,2.34,7.67Z"/><path class="cls-3" d="M226.4,159.54a30.45,30.45,0,0,1-4.4,1.71,15.6,15.6,0,0,1-4.43.61,16.47,16.47,0,0,1-5.47-.87,11,11,0,0,1-4.27-2.62,11.78,11.78,0,0,1-2.79-4.44,18.16,18.16,0,0,1-1-6.28q0-6.69,3.72-10.5a13.08,13.08,0,0,1,9.8-3.8,17,17,0,0,1,4.65.65,24.23,24.23,0,0,1,4.18,1.62v5.1h-.25a17.82,17.82,0,0,0-4.37-2.52,12.26,12.26,0,0,0-4.41-.87,7.8,7.8,0,0,0-6.22,2.62q-2.29,2.63-2.29,7.7t2.24,7.58a7.73,7.73,0,0,0,6.27,2.65,11.86,11.86,0,0,0,2.86-.36,12.76,12.76,0,0,0,2.62-1,21.43,21.43,0,0,0,1.9-1.08c.59-.39,1.06-.71,1.4-1h.25Z"/><path class="cls-3" d="M255.83,147.63q0,6.66-3.46,10.52a13,13,0,0,1-18.53,0q-3.45-3.85-3.44-10.52t3.44-10.54a13,13,0,0,1,18.53,0Q255.84,141,255.83,147.63Zm-4.79,0q0-5.3-2.09-7.88a7.92,7.92,0,0,0-11.68,0q-2.09,2.58-2.09,7.88,0,5.13,2.1,7.77a7.76,7.76,0,0,0,11.65,0Q251,152.81,251,147.63Z"/><path class="cls-3" d="M286,161.25h-4.63V145.72a25.91,25.91,0,0,0-.23-3.52,6.38,6.38,0,0,0-.81-2.58,3.77,3.77,0,0,0-1.78-1.53,7.71,7.71,0,0,0-3-.5,9.7,9.7,0,0,0-4,.93,20.52,20.52,0,0,0-4,2.37v20.36H263V134h4.64v3a19.12,19.12,0,0,1,4.49-2.79,12,12,0,0,1,4.76-1q4.47,0,6.81,2.66c1.56,1.78,2.34,4.33,2.34,7.67Z"/><path class="cls-3" d="M309.28,161a28.23,28.23,0,0,1-2.85.56,20.86,20.86,0,0,1-2.75.22q-4.21,0-6.41-2.25t-2.2-7.2v-14.5h-3.13V134h3.13v-7.84h4.64V134h9.57v3.86h-9.57v12.42c0,1.44,0,2.56.1,3.36a5.28,5.28,0,0,0,.69,2.26,3.32,3.32,0,0,0,1.49,1.43,7.09,7.09,0,0,0,2.9.45,9.12,9.12,0,0,0,2.36-.33,15.54,15.54,0,0,0,1.78-.55h.25Z"/><path class="cls-3" d="M336.29,161.25h-4.62v-2.9c-.41.27-1,.66-1.66,1.16a12.1,12.1,0,0,1-2,1.18,14,14,0,0,1-2.66.94,14.68,14.68,0,0,1-3.53.38,8.9,8.9,0,0,1-6.31-2.44,8.19,8.19,0,0,1-2.59-6.23,8.61,8.61,0,0,1,1.34-5,9,9,0,0,1,3.84-3,20.94,20.94,0,0,1,6-1.49c2.35-.26,4.88-.46,7.57-.59v-.7a5.37,5.37,0,0,0-.55-2.59,4,4,0,0,0-1.59-1.61,6.55,6.55,0,0,0-2.37-.76,20.6,20.6,0,0,0-2.89-.2,19.71,19.71,0,0,0-4.07.48,32.47,32.47,0,0,0-4.63,1.38h-.25v-4.66c.9-.25,2.21-.52,3.92-.81a30.27,30.27,0,0,1,5.06-.44,23.6,23.6,0,0,1,5.07.48,9.8,9.8,0,0,1,3.73,1.62,7.18,7.18,0,0,1,2.37,2.91,10.48,10.48,0,0,1,.82,4.42Zm-4.62-6.71v-7.6c-1.41.09-3.08.21-5,.37a25.68,25.68,0,0,0-4.55.71,7.54,7.54,0,0,0-3.23,1.74,5,5,0,0,0,.19,6.79,6.76,6.76,0,0,0,4.37,1.19,10.51,10.51,0,0,0,4.46-.94A20.19,20.19,0,0,0,331.67,154.54Z"/><path class="cls-3" d="M350.2,129.42H345v-4.77h5.23Zm-.3,31.83h-4.64V134h4.64Z"/><path class="cls-3" d="M382.11,161.25h-4.63V145.72a27.7,27.7,0,0,0-.22-3.52,6.37,6.37,0,0,0-.82-2.58,3.8,3.8,0,0,0-1.77-1.53,7.78,7.78,0,0,0-3-.5,9.67,9.67,0,0,0-4,.93,20.3,20.3,0,0,0-4,2.37v20.36h-4.63V134h4.63v3a19.12,19.12,0,0,1,4.49-2.79,12.07,12.07,0,0,1,4.76-1q4.47,0,6.81,2.66c1.56,1.78,2.34,4.33,2.34,7.67Z"/><path class="cls-3" d="M414.11,148.09h-20.3a11.47,11.47,0,0,0,.76,4.38,8.22,8.22,0,0,0,2.1,3.07,8.35,8.35,0,0,0,3,1.76,12.31,12.31,0,0,0,3.89.58,15.52,15.52,0,0,0,5.66-1.11,14.2,14.2,0,0,0,4.06-2.18h.24v5a38.5,38.5,0,0,1-4.78,1.64,19.6,19.6,0,0,1-5.13.66q-6.86,0-10.71-3.68t-3.84-10.44q0-6.69,3.68-10.62a12.7,12.7,0,0,1,9.71-3.93c3.71,0,6.58,1.08,8.59,3.23s3,5.2,3,9.15Zm-4.52-3.51a8,8,0,0,0-1.84-5.59q-1.8-2-5.51-2a8.08,8.08,0,0,0-5.93,2.17,8.38,8.38,0,0,0-2.5,5.4Z"/><path class="cls-3" d="M438.33,139h-.25a15.22,15.22,0,0,0-2-.36,21.8,21.8,0,0,0-2.31-.11,9.56,9.56,0,0,0-4.14.94,19.66,19.66,0,0,0-3.85,2.43v19.36h-4.63V134h4.63v4a22.63,22.63,0,0,1,4.87-3.11A10.74,10.74,0,0,1,435,134c.8,0,1.39,0,1.75.06s.9.12,1.63.23Z"/><path class="cls-3" d="M462.38,153.39a7.41,7.41,0,0,1-3.12,6.13c-2.08,1.59-4.93,2.39-8.53,2.39a20.6,20.6,0,0,1-5.61-.72,25.18,25.18,0,0,1-4.28-1.57v-5.16h.25a18.55,18.55,0,0,0,4.88,2.6,15.13,15.13,0,0,0,5.16,1,9.76,9.76,0,0,0,4.78-1,3.28,3.28,0,0,0,1.73-3.07,3.09,3.09,0,0,0-.94-2.45,8.48,8.48,0,0,0-3.6-1.41q-1-.23-2.58-.51c-1.06-.2-2-.41-2.89-.64a9.69,9.69,0,0,1-5.15-2.79,6.9,6.9,0,0,1-1.51-4.53,7.35,7.35,0,0,1,.7-3.18,7.74,7.74,0,0,1,2.13-2.66,10.43,10.43,0,0,1,3.52-1.82,16.07,16.07,0,0,1,4.77-.67,21.68,21.68,0,0,1,5,.6,19.1,19.1,0,0,1,4.2,1.45v4.91H461a16.87,16.87,0,0,0-4.31-2.19,15.15,15.15,0,0,0-5-.89,8.73,8.73,0,0,0-4.3,1,3.37,3.37,0,0,0-.69,5.41,8.35,8.35,0,0,0,3.36,1.39c.85.19,1.81.39,2.87.58s1.95.38,2.65.54a9.87,9.87,0,0,1,5,2.51A6.59,6.59,0,0,1,462.38,153.39Z"/><path class="cls-3" d="M510.25,147.63q0,6.66-3.45,10.52a13.06,13.06,0,0,1-18.54,0q-3.43-3.85-3.44-10.52t3.44-10.54a13,13,0,0,1,18.54,0Q510.25,141,510.25,147.63Zm-4.78,0q0-5.3-2.1-7.88a7.92,7.92,0,0,0-11.68,0q-2.08,2.58-2.08,7.88,0,5.13,2.09,7.77a7.77,7.77,0,0,0,11.66,0C504.76,153.68,505.47,151.08,505.47,147.63Z"/><path class="cls-3" d="M540.47,161.25h-4.64V145.72a26,26,0,0,0-.22-3.52,6.37,6.37,0,0,0-.82-2.58,3.8,3.8,0,0,0-1.77-1.53,7.74,7.74,0,0,0-3-.5,9.67,9.67,0,0,0-4,.93,20.22,20.22,0,0,0-4,2.37v20.36h-4.64V134h4.64v3a18.72,18.72,0,0,1,4.49-2.79,12,12,0,0,1,4.76-1q4.45,0,6.8,2.66c1.57,1.78,2.35,4.33,2.35,7.67Z"/><path class="cls-3" d="M589.5,161.25h-4.63v-2.86a17.28,17.28,0,0,1-4.17,2.67A11.69,11.69,0,0,1,576,162a9.41,9.41,0,0,1-7.84-3.76q-2.89-3.76-2.89-10.43a17.87,17.87,0,0,1,1-6.17A14.2,14.2,0,0,1,569,137a11.52,11.52,0,0,1,8.53-3.81,14.46,14.46,0,0,1,3.85.46,17.7,17.7,0,0,1,3.53,1.4V123.26h4.63Zm-4.63-6.71V138.89a17,17,0,0,0-3.36-1.15,15.51,15.51,0,0,0-3.23-.32,7.37,7.37,0,0,0-6.07,2.69Q570,142.8,570,147.73c0,3.23.56,5.7,1.68,7.38a6,6,0,0,0,5.38,2.53,10.06,10.06,0,0,0,4-.87A17.16,17.16,0,0,0,584.87,154.54Z"/><path class="cls-3" d="M621.69,148.09h-20.3a11.47,11.47,0,0,0,.77,4.38,8.2,8.2,0,0,0,2.09,3.07,8.4,8.4,0,0,0,3,1.76,12.25,12.25,0,0,0,3.88.58,15.48,15.48,0,0,0,5.66-1.11,14.06,14.06,0,0,0,4.06-2.18h.25v5a38.64,38.64,0,0,1-4.79,1.64,19.55,19.55,0,0,1-5.13.66q-6.86,0-10.7-3.68t-3.85-10.44q0-6.69,3.69-10.62a12.68,12.68,0,0,1,9.7-3.93q5.58,0,8.6,3.23c2,2.14,3,5.2,3,9.15Zm-4.51-3.51a8.05,8.05,0,0,0-1.84-5.59q-1.82-2-5.51-2a8.1,8.1,0,0,0-5.94,2.17,8.43,8.43,0,0,0-2.5,5.4Z"/><path class="cls-3" d="M668.92,161.25h-4.63V145.72c0-1.17-.06-2.3-.16-3.39a7.26,7.26,0,0,0-.68-2.61,3.74,3.74,0,0,0-1.63-1.59,6.93,6.93,0,0,0-3.06-.54,8.74,8.74,0,0,0-3.89,1A23.89,23.89,0,0,0,651,141c0,.38.09.81.12,1.31s0,1,0,1.47v17.46H646.5V145.72a34.18,34.18,0,0,0-.16-3.43,7.07,7.07,0,0,0-.67-2.6,3.69,3.69,0,0,0-1.63-1.57,7.09,7.09,0,0,0-3.06-.53,8.62,8.62,0,0,0-3.81.93,22.46,22.46,0,0,0-3.81,2.37v20.36h-4.64V134h4.64v3a20.28,20.28,0,0,1,4.33-2.79,10.87,10.87,0,0,1,4.6-1,9.07,9.07,0,0,1,4.77,1.18,7.22,7.22,0,0,1,2.92,3.24,23.22,23.22,0,0,1,5.13-3.38,12.05,12.05,0,0,1,5-1q4.54,0,6.7,2.73c1.44,1.81,2.15,4.35,2.15,7.6Z"/><path class="cls-3" d="M699.26,161.25h-4.61v-2.9c-.41.27-1,.66-1.66,1.16a12.1,12.1,0,0,1-2,1.18,14,14,0,0,1-2.66.94,14.74,14.74,0,0,1-3.53.38,8.88,8.88,0,0,1-6.31-2.44,8.19,8.19,0,0,1-2.59-6.23,8.54,8.54,0,0,1,1.34-5,9,9,0,0,1,3.84-3,20.86,20.86,0,0,1,6-1.49q3.52-.39,7.57-.59v-.7a5.37,5.37,0,0,0-.55-2.59,4,4,0,0,0-1.59-1.61,6.55,6.55,0,0,0-2.37-.76,20.71,20.71,0,0,0-2.89-.2,19.63,19.63,0,0,0-4.07.48,33,33,0,0,0-4.64,1.38h-.24v-4.66c.9-.25,2.21-.52,3.92-.81a30.27,30.27,0,0,1,5.06-.44,23.43,23.43,0,0,1,5.06.48,9.85,9.85,0,0,1,3.74,1.62,7.18,7.18,0,0,1,2.37,2.91,10.64,10.64,0,0,1,.81,4.42Zm-4.61-6.71v-7.6c-1.41.09-3.08.21-5,.37a25.52,25.52,0,0,0-4.55.71,7.48,7.48,0,0,0-3.23,1.74,5,5,0,0,0,.19,6.79,6.76,6.76,0,0,0,4.37,1.19,10.54,10.54,0,0,0,4.46-.94A20.19,20.19,0,0,0,694.65,154.54Z"/><path class="cls-3" d="M731.23,161.25h-4.64V145.72a26,26,0,0,0-.22-3.52,6.54,6.54,0,0,0-.81-2.58,3.82,3.82,0,0,0-1.78-1.53,7.71,7.71,0,0,0-3-.5,9.7,9.7,0,0,0-4,.93,20.52,20.52,0,0,0-4,2.37v20.36h-4.64V134h4.64v3a18.92,18.92,0,0,1,4.49-2.79,12,12,0,0,1,4.76-1q4.47,0,6.81,2.66c1.56,1.78,2.34,4.33,2.34,7.67Z"/><path class="cls-3" d="M762.51,161.25h-4.64v-2.86a16.9,16.9,0,0,1-4.17,2.67A11.69,11.69,0,0,1,749,162a9.38,9.38,0,0,1-7.83-3.76q-2.89-3.76-2.9-10.43a17.63,17.63,0,0,1,1-6.17A14.36,14.36,0,0,1,742,137a11.52,11.52,0,0,1,8.54-3.81,14.44,14.44,0,0,1,3.84.46,17.46,17.46,0,0,1,3.53,1.4V123.26h4.64Zm-4.64-6.71V138.89a17.12,17.12,0,0,0-3.35-1.15,15.61,15.61,0,0,0-3.24-.32,7.35,7.35,0,0,0-6.06,2.69q-2.18,2.69-2.17,7.62c0,3.23.55,5.7,1.67,7.38a6,6,0,0,0,5.38,2.53,10.07,10.07,0,0,0,4-.87A17.33,17.33,0,0,0,757.87,154.54Z"/></g></symbol></defs><g id="Layer_2" data-name="Layer 2"><g id="Wide_Dark_Orange" data-name="Wide Dark Orange"><rect width="1877.7" height="512"/><use width="512" height="512" xlink:href="#orange"/><use width="773.69" height="176.41" transform="translate(546.61 106.95) scale(1.69)" xlink:href="#Text_Dark"/></g></g></svg>