<svg xmlns="http://www.w3.org/2000/svg" xmlns:xlink="http://www.w3.org/1999/xlink" width="322.22595" height="446.71776" viewBox="0 0 322.22595 446.71776"><defs><linearGradient id="a" x1="0.00356" y1="222.96893" x2="322.22595" y2="222.96893" gradientUnits="userSpaceOnUse"><stop offset="0" stop-color="#040099"/><stop offset="1" stop-color="#0500c0"/></linearGradient><linearGradient id="b" x1="142.98468" y1="26.84899" x2="322.22406" y2="26.84899" xlink:href="#a"/><linearGradient id="c" x1="57.53345" y1="434.1051" x2="57.53345" y2="165.72034" gradientUnits="userSpaceOnUse"><stop offset="0" stop-color="#0500d3"/><stop offset="1" stop-color="#040099"/></linearGradient><linearGradient id="d" y1="108.76196" x2="178.22449" y2="108.76196" gradientUnits="userSpaceOnUse"><stop offset="0" stop-color="#0500d7"/><stop offset="1" stop-color="#0600ff"/></linearGradient></defs><path d="M264.21216,10.61639,286.98694.0025c16.92663,9.83679,35.239,20.47876,35.239,20.47876-2.88721,179.92383-48.38214,323.566-143.75464,424.736-20.2912,1.79089-38.32809.7434-59.72514-9.08411,0,0-29.61789-16.85473-40.44406-23.42016-22.38318-13.55347-40.30943-36.485-53.29857-68.1377C9.20718,306.03277.882,254.57977.25557,191.649l-.252-25.92761,22.53622-15.60522a497.25456,497.25456,0,0,0,57.82054-46.66871,454.41064,454.41064,0,0,0,49.89124-55.3767l12.73669-16.74415,13.11942,1.1919a183.19023,183.19023,0,0,0,56.24005-3.848A250.14463,250.14463,0,0,0,264.21216,10.61639Z" style="fill:url(#a)"/><g style="isolation:isolate"><path d="M245.99423,239.17886q4.47245-2.58217,6.40311-1.69078c1.28709.60175,1.93693,1.97547,1.943,4.13239a11.845,11.845,0,0,1-1.88163,6.25962,17.58608,17.58608,0,0,1-6.42366,5.71487l-68.916,39.78867c-3.02,1.74357-5.167,2.32916-6.46047,1.76057-1.287-.57226-1.93683-1.93875-1.94292-4.0883a11.95948,11.95948,0,0,1,1.91331-6.35885,17.79427,17.79427,0,0,1,6.44921-5.72952Z" style="fill:#9a9a9a"/><path d="M109.62991,207.10123a9.41348,9.41348,0,0,1,4.90283-.78782l60.63624,3.74016-60.41692,73.62285q-3.30767,4.02607-4.89105,4.94024-2.57623,1.48738-4.47545.394c-1.26827-.72274-1.90536-2.1112-1.91122-4.18016a10.31151,10.31151,0,0,1,.99766-4.51476,31.98033,31.98033,0,0,1,4.057-5.86954L149.094,225.108l-40.71171-2.42044c-2.04041-.13742-3.40371-.526-4.077-1.16611a4.53014,4.53014,0,0,1-1.02-3.35724,14.2701,14.2701,0,0,1,6.34457-11.06294Z" style="fill:#9a9a9a"/><path d="M286.98425,0,264.20947,10.61389a258.128,258.128,0,0,1-44.076,16.17481q-3.90216,1.01788-7.78845,1.87927a183.14838,183.14838,0,0,1-56.2409,3.84839l-13.11945-1.1919,35.23981,20.47925,13.11938,1.1919a183.14908,183.14908,0,0,0,56.241-3.84864q3.88806-.86187,7.78839-1.87915a258.13765,258.13765,0,0,0,44.076-16.1748l22.77478-10.61389Z" style="fill:url(#b)"/><path d="M240.3195,80.64175a276.30176,276.30176,0,0,0,56.81571-19.76682c-.5785,59.886-8.16279,111.7213-19.19731,155.82634a546.72086,546.72086,0,0,1-30.55833,89.41545c-16.808,37.85639-34.71852,65.642-48.3327,83.92261-6.811,9.13466-12.54106,15.88224-16.51238,20.29853-1.54916,1.71778-2.83054,3.08217-3.79985,4.0896a67.70038,67.70038,0,0,1-17.332-.43515,80.51955,80.51955,0,0,1-30.09457-10.9457c-16.55948-10.038-34.24914-28.3005-47.86918-61.49979-13.13-32.028-22.463-77.9902-23.117-143.99163a537.95591,537.95591,0,0,0,62.85415-50.765,504.67371,504.67371,0,0,0,55.74977-61.92633A199.00714,199.00714,0,0,0,240.3195,80.64175ZM114.75169,283.676l60.417-73.62237-60.63633-3.74045a9.4136,9.4136,0,0,0-4.9029.78773,14.27087,14.27087,0,0,0-6.34459,11.06311,4.53172,4.53172,0,0,0,1.02,3.35739c.67347.63953,2.03644,1.02887,4.07694,1.166l40.71215,2.42049-40.56541,49.33854a31.98369,31.98369,0,0,0-4.057,5.869,10.31568,10.31568,0,0,0-.99768,4.51473c.00586,2.06916.64314,3.45734,1.91129,4.1807q1.90224,1.09535,4.47539-.39439,1.59034-.91818,4.89113-4.94046M252.45843,247.88a11.84652,11.84652,0,0,0,1.88168-6.25983c-.00611-2.15706-.65592-3.53045-1.94287-4.1322q-1.93131-.89181-6.40349,1.69055l-68.91582,39.78857a17.79179,17.79179,0,0,0-6.4495,5.73013,11.95894,11.95894,0,0,0-1.91314,6.35846c.00609,2.1495.65588,3.516,1.94275,4.08825,1.29345.56911,3.44085-.01722,6.46076-1.76076l68.91582-39.78857a17.58825,17.58825,0,0,0,6.42381-5.7146"/><path d="M115.0669,434.10509,79.8271,413.626q-.77005-.44754-1.5346-.91061C55.91536,399.15046,37.98912,376.226,25.00085,344.57273,9.20364,306.03077.87844,254.57772.25289,191.64646l35.23979,20.47913c.62555,62.93126,8.95074,114.38431,24.748,152.92627,12.98827,31.65322,30.91451,54.57773,53.29165,68.14264Q114.29681,433.65757,115.0669,434.10509Z" style="fill:none"/><path d="M57.77082,170.5963,22.531,150.11717a496.96709,496.96709,0,0,0,57.82574-46.6717A454.11089,454.11089,0,0,0,130.248,48.06877L165.48779,68.5479a454.11,454.11,0,0,1-49.89123,55.3767A496.96709,496.96709,0,0,1,57.77082,170.5963Z" style="fill:none"/><path d="M299.44926,31.09306l22.7748-10.61392L321.96635,46.95c-.55935,57.61909-7.45531,113.25284-20.49469,165.35687a602.92783,602.92783,0,0,1-33.6156,98.22777c-15.67624,35.307-34.18915,67.39364-55.02825,95.37168-6.66958,8.94283-13.33006,17.12366-19.79407,24.30286-1.69569,1.88214-3.37253,3.68867-4.97265,5.35431l-9.24565,9.61463-9.26383,1.06485a82.6643,82.6643,0,0,1-21.31577-.4725,92.7196,92.7196,0,0,1-34.70355-12.576c-22.37714-13.56491-40.30338-36.48942-53.29165-68.14264-15.79722-38.542-24.12241-89.995-24.748-152.92627l-.25288-25.92614,22.531-15.60315a496.96709,496.96709,0,0,0,57.82574-46.6717,454.11,454.11,0,0,0,49.89123-55.3767l12.73669-16.74424,13.11941,1.19189A183.14832,183.14832,0,0,0,247.58481,49.147,250.11822,250.11822,0,0,0,299.44926,31.09306Zm-21.5118,185.60871C288.97181,172.597,296.557,120.7603,297.13509,60.87508a276.31142,276.31142,0,0,1-56.81537,19.76631,198.9857,198.9857,0,0,1-61.39407,4.22186,504.58951,504.58951,0,0,1-55.74958,61.92643,538.06473,538.06473,0,0,1-62.854,50.76564c.65331,66.001,9.98634,111.96423,23.11691,143.99133,13.62,33.19928,31.30949,51.46208,47.869,61.49933a80.51576,80.51576,0,0,0,30.09411,10.94663,67.75561,67.75561,0,0,0,17.33215.43548c.96941-1.00777,2.25063-2.3728,3.80034-4.09,3.971-4.41654,9.7014-11.16423,16.51168-20.29882,13.61447-18.28061,31.52519-46.06652,48.33284-83.92262a546.70455,546.70455,0,0,0,30.55828-89.41488" style="fill:#04009a"/><path d="M113.53229,433.19446c-22.37714-13.56482-40.30341-36.48938-53.29163-68.1427q-1.59183-3.88349-3.0824-7.94165C47.7724,331.55835,41.40094,300.84729,38.10205,265.343q-2.32644-25.03859-2.60937-53.21753l-.25287-25.926L0,165.72034l.25287,25.92614q.28,28.1598,2.60943,53.21729c3.29889,35.50439,9.67029,66.21545,19.05616,91.76733q1.49057,4.05762,3.08239,7.94165c12.98829,31.6532,30.91449,54.57764,53.29163,68.14258q.76456.46308,1.53461.91065l35.2398,20.47912Q114.29685,433.65741,113.53229,433.19446Z" style="fill:url(#c)"/><path d="M142.98468,31.32446,130.248,48.06873Q120.23962,61.22723,109.14545,73.755,95.476,89.19209,80.35675,103.44543q-14.62061,13.77832-30.85992,26.674Q36.45568,140.474,22.531,150.11719L0,165.72034l35.23981,20.47912,22.531-15.60315q13.90082-9.62348,26.96576-19.99768,16.19367-12.85766,30.86-26.67407,15.08-14.211,28.78869-29.69043,11.0734-12.50518,21.10254-25.68628l12.7367-16.74414Z" style="fill:url(#d)"/></g></svg>