<svg xmlns="http://www.w3.org/2000/svg" xmlns:xlink="http://www.w3.org/1999/xlink" width="459.76402" height="308.83657" viewBox="0 0 459.76402 308.83657"><defs><linearGradient id="a" x1="0.12211" y1="148.85814" x2="459.76402" y2="148.85814" gradientUnits="userSpaceOnUse"><stop offset="0" stop-color="#04009c"/><stop offset="1" stop-color="#0400a9"/></linearGradient><linearGradient id="b" x1="435.83038" y1="245.55077" x2="459.75739" y2="245.55077" gradientUnits="userSpaceOnUse"><stop offset="0" stop-color="#03008b"/><stop offset="1" stop-color="#03008c"/></linearGradient><linearGradient id="c" x1="0" y1="235.72657" x2="435.94598" y2="235.72657" xlink:href="#a"/></defs><path d="M265.27406,11.60926l25.198-11.6052,22.111,13.63312c48.12958,29.67587,85.05032,60.05063,109.74255,90.27917,16.23772,19.87155,27.33444,39.86848,32.97617,59.43441,6.453,22.33659,5.9028,43.78653-1.6233,63.76867a89.74318,89.74318,0,0,1-9.0854,17.81245c-.94729,1.424-1.93221,2.80325-2.92756,4.08692l-4.69832,6.1071-.33588,41.04341-.77994,1.03376-2.18.50915-.3755-40.64252-10.35728,2.43608a298.53541,298.53541,0,0,1-32.43493,5.52632,453.92012,453.92012,0,0,1-62.81669,2.952c-45.15606-.88843-91.57918-7.78491-137.9965-20.487-56.48468-15.4688-112.72265-39.57953-167.1541-71.65963L.12211,162.62025l20.59754-14.09814c18.97886-12.988,34.87181-26.3037,47.21772-39.56493C80.70227,95.24286,90.07889,81.15362,95.827,67.06905l4.90584-12.02847,20.73059-2.938a582.105,582.105,0,0,0,81.22326-17.203A449.58073,449.58073,0,0,0,265.27406,11.60926Z" style="fill:url(#a)"/><g style="isolation:isolate"><path d="M265.26836,11.6052,290.46638,0l22.11015,13.63362c48.12957,29.67586,85.05119,60.05014,109.74254,90.27916,16.23687,19.871,27.33532,39.868,32.97617,59.43442,6.45389,22.33609,5.90281,43.78653-1.6233,63.76867a89.35675,89.35675,0,0,1-9.0854,17.81244c-.94814,1.42355-1.93221,2.80325-2.92074,4.09l-5.71984,7.423-13.01389,3.06092a298.43075,298.43075,0,0,1-32.4349,5.52533,453.09386,453.09386,0,0,1-62.81756,2.95254c-45.15522-.88793-91.57834-7.78441-137.99563-20.4875C133.19927,232.02477,76.96131,207.914,22.52988,175.83294L.11554,162.61669,20.71376,148.525C39.69806,135.52712,55.584,122.21433,67.93,108.95311c12.76662-13.71431,22.14239-27.804,27.89048-41.88763l4.91178-12.02491,20.72465-2.94151a582.9649,582.9649,0,0,0,81.23007-17.19994A449.47,449.47,0,0,0,265.26836,11.6052ZM390.68781,112.53287C369.78836,86.94917,337.13029,58.3344,287.10286,27.4923a495.62978,495.62978,0,0,1-68.56479,25.51186,631.183,631.183,0,0,1-88.65529,18.78652c-6.56419,16.09549-17.057,31.70339-31.13192,46.8264-13.7739,14.795-30.97336,29.12484-51.29159,43.03115,57.07528,33.64246,110.16089,54.66679,157.103,67.51887,48.68643,13.3278,90.7859,17.89615,124.19093,18.552a393.15863,393.15863,0,0,0,54.51844-2.53973,246.1789,246.1789,0,0,0,26.41812-4.46569c.59918-.77938,1.3649-1.82522,2.22709-3.1288a74.65733,74.65733,0,0,0,7.56347-14.86793c4.91895-13.05339,8.21445-32.14063,1.294-56.08923-4.60195-15.97161-13.76288-34.112-30.08651-54.09489" style="fill:#0600f6"/><path d="M361.80347,132.70331a17.759,17.759,0,0,1,8.18366-2.6,11.83713,11.83713,0,0,1,6.42518,1.58758q2.70714,1.62159,2.49919,3.72072t-4.79442,4.66762l-69.72247,39.04424a18.1226,18.1226,0,0,1-8.217,2.65494,11.68661,11.68661,0,0,1-6.4-1.57252q-2.76349-1.65534-2.52334-3.77261.24669-2.1208,4.82671-4.6857Z" style="fill:#f6f6f6"/><path d="M218.53768,53.00418a495.61235,495.61235,0,0,0,68.56544-25.51186c50.0274,30.84261,82.68657,59.45692,103.58546,85.04051,16.32357,19.98282,25.48388,38.12287,30.0866,54.095,6.91952,23.94849,3.62466,43.03586-1.29441,56.08884a74.69624,74.69624,0,0,1-7.56387,14.86852c-.86178,1.30317-1.62745,2.34924-2.227,3.12826a245.94123,245.94123,0,0,1-26.41731,4.466,393.14273,393.14273,0,0,1-54.51917,2.53983c-33.4057-.65637-75.50458-5.22412-124.1907-18.55173-46.94155-12.8524-100.0276-33.87706-157.10376-67.51919,20.31924-13.90634,37.518-28.23669,51.29184-43.03122,14.07556-15.12329,24.56754-30.73075,31.13228-46.82641A631.177,631.177,0,0,0,218.53768,53.00418ZM202.43215,191.0397l28.19732-54.08747L136.3526,151.45785q-5.09193.83538-6.697,1.73116-2.60685,1.45981-2.6607,3.64713-.05746,2.189,2.53052,3.73956a10.22793,10.22793,0,0,0,4.37949,1.44031,32.07349,32.07349,0,0,0,7.123-.50257l63.22538-9.79065L185.23729,187.995c-.93926,1.82584-1.31189,3.19705-1.11342,4.10228a4.46975,4.46975,0,0,0,2.34448,2.58738,14.24935,14.24935,0,0,0,12.80738.207,9.131,9.131,0,0,0,3.15642-3.852M378.9106,135.41144q.20793-2.09887-2.49884-3.72059a11.83928,11.83928,0,0,0-6.42519-1.58779,17.76287,17.76287,0,0,0-8.18374,2.60042l-69.72209,39.044q-4.58329,2.56663-4.8275,4.68581-.23607,2.11566,2.52369,3.77262a11.68851,11.68851,0,0,0,6.4,1.57268,18.12732,18.12732,0,0,0,8.21736-2.65528l69.72208-39.044q4.5833-2.56662,4.79426-4.66787"/><path d="M129.65626,153.1889q1.60855-.90078,6.69685-1.73118l94.27722-14.5053-28.19752,54.08724a9.13171,9.13171,0,0,1-3.15633,3.852,14.24895,14.24895,0,0,1-12.80735-.207,4.467,4.467,0,0,1-2.34437-2.58729c-.199-.90534.17437-2.27645,1.11333-4.10237l19.01618-36.27209-63.22588,9.79035a32.04626,32.04626,0,0,1-7.12292.5026,10.22381,10.22381,0,0,1-4.37951-1.44033q-2.585-1.54844-2.53064-3.73956Q127.0528,154.64674,129.65626,153.1889Z" style="fill:#f6f6f6"/><path d="M453.67194,227.11583a89.3623,89.3623,0,0,1-9.08539,17.8125c-.94812,1.42359-1.93219,2.80323-2.92078,4.09009l-5.71979,7.42285-.1156,40.75806,5.71985-7.42285c.98853-1.28687,1.9726-2.66651,2.92078-4.09009a89.362,89.362,0,0,0,9.08539-17.8125,94.36116,94.36116,0,0,0,6.08545-33.21362l.11554-40.75806A94.36075,94.36075,0,0,1,453.67194,227.11583Z" style="fill:url(#b)"/><g style="isolation:isolate"><path d="M422.93207,259.50231a298.49767,298.49767,0,0,1-32.43488,5.52514q-10.58075,1.27332-21.62585,2.01783c-13.33075.89843-27.113,1.21386-41.19171.93481q-14.69266-.28895-29.55115-1.42407A578.13971,578.13971,0,0,1,189.684,247.49254C133.19928,232.02477,76.9613,207.91393,22.52991,175.83287L.11554,162.61657,0,203.37487l22.41431,13.21631c54.43145,32.08105,110.66943,56.19165,167.15411,71.65942a578.1601,578.1601,0,0,0,108.44446,19.06372q14.85215,1.13379,29.55115,1.42383c14.07873.279,27.861-.03613,41.19177-.93482q11.03209-.7434,21.62579-2.01782a298.37592,298.37592,0,0,0,32.43494-5.52514l13.01385-3.061.1156-40.75806Z" style="fill:url(#c)"/></g></g></svg>