<?xml version="1.0" encoding="utf-8"?>
<!-- Generator: Adobe Illustrator 25.0.0, SVG Export Plug-In . SVG Version: 6.00 Build 0)  -->
<svg version="1.1" id="Text" xmlns="http://www.w3.org/2000/svg" xmlns:xlink="http://www.w3.org/1999/xlink" x="0px" y="0px"
	 viewBox="0 0 512 512" style="enable-background:new 0 0 512 512;" xml:space="preserve">
<style type="text/css">
	.st0{fill:#FC8300;}
	.st1{fill:#FFFFFF;}
	.st2{font-family:'CourierNewPSMT';}
	.st3{font-size:192px;}
</style>
<g>
	<path d="M256,497c-64.4,0-124.9-25.1-170.4-70.6S15,320.4,15,256S40.1,131.1,85.6,85.6S191.6,15,256,15s124.9,25.1,170.4,70.6
		S497,191.6,497,256s-25.1,124.9-70.6,170.4S320.4,497,256,497z"/>
	<path class="st0" d="M256,30c30.5,0,60.1,6,88,17.7c26.9,11.4,51.1,27.7,71.8,48.4c20.8,20.8,37.1,44.9,48.4,71.8
		c11.8,27.8,17.7,57.4,17.7,88s-6,60.1-17.7,88c-11.4,26.9-27.7,51.1-48.4,71.8c-20.8,20.8-44.9,37.1-71.8,48.4
		C316.1,476,286.5,482,256,482s-60.1-6-88-17.7c-26.9-11.4-51.1-27.7-71.8-48.4s-37.1-45-48.5-71.9C36,316.1,30,286.5,30,256
		s6-60.1,17.7-88c11.4-26.9,27.7-51.1,48.4-71.8c20.9-20.8,45-37.1,71.9-48.5C195.9,36,225.5,30,256,30 M256,0
		C114.6,0,0,114.6,0,256s114.6,256,256,256s256-114.6,256-256S397.4,0,256,0L256,0z"/>
</g>
<g>
	<path class="st1" d="M255.9,406.9c-9.6,0-19.7-1.2-30.4-3.8c-10.7-2.5-23.1-7.3-37.2-14.4c-14.1-7.1-22.6-12.2-25.4-15.5
		c-1-1-1.5-2.1-1.5-3.2c0-1.5,0.5-2.8,1.6-3.8c1-1,2.3-1.6,3.7-1.6c0.8,0,1.8,0.3,2.8,0.9c16.8,9.2,32,15.7,45.6,19.6
		c13.7,3.9,27.3,5.9,41,5.9c13.8,0,27.5-2,41.1-5.9c13.7-3.9,28.9-10.5,45.8-19.6c1-0.6,1.9-0.9,2.8-0.9c1.4,0,2.6,0.5,3.6,1.6
		c1,1,1.5,2.3,1.5,3.8c0,1.2-0.5,2.2-1.4,3.2c-2.8,3.1-11.1,8.1-24.9,15.1s-25.9,11.8-36.5,14.5
		C277.4,405.5,266.7,406.9,255.9,406.9z"/>
</g>
<text transform="matrix(1 0 0 1 117 239)" class="st1 st2 st3">&gt;</text>
<text transform="matrix(1 0 0 1 283 193)" class="st1 st2 st3">_</text>
</svg>
