<?xml version="1.0" encoding="utf-8"?>
<!-- Generator: Adobe Illustrator 25.0.0, SVG Export Plug-In . SVG Version: 6.00 Build 0)  -->
<svg version="1.1" id="Text" xmlns="http://www.w3.org/2000/svg" xmlns:xlink="http://www.w3.org/1999/xlink" x="0px" y="0px"
	 viewBox="0 0 512 512" style="enable-background:new 0 0 512 512;" xml:space="preserve">
<style type="text/css">
	.st0{fill:#00C900;}
	.st1{fill:#FFFFFF;}
	.st2{font-family:'CourierNewPS-BoldMT';}
	.st3{font-size:256px;}
</style>
<g>
	<path d="M256,497c-64.4,0-124.9-25.1-170.4-70.6C40.1,380.9,15,320.4,15,256c0-64.4,25.1-124.9,70.6-170.4
		C131.1,40.1,191.6,15,256,15c64.4,0,124.9,25.1,170.4,70.6c45.5,45.5,70.6,106,70.6,170.4c0,64.4-25.1,124.9-70.6,170.4
		C380.9,471.9,320.4,497,256,497z"/>
	<path class="st0" d="M256,30c30.5,0,60.1,6,88,17.7c26.9,11.4,51.1,27.7,71.8,48.4c20.8,20.8,37.1,44.9,48.4,71.8
		c11.8,27.8,17.7,57.4,17.7,88s-6,60.1-17.7,88c-11.4,26.9-27.7,51.1-48.4,71.8c-20.8,20.8-44.9,37.1-71.8,48.4
		C316.1,476,286.5,482,256,482s-60.1-6-88-17.7c-26.9-11.4-51.1-27.7-71.8-48.4S59.1,370.9,47.7,344C36,316.1,30,286.5,30,256
		s6-60.1,17.7-88c11.4-26.9,27.7-51.1,48.4-71.8C117,75.4,141.1,59.1,168,47.7C195.9,36,225.5,30,256,30 M256,0
		C114.6,0,0,114.6,0,256s114.6,256,256,256s256-114.6,256-256S397.4,0,256,0L256,0z"/>
</g>
<text transform="matrix(1 0 0 1 96.8845 285.9376)" class="st1 st2 st3">&gt;_</text>
</svg>
