<svg xmlns="http://www.w3.org/2000/svg" xmlns:xlink="http://www.w3.org/1999/xlink" width="322.33877" height="445.68853" viewBox="0 0 322.33877 445.68853"><defs><linearGradient id="a" y1="222.22901" x2="322.13116" y2="222.22901" gradientUnits="userSpaceOnUse"><stop offset="0" stop-color="#b70000"/><stop offset="0" stop-color="#900"/><stop offset="1" stop-color="#7e0000"/></linearGradient><clipPath id="b"><path d="M74.14378,127.07828c-1.71113-.98791-3.20716-1.12416-4.47548-.40144" style="fill:none"/></clipPath><linearGradient id="c" x1="0.11538" y1="27.34498" x2="178.63937" y2="27.34498" gradientUnits="userSpaceOnUse"><stop offset="0" stop-color="#b40000"/><stop offset="1" stop-color="#9d0000"/></linearGradient><linearGradient id="d" x1="264.24209" y1="432.98114" x2="264.24209" y2="165.66119" gradientUnits="userSpaceOnUse"><stop offset="0" stop-color="#850000"/><stop offset="1" stop-color="#800"/></linearGradient><linearGradient id="e" x1="232.8692" y1="186.1402" x2="232.8692" y2="30.88159" xlink:href="#a"/></defs><path d="M299.37069,149.99226l22.76047,15.669-.40589,26.0946c-2.25258,134.14524-67.84264,259.95891-179.96344,252.376C30.3137,332.61326-2.21675,150.5967.11541,20.47914L35.14759,0,57.69935,10.4264c20.782,9.60974,40.26179,16.38959,57.90094,20.15009,18.228,3.88147,35.06456,4.65845,50.0356,2.30914l12.7959-2.004,13.06372,16.31672a578.60892,578.60892,0,0,0,56.07806,60.99194A445.17967,445.17967,0,0,0,299.37069,149.99226Z" style="fill:url(#a)"/><g style="isolation:isolate"><g style="isolation:isolate"><g style="isolation:isolate"><path d="M35.56992,179.14685A681.17017,681.17017,0,0,1,25.05748,60.72456" style="fill:#850000"/></g></g><path d="M72.818,141.17824a32.08931,32.08931,0,0,1-4.06356-5.87348"/><path d="M68.75443,135.30477l-.00244-.00518"/><path d="M67.75679,130.77582c.00724-2.0061.64447-3.3774,1.91106-4.09988"/><path d="M67.75676,130.78316l0-.00735"/><g style="isolation:isolate"><g style="clip-path:url(#b)"><g style="isolation:isolate"><path d="M69.907,126.55222q-.12068.05734-.23874.12462" style="fill:#8f8f8f"/><path d="M70.63363,126.30191a3.40352,3.40352,0,0,0-.72659.25031" style="fill:#949494"/><path d="M71.36435,126.22034a3.48945,3.48945,0,0,0-.73072.08157" style="fill:#999"/><path d="M72.19279,126.30172a4.09531,4.09531,0,0,0-.82844-.08138" style="fill:#9e9e9e"/><path d="M73.39232,126.693a5.66452,5.66452,0,0,0-1.19953-.39129" style="fill:#a3a3a3"/></g></g></g><g style="isolation:isolate"><g style="isolation:isolate"><path d="M76.89055,129.50677a13.91988,13.91988,0,0,0-2.74677-2.42849" style="fill:#a8a8a8"/></g></g><line x1="139.45191" y1="205.56792" x2="79.03499" y2="131.94506" style="fill:#b2b2b2"/><path d="M209.8872,316.2574a17.65084,17.65084,0,0,1,6.39176,5.69634,11.9167,11.9167,0,0,1,1.91328,6.35147c-.006,2.11293-.64932,3.46839-1.91729,4.07369q-1.90191.90815-6.42862-1.7054l-68.916-39.78868a17.92757,17.92757,0,0,1-6.44929-5.70025,11.67713,11.67713,0,0,1-1.91343-6.31477c.00611-2.15692.64955-3.53434,1.943-4.125q1.9306-.89142,6.46056,1.724Z" style="fill:#e8e8e8"/><path d="M241.3852,412.502l-35.2398,20.47913a108.69161,108.69161,0,0,0,25.12821-20.39856c13.863-14.98952,25.32148-34.89419,34.06178-59.15423,13.28566-36.90525,20.474-84.40742,21.3577-141.19338l35.23979-20.47913c-.88369,56.786-8.072,104.28813-21.3577,141.19339-8.7403,24.26-20.19874,44.16471-34.06178,59.15422A108.69177,108.69177,0,0,1,241.3852,412.502Z" style="fill:none"/><path d="M264.33849,170.47139,287.099,186.1403l-.40587,26.0947c-.88369,56.786-8.072,104.28813-21.3577,141.19338-8.7403,24.26-20.19874,44.16471-34.06178,59.15423-15.83092,17.11635-34.46494,27.7492-55.39433,31.61916a87.92607,87.92607,0,0,1-19.86087,1.40011c-1.70688-.07438-3.38239-.2113-4.99364-.39874l-9.26293-1.07131-9.2396-9.61113a296.38188,296.38188,0,0,1-21.25033-25.055,453.62514,453.62514,0,0,1-34.512-52.53163c-22.22722-39.31626-39.97114-82.84191-52.73172-129.36224C8.49466,170.949.48793,110.06674.22675,46.61555L.1154,20.47914,22.66716,30.90553c20.782,9.60974,40.26179,16.38957,57.90093,20.1501,18.22806,3.88147,35.06458,4.65842,50.03562,2.30912l12.7959-2.004,13.06371,16.31669a578.60429,578.60429,0,0,0,56.078,60.99189A445.16718,445.16718,0,0,0,264.33849,170.47139ZM241.85326,330.67045c11.24793-31.23313,19.09488-74.15907,20.017-133.17818a491.72194,491.72194,0,0,1-56.74848-45.80778,626.02406,626.02406,0,0,1-61.21042-66.55591c-17.121,2.68126-35.81752,1.73357-55.924-2.54833C68.32083,78.391,47.302,71.00943,25.05748,60.72456,25.329,127.2595,34.37135,183.8238,47.27772,230.88334c13.38672,48.79263,30.915,87.3874,47.36445,116.48341A393.72033,393.72033,0,0,0,124.582,392.973a243.036,243.036,0,0,0,17.267,20.41129c.978.11657,2.26275.234,3.8102.304a73.64625,73.64625,0,0,0,16.57954-1.19261c13.66738-2.52245,31.67687-9.57678,48.64992-27.92262,11.31627-12.242,22.17885-29.50749,30.96459-53.90259" style="fill:#e80000"/><path d="M205.122,151.685a491.58342,491.58342,0,0,0,56.74848,45.80705c-.92219,59.02023-8.76914,101.94565-20.01665,133.17927-8.78574,24.395-19.64884,41.65991-30.96463,53.902-16.97334,18.34515-34.98321,25.39967-48.65038,27.92184a73.63758,73.63758,0,0,1-16.5793,1.19372c-1.54725-.07061-2.83216-.18788-3.81058-.30428a243.14542,243.14542,0,0,1-17.26634-20.41053,393.66989,393.66989,0,0,1-29.94082-45.60783c-16.44854-29.09455-33.977-67.69019-47.364-116.482C34.37135,183.82409,25.32905,127.25984,25.05734,60.72393c22.24507,10.2864,43.264,17.66716,62.92953,21.85625,20.107,4.28235,38.8036,5.23,55.92468,2.54894M78.81524,209.30768l60.63633-3.74044-60.417-73.62306a23.96761,23.96761,0,0,0-4.89134-4.86629q-2.56659-1.48182-4.47538-.40195c-1.26814.72336-1.90538,2.09713-1.91108,4.10722a10.40034,10.40034,0,0,0,.99766,4.5216,32.08862,32.08862,0,0,0,4.06358,5.87348l40.56481,49.3382-40.71155,2.42083c-2.04648.13366-3.40347.52576-4.08352,1.16219a4.566,4.566,0,0,0-1.02,3.35739,14.2531,14.2531,0,0,0,6.3444,11.129,9.04894,9.04894,0,0,0,4.90309.7218M216.27455,332.37822c1.26781-.60524,1.91158-1.96079,1.91757-4.07321a11.91465,11.91465,0,0,0-1.91375-6.35195,17.64943,17.64943,0,0,0-6.39154-5.696L140.971,276.46853q-4.52987-2.61532-6.46086-1.72437c-1.2935.59041-1.93674,1.96828-1.94285,4.12533a11.67809,11.67809,0,0,0,1.91326,6.31452,17.93322,17.93322,0,0,0,6.44958,5.7006L209.846,330.67318q4.52987,2.61531,6.42859,1.705"/><path d="M74.14378,127.07828q1.58973.91783,4.89121,4.86678l60.41692,73.62286-60.63624,3.74015a9.0485,9.0485,0,0,1-4.903-.72172,14.252,14.252,0,0,1-6.34439-11.129,4.56317,4.56317,0,0,1,1.01994-3.35717c.67968-.63639,2.03657-1.02879,4.08338-1.16241l40.71171-2.42054L72.81837,141.179a32.08683,32.08683,0,0,1-4.06343-5.87335,10.39864,10.39864,0,0,1-.99761-4.5221c.0057-2.01014.64271-3.384,1.911-4.10675C70.93662,125.95412,72.43265,126.09037,74.14378,127.07828Z" style="fill:#e8e8e8"/><path d="M22.66716,30.90553,57.907,10.42641c20.782,9.60973,40.26179,16.38957,57.90093,20.15009,18.22806,3.88148,35.06457,4.65842,50.03562,2.30912L130.60371,53.36475c-14.971,2.3493-31.80756,1.57235-50.03562-2.30912C62.929,47.2951,43.44915,40.51527,22.66716,30.90553Z" style="fill:none"/><path d="M165.84347,32.88562a113.26327,113.26327,0,0,1-16.69519,1.32153,152.625,152.625,0,0,1-30.77136-3.10235q-1.27981-.25379-2.569-.52832c-16.26251-3.467-34.08954-9.50049-53.05914-17.95191Q60.34,11.55149,57.907,10.42639L35.35519,0,.11538,20.47913,22.66714,30.90552q2.43293,1.125,4.8418,2.19818c18.9696,8.45141,36.79669,14.48486,53.05914,17.9519q1.28925.27457,2.569.52832a152.62511,152.62511,0,0,0,30.77137,3.10236,113.26486,113.26486,0,0,0,16.69525-1.32153l12.7959-2.004,35.23974-20.47919Z" style="fill:url(#c)"/><path d="M156.46332,67.67746l35.23979-20.47913a578.60429,578.60429,0,0,0,56.078,60.99189,445.16718,445.16718,0,0,0,51.79712,41.802l-35.23979,20.47913a445.16718,445.16718,0,0,1-51.79712-41.802A578.60429,578.60429,0,0,1,156.46332,67.67746Z" style="fill:none"/><path d="M287.099,186.1402l-.40589,26.09472c-.88366,56.786-8.072,104.28821-21.35766,141.19336-8.7403,24.26014-20.1988,44.1648-34.06183,59.1543a108.6923,108.6923,0,0,1-25.12818,20.39856L241.38522,412.502a108.68894,108.68894,0,0,0,25.12817-20.39856c13.863-14.9895,25.32148-34.89416,34.06177-59.15417,13.28571-36.90527,20.474-84.40747,21.35773-141.19336l.40588-26.09473Z" style="fill:url(#d)"/><path d="M299.57828,149.99225a445.16634,445.16634,0,0,1-51.79712-41.802Q235.5986,96.81353,223.53409,83.96442q-16.14222-17.19178-31.831-36.76612L178.63937,30.88159,143.39963,51.36078l13.06372,16.31665q15.64022,19.52179,31.831,36.766,12.04431,12.82746,24.247,24.22583a445.15989,445.15989,0,0,0,51.79712,41.80212L287.099,186.1402l35.2398-20.479Z" style="fill:url(#e)"/></g></svg>