<svg xmlns="http://www.w3.org/2000/svg" xmlns:xlink="http://www.w3.org/1999/xlink" width="461.89837" height="307.67728" viewBox="0 0 461.89837 307.67728"><defs><linearGradient id="a" y1="147.54446" x2="461.78282" y2="147.54446" gradientUnits="userSpaceOnUse"><stop offset="0" stop-color="#c20000"/><stop offset="1" stop-color="#920000"/></linearGradient><linearGradient id="b" x1="0.00002" y1="244.07806" x2="22.40606" y2="244.07806" gradientUnits="userSpaceOnUse"><stop offset="0" stop-color="#940000"/><stop offset="1" stop-color="#a90000"/></linearGradient><linearGradient id="c" x1="22.29046" y1="236.79393" x2="461.89837" y2="236.79393" xlink:href="#a"/></defs><path d="M441.2035,151.2629l20.57932,14.4166-23.05328,13.01224c-50.17927,28.32514-101.8075,50.16994-153.44368,64.93351a604.0181,604.0181,0,0,1-101.87555,20.00193c-38.42181,4.07349-75.46008,4.08066-110.11533.026-11.07346-1.30111-21.48162-2.98184-30.93788-4.98723-2.48388-.531-4.8868-1.07987-7.12935-1.63279l-11.36443-2.81066-.49644,40.86644-1.07417-.26623L20.64315,292.362l-.07165-40.84319-3.84113-5.17215A82.21149,82.21149,0,0,1,6.4825,227.643,92.53115,92.53115,0,0,1,.02186,191.30781c.559-26.16063,11.44818-53.155,32.37346-80.22675C57.8621,78.12979,98.25915,45.19343,152.45938,13.18556L174.77957,0,199.557,11.71835a498.22725,498.22725,0,0,0,69.33262,26.74321A454.4584,454.4584,0,0,0,341.792,53.97279L362.66813,56.634l5.51458,11.95819A183.42652,183.42652,0,0,0,399.63608,115.374,250.11779,250.11779,0,0,0,441.2035,151.2629Z" style="fill:url(#a)"/><g style="isolation:isolate"><path d="M234.39036,209.247q4.46288,2.57664,4.6659,4.69981.19309,2.11784-2.60088,3.74521a11.87114,11.87114,0,0,1-6.37454,1.50031,17.55376,17.55376,0,0,1-8.15466-2.70194l-68.916-39.78867q-4.52991-2.61536-4.755-4.71459c-.15423-1.40449.71068-2.64677,2.57557-3.73052a11.87045,11.87045,0,0,1,6.4572-1.51876,17.77391,17.77391,0,0,1,8.18642,2.72047Z" style="fill:#e3e3e3"/><path d="M441.31905,151.49392l20.57932,14.4166-23.05328,13.01224c-50.17927,28.32514-101.8075,50.16994-153.44368,64.93351A604.0181,604.0181,0,0,1,183.52586,263.8582c-38.42181,4.07349-75.46008,4.08066-110.11533.026-11.07346-1.30111-21.48162-2.98184-30.93788-4.98723-2.48388-.531-4.8868-1.07987-7.12935-1.63279L22.406,254.0645l-5.56012-7.48678A82.21193,82.21193,0,0,1,6.59805,227.874,92.53115,92.53115,0,0,1,.13741,191.53883c.559-26.16063,11.44818-53.155,32.37346-80.22675C57.97765,78.36081,98.3747,45.42445,152.57493,13.41658L174.89512.231l24.77742,11.71835a498.22762,498.22762,0,0,0,69.33261,26.74321A454.45875,454.45875,0,0,0,341.9075,54.20381L362.78368,56.865l5.51458,11.95819A183.42652,183.42652,0,0,0,399.75163,115.605,250.11779,250.11779,0,0,0,441.31905,151.49392ZM269.83422,225.668c43.70095-12.49637,92.38461-31.84522,144.54181-61.28372a276.37571,276.37571,0,0,1-45.53186-39.3239A198.85093,198.85093,0,0,1,334.497,74.006a506.03982,506.03982,0,0,1-81.5107-17.32084A537.90992,537.90992,0,0,1,177.601,27.63836c-56.83794,33.56278-91.9759,64.62654-113.14088,92.008-21.94827,28.39894-28.9196,52.84985-29.32632,72.206a80.4846,80.4846,0,0,0,5.57477,31.53908,67.84162,67.84162,0,0,0,8.27515,15.22782c1.36437.33865,3.18713.7667,5.44908,1.2422,5.80346,1.23471,14.51233,2.82354,25.83432,4.15761,22.63265,2.64668,55.65131,4.26487,96.84641-.10334a547.33559,547.33559,0,0,0,92.7207-18.24768" style="fill:#e30000"/><path d="M368.84418,125.06007a276.32827,276.32827,0,0,0,45.53241,39.32458c-52.1586,29.43819-100.84146,48.78767-144.5423,61.28367a547.38819,547.38819,0,0,1-92.72114,18.24758c-41.19459,4.36788-74.21346,2.75008-96.84547.10327-11.32292-1.33427-20.03093-2.9232-25.83528-4.15778-2.26158-.47548-4.08447-.90333-5.44815-1.24217a67.83752,67.83752,0,0,1-8.27605-15.22755,80.50625,80.50625,0,0,1-5.574-31.53965c.40634-19.35582,7.37725-43.80673,29.32519-72.20548,21.16555-27.38118,56.30406-58.44519,113.14194-92.00819A537.77537,537.77537,0,0,0,252.98619,56.685a506.02978,506.02978,0,0,0,81.51123,17.32135A198.84014,198.84014,0,0,0,368.84418,125.06007Zm-238.61732-7.22744,93.96794,15.51113L197.11536,78.96128a9.39073,9.39073,0,0,0-3.13364-3.85217,14.27089,14.27089,0,0,0-12.75323.037,4.53174,4.53174,0,0,0-2.39106,2.55824c-.21707.9106.12126,2.2815,1.02875,4.12132L198.12605,118.293,135.11551,107.8319a32.35992,32.35992,0,0,0-7.11184-.58621,10.44644,10.44644,0,0,0-4.41524,1.39714c-1.789,1.03966-2.67257,2.28565-2.66436,3.74523s.87413,2.68728,2.58519,3.67516q1.59034.91818,6.7176,1.76941M230.081,219.19183a11.87116,11.87116,0,0,0,6.37453-1.5q2.7975-1.62573,2.60061-3.74557-.20318-2.12312-4.6658-4.69962l-68.91582-39.78857a17.77618,17.77618,0,0,0-8.18659-2.72071,11.871,11.871,0,0,0-6.45723,1.519c-1.865,1.08382-2.73012,2.326-2.57568,3.73039q.22182,2.10086,4.75524,4.7148l68.91582,39.78857a17.55086,17.55086,0,0,0,8.15492,2.70173"/><path d="M193.982,75.10947a9.39,9.39,0,0,1,3.13367,3.85206l27.079,54.38259L130.227,117.833q-5.13093-.84594-6.71753-1.76935c-1.71109-.9879-2.57721-2.21534-2.58544-3.67508s.87579-2.70573,2.66462-3.74528a10.44471,10.44471,0,0,1,4.41489-1.397,32.34071,32.34071,0,0,1,7.11181.58606l63.0108,10.46112-18.2597-36.46761c-.90761-1.83946-1.24629-3.2107-1.02865-4.12121a4.532,4.532,0,0,1,2.39114-2.55824,14.2704,14.2704,0,0,1,12.75306-.03691Z" style="fill:#e3e3e3"/><path d="M16.73037,287.33583A82.21126,82.21126,0,0,1,6.4825,268.63209,92.31549,92.31549,0,0,1,.00039,234.09145l.11554-40.75811A92.31577,92.31577,0,0,0,6.59805,227.874a82.21193,82.21193,0,0,0,10.24786,18.70374" style="fill:none"/><path d="M16.84594,246.57758h0c-.60285-.81128-1.26471-1.74219-1.96655-2.79053h0A84.49834,84.49834,0,0,1,6.59807,227.874a91.139,91.139,0,0,1-5.36816-19.6997A94.79771,94.79771,0,0,1,.116,193.33344L.00042,234.09149a94.78809,94.78809,0,0,0,1.114,14.84082A91.13915,91.13915,0,0,0,6.48247,268.632a84.50911,84.50911,0,0,0,8.28138,15.91333h0c.70184,1.04834,7.52661,10.27734,7.52661,10.27734l.1156-40.7583Z" style="fill:url(#b)"/><path d="M438.84508,178.92279a732.7952,732.7952,0,0,1-108.96728,50.4668q-22.203,8.09619-44.47638,14.46679a617.2101,617.2101,0,0,1-67.82294,15.34717q-17.097,2.85462-34.05261,4.65454a533.76354,533.76354,0,0,1-61.46863,3.03711,457.64075,457.64075,0,0,1-48.64673-3.011c-11.07342-1.30127-21.48163-2.98194-30.93786-4.98731-2.48389-.531-4.88678-1.07983-7.12934-1.63281l-12.93725-3.19971-.1156,40.7583,12.93731,3.19971c2.24256.55273,4.64545,1.10156,7.12934,1.63257,9.45624,2.00561,19.86444,3.68628,30.93786,4.9873a457.63809,457.63809,0,0,0,48.64673,3.011,533.76419,533.76419,0,0,0,61.46863-3.03711q16.93763-1.79627,34.05261-4.6543a617.21462,617.21462,0,0,0,67.82294-15.34741q22.25619-6.36365,44.47632-14.46655a732.82267,732.82267,0,0,0,108.96734-50.467l23.05329-13.01221.11554-40.75806Z" style="fill:url(#c)"/></g></svg>