<svg xmlns="http://www.w3.org/2000/svg" xmlns:xlink="http://www.w3.org/1999/xlink" width="322.22653" height="446.71745" viewBox="0 0 322.22653 446.71745"><defs><linearGradient id="a" x1="0.00413" y1="222.96758" x2="322.22653" y2="222.96758" gradientUnits="userSpaceOnUse"><stop offset="0" stop-color="#8a4700"/><stop offset="1" stop-color="#be6300"/></linearGradient><linearGradient id="b" x1="142.98462" y1="26.84913" x2="322.224" y2="26.84913" xlink:href="#a"/><linearGradient id="c" x1="57.53601" y1="434.10828" x2="57.53601" y2="165.71338" gradientUnits="userSpaceOnUse"><stop offset="0" stop-color="#ca6900"/><stop offset="1" stop-color="#974f00"/></linearGradient><linearGradient id="d" y1="108.75861" x2="178.22437" y2="108.75861" gradientUnits="userSpaceOnUse"><stop offset="0" stop-color="#d56f00"/><stop offset="1" stop-color="#fc8300"/></linearGradient></defs><path d="M264.21274,10.615,286.98752.00115c16.92663,9.83679,35.239,20.47876,35.239,20.47876-2.88721,179.92383-48.38214,323.566-143.75464,424.736-20.2912,1.7909-38.32809.7434-59.72514-9.0841,0,0-29.61789-16.85474-40.44406-23.42017-22.38318-13.55347-40.30943-36.485-53.29857-68.1377C9.20776,306.03142.88257,254.57842.25615,191.64764L.00413,165.72,22.54036,150.1148A497.25533,497.25533,0,0,0,80.3609,103.4461a454.41155,454.41155,0,0,0,49.89124-55.37671l12.73669-16.74414,13.11942,1.19189a183.19023,183.19023,0,0,0,56.24005-3.848A250.144,250.144,0,0,0,264.21274,10.615Z" style="fill:url(#a)"/><g style="isolation:isolate"><path d="M240.31971,80.64159a276.16863,276.16863,0,0,0,56.81571-19.76614c-.58508,59.88976-8.16339,111.72164-19.19734,155.81878a547.38985,547.38985,0,0,1-30.5583,89.423c-16.808,37.85571-34.71852,65.642-48.3333,83.92228-6.81039,9.135-12.54643,15.886-16.51179,20.29887-1.54916,1.7171-2.83054,3.08148-3.79985,4.0896a67.80421,67.80421,0,0,1-17.332-.44271,80.387,80.387,0,0,1-30.09456-10.9457c-16.56006-10.03014-34.25569-28.28914-47.86919-61.49978-13.1366-32.0167-22.463-77.98334-23.117-143.98408A538.03281,538.03281,0,0,0,123.17618,146.79a506.20121,506.20121,0,0,0,55.74976-61.92633A198.88351,198.88351,0,0,0,240.31971,80.64159ZM114.74532,283.68033l60.42358-73.62686-60.6429-3.736a9.38137,9.38137,0,0,0-4.9029.78773,14.30324,14.30324,0,0,0-6.34459,11.06311,4.49044,4.49044,0,0,0,1.02655,3.346q1.01023.97062,4.077,1.17353l40.71155,2.42015-40.56481,49.3382a32.03844,32.03844,0,0,0-4.057,5.86213,10.39469,10.39469,0,0,0-1.00423,4.52608c.00587,2.06915.64315,3.45734,1.91786,4.17622q1.90221,1.084,4.46881-.39747,1.59033-.91818,4.89114-4.9329m137.71331-35.80046a11.84927,11.84927,0,0,0,1.88167-6.2667q-.00916-3.23559-1.94346-4.125-1.93039-.8913-6.40288,1.69089l-68.91582,39.78857a17.77623,17.77623,0,0,0-6.44951,5.72944,11.91869,11.91869,0,0,0-1.91315,6.3516q.00916,3.23557,1.94277,4.0958,1.9303.85833,6.46076-1.76076l68.91582-39.78857a17.58321,17.58321,0,0,0,6.4238-5.71529"/><path d="M299.44228,31.09714,322.224,20.47923l-.2577,26.47184c-.56541,57.62159-7.45531,113.25185-20.49469,165.35687a603.87587,603.87587,0,0,1-33.6156,98.22678c-15.6823,35.31052-34.18831,67.38618-55.02739,95.37118-6.67044,8.94432-13.33,17.12465-19.79493,24.30336-1.69569,1.88313-3.37253,3.68866-4.97266,5.35431l-9.24564,9.61562-9.26383,1.06386a82.37128,82.37128,0,0,1-21.31579-.47946,92.55241,92.55241,0,0,1-34.70353-12.569c-22.37715-13.56491-40.30338-36.48843-53.29167-68.1496-15.7972-38.535-24.12845-89.98456-24.748-152.92627l-.25288-25.92614,22.531-15.5952a498.22749,498.22749,0,0,0,57.82661-46.6722,454.83582,454.83582,0,0,0,49.89121-55.38465l12.73583-16.73678,13.11942,1.19189a183.28234,183.28234,0,0,0,56.24092-3.84852A249.99632,249.99632,0,0,0,299.44228,31.09714ZM277.93738,216.6949c11.03436-44.09781,18.61268-95.92952,19.19765-155.81973a276.16954,276.16954,0,0,1-56.81537,19.76631,198.90524,198.90524,0,0,1-61.39407,4.22285A506.1876,506.1876,0,0,1,123.176,146.78977a537.96085,537.96085,0,0,1-62.854,50.76564c.65331,66.002,9.98028,111.96772,23.11689,143.98437,13.61314,33.21122,31.30951,51.469,47.869,61.49933a80.41116,80.41116,0,0,0,30.09411,10.94663,67.85076,67.85076,0,0,0,17.33217.44243c.96941-1.00776,2.25063-2.3718,3.80034-4.09,3.96494-4.413,9.7014-11.16423,16.51168-20.29883,13.61447-18.2806,31.52519-46.06651,48.33285-83.92162a547.3399,547.3399,0,0,0,30.55825-89.42283" style="fill:#984f00"/><path d="M252.39727,237.48852q-1.93056-.89137-6.403,1.6907l-68.916,39.78865a17.77475,17.77475,0,0,0-6.44924,5.72958,11.91645,11.91645,0,0,0-1.91336,6.35152q.00917,3.23535,1.943,4.09564,1.93038.85833,6.46043-1.76061l68.916-39.78865a17.58737,17.58737,0,0,0,6.42363-5.71481,11.85011,11.85011,0,0,0,1.88152-6.26708Q254.3311,238.37813,252.39727,237.48852Z" style="fill:#9a9a9a"/><path d="M109.62357,207.10526a9.38908,9.38908,0,0,1,4.90287-.78784l60.6426,3.73648-60.42327,73.62652q-3.298,4.02052-4.89112,4.93291-2.56662,1.48183-4.469.39769c-1.27468-.719-1.91172-2.10753-1.91759-4.17648a10.38757,10.38757,0,0,1,1.00393-4.52566,32.0334,32.0334,0,0,1,4.05709-5.8623l40.565-49.33831-40.71175-2.42042q-3.07023-.20057-4.077-1.17344a4.4893,4.4893,0,0,1-1.02625-3.34626,14.30145,14.30145,0,0,1,6.34449-11.06289Z" style="fill:#9a9a9a"/><path d="M191.34383,52.99564,156.104,32.51651A183.28234,183.28234,0,0,0,212.345,28.668a249.99574,249.99574,0,0,0,51.85753-18.05l35.23979,20.47913a249.99632,249.99632,0,0,1-51.85753,18.05A183.28234,183.28234,0,0,1,191.34383,52.99564Z" style="fill:none"/><path d="M286.98413,0,264.20251,10.61792A258.05754,258.05754,0,0,1,220.145,26.7865q-3.90838,1.01934-7.8,1.88147a183.28086,183.28086,0,0,1-56.241,3.84851l-13.11938-1.1919,35.23975,20.47913,13.11938,1.1919a183.28491,183.28491,0,0,0,56.241-3.84852q3.89355-.8626,7.8-1.88147a258.06335,258.06335,0,0,0,44.05749-16.16845L322.224,20.47925Z" style="fill:url(#b)"/><path d="M115.072,434.10829,79.83215,413.62917q-.77262-.449-1.53971-.91371C55.9153,399.15055,37.98906,376.227,25.00077,344.56586,9.20357,306.03086.87232,254.58131.25281,191.63959L35.4926,212.11872c.61951,62.94171,8.95076,114.39126,24.748,152.92627,12.98829,31.66117,30.91452,54.58469,53.29167,68.1496Q114.29929,433.65926,115.072,434.10829Z" style="fill:none"/><path d="M57.77076,170.59738,22.531,150.11825a498.22749,498.22749,0,0,0,57.82661-46.6722A454.83425,454.83425,0,0,0,130.24879,48.0614l35.23979,20.47913a454.83582,454.83582,0,0,1-49.89121,55.38465A498.22749,498.22749,0,0,1,57.77076,170.59738Z" style="fill:none"/><path d="M113.53223,433.19458c-22.3772-13.56494-40.30335-36.4884-53.29175-68.14966q-1.59466-3.89025-3.08789-7.95556C47.7699,331.54639,41.39819,300.84521,38.1,265.349q-2.32672-25.04278-2.6073-53.23035l-.25293-25.926L0,165.71338l.25281,25.92627Q.53,219.808,2.86011,244.86987c3.29822,35.49634,9.66992,66.19751,19.05261,91.74048q1.49322,4.06494,3.088,7.95557c12.98828,31.66113,30.91455,54.58459,53.29175,68.14953q.767.46455,1.53967.9137L115.072,434.10828Q114.29931,433.65912,113.53223,433.19458Z" style="fill:url(#c)"/><path d="M142.98462,31.32458,130.24878,48.0614Q120.22449,61.23749,109.1156,73.78223,95.45648,89.20739,80.35767,103.446q-14.62042,13.775-30.85181,26.6626Q36.45886,140.468,22.531,150.11816L0,165.71338l35.23975,20.47925,22.531-15.59522q13.90394-9.63135,26.97486-20.00952,16.186-12.85144,30.8518-26.66272,15.0597-14.19507,28.75806-29.6637Q155.44323,81.74,165.48853,68.54053l12.73584-16.73682Z" style="fill:url(#d)"/></g></svg>