<svg xmlns="http://www.w3.org/2000/svg" xmlns:xlink="http://www.w3.org/1999/xlink" width="322.22553" height="446.71791" viewBox="0 0 322.22553 446.71791"><defs><linearGradient id="a" x1="0.00314" y1="222.96643" x2="322.22553" y2="222.96643" gradientUnits="userSpaceOnUse"><stop offset="0" stop-color="#006e00"/><stop offset="1" stop-color="#009800"/></linearGradient><linearGradient id="b" x1="142.98474" y1="26.84904" x2="322.224" y2="26.84904" xlink:href="#a"/><linearGradient id="c" y1="299.91662" x2="115.10388" y2="299.91662" gradientUnits="userSpaceOnUse"><stop offset="0" stop-color="#00a600"/><stop offset="1" stop-color="#007900"/></linearGradient><linearGradient id="d" y1="108.75818" x2="178.22449" y2="108.75818" gradientUnits="userSpaceOnUse"><stop offset="0" stop-color="#0a0"/><stop offset="1" stop-color="#00c900"/></linearGradient></defs><path d="M264.21174,10.61389,286.98652,0c16.92663,9.83679,35.239,20.47876,35.239,20.47876-2.8872,179.92383-48.38214,323.566-143.75464,424.736-20.2912,1.7909-38.32809.7434-59.72514-9.0841,0,0-29.61789-16.85474-40.44406-23.42017-22.38318-13.55347-40.30943-36.485-53.29857-68.1377C9.20676,306.03027.88157,254.57727.25515,191.64648l-.252-25.92761,22.53622-15.60522A497.25449,497.25449,0,0,0,80.3599,103.445a454.41073,454.41073,0,0,0,49.89124-55.37671L142.98783,31.3241,156.10725,32.516a183.19023,183.19023,0,0,0,56.24005-3.848A250.14463,250.14463,0,0,0,264.21174,10.61389Z" style="fill:url(#a)"/><g style="isolation:isolate"><path d="M109.63025,207.10145a9.41229,9.41229,0,0,1,4.90278-.78779l60.63629,3.74013-60.417,73.62287q-3.30766,4.02592-4.891,4.94012c-1.71749.9916-3.20714,1.11688-4.4755.39408-1.26826-.72275-1.90531-2.11123-1.91117-4.18009a10.31154,10.31154,0,0,1,.99762-4.51473,31.984,31.984,0,0,1,4.05707-5.86967l40.57134-49.34186-40.71808-2.41687c-2.04041-.13731-3.40366-.52595-4.077-1.166a4.53044,4.53044,0,0,1-1.01994-3.35727,14.26982,14.26982,0,0,1,6.34457-11.06294Z" style="fill:#9a9a9a"/><path d="M240.32021,80.64151a276.30535,276.30535,0,0,0,56.82168-19.76959c-.58448,59.88942-8.16936,111.72441-19.20388,155.83013a546.9952,546.9952,0,0,1-30.55833,89.41545c-16.80742,37.85536-34.71792,65.64095-48.3327,83.92193-6.8104,9.135-12.54046,15.88189-16.51238,20.29921-1.54917,1.7171-2.83055,3.08149-3.79985,4.08961a67.85369,67.85369,0,0,1-17.332-.44271,80.34925,80.34925,0,0,1-30.094-10.93918c-16.56007-10.0377-34.24973-28.29946-47.86918-61.49979-13.13064-32.027-22.4636-77.98986-23.11764-143.9906a538.05462,538.05462,0,0,0,62.85475-50.766,505.17576,505.17576,0,0,0,55.74976-61.92633A198.96763,198.96763,0,0,0,240.32021,80.64151ZM114.7518,283.6768l60.417-73.62306L114.53248,206.314a9.40686,9.40686,0,0,0-4.90231.78738,14.26816,14.26816,0,0,0-6.34459,11.06242,4.5276,4.5276,0,0,0,1.02,3.35739c.67288.64057,2.03645,1.02887,4.07695,1.166l40.71813,2.417-40.57139,49.342a31.94173,31.94173,0,0,0-4.057,5.86969,10.3063,10.3063,0,0,0-.99768,4.51473c.00587,2.06847.64255,3.45768,1.91069,4.18036,1.26874.72233,2.75836.59694,4.476-.39474q1.58944-.91767,4.89053-4.93942m137.70673-35.79667a11.842,11.842,0,0,0,1.88169-6.25983q-.00919-3.24588-1.94288-4.13219-1.9304-.89132-6.40288,1.69089l-68.90985,39.78512a17.82677,17.82677,0,0,0-6.45548,5.73289,11.92166,11.92166,0,0,0-1.91313,6.35846q.00914,3.22528,1.94275,4.08894,1.94016.85265,6.46673-1.76421l68.90985-39.78512a17.58643,17.58643,0,0,0,6.4232-5.71495"/><path d="M299.44924,31.09328,322.224,20.47936l-.25771,26.47085C321.407,104.5693,314.511,160.20305,301.4725,212.30658a602.99336,602.99336,0,0,1-33.6156,98.22777c-15.6771,35.30752-34.18914,67.39463-55.02824,95.37168-6.67045,8.94333-13.33006,17.12465-19.788,24.29937-1.70175,1.88662-3.3786,3.69216-4.97958,5.3583l-9.23873,9.61163-9.26988,1.06735a82.64308,82.64308,0,0,1-21.31664-.472,92.628,92.628,0,0,1-34.69749-12.57946C91.156,419.62931,73.22889,396.7053,60.24062,365.05208c-15.79635-38.54246-24.12155-89.99551-24.748-152.92627l-.2529-25.93409,22.53105-15.59421a497.188,497.188,0,0,0,57.8266-46.6722,454.22654,454.22654,0,0,0,49.89123-55.37769l12.73582-16.74374,13.12028,1.19139a183.14221,183.14221,0,0,0,56.24005-3.848A250.036,250.036,0,0,0,299.44924,31.09328ZM277.93831,216.70149c11.03434-44.10477,18.61871-95.94,19.20368-155.83018a276.24335,276.24335,0,0,1-56.82229,19.7703,199.01275,199.01275,0,0,1-61.39407,4.22186,505.06825,505.06825,0,0,1-55.74958,61.92643,537.91991,537.91991,0,0,1-62.854,50.76564c.65418,66.00049,9.9872,111.96373,23.11692,143.99133,13.62,33.19928,31.30948,51.46208,47.869,61.49933a80.33224,80.33224,0,0,0,30.095,10.93818,67.84129,67.84129,0,0,0,17.33217.44343c.96854-1.00727,2.25063-2.3728,3.79948-4.0895,3.97185-4.417,9.70139-11.16423,16.51254-20.29932,13.61447-18.28061,31.52519-46.06652,48.33284-83.92262a547.03531,547.03531,0,0,0,30.55828-89.41488" style="fill:#007a00"/><path d="M252.3976,237.4884q-1.93073-.89156-6.40309,1.69059L177.085,278.96406a17.82456,17.82456,0,0,0-6.4557,5.73327,11.92238,11.92238,0,0,0-1.91324,6.35879c.00611,2.14964.65586,3.51593,1.94289,4.08826q1.94007.853,6.46689-1.76419l68.90955-39.785a17.58781,17.58781,0,0,0,6.42374-5.71481,11.84621,11.84621,0,0,0,1.88152-6.25981C254.3345,239.45645,253.68475,238.08266,252.3976,237.4884Z" style="fill:#9a9a9a"/><path d="M191.34474,52.99527,156.105,32.51614a183.14221,183.14221,0,0,0,56.24005-3.848,250.03582,250.03582,0,0,0,51.86445-18.054l35.23979,20.47913a250.036,250.036,0,0,1-51.86445,18.054A183.14221,183.14221,0,0,1,191.34474,52.99527Z" style="fill:none"/><path d="M286.98425.00024,264.20947,10.61413a258.12257,258.12257,0,0,1-44.06775,16.17322q-3.90673,1.01916-7.79663,1.88074a183.13918,183.13918,0,0,1-56.24011,3.848L142.98474,31.3247,178.22449,51.804l13.12024,1.19129a183.14666,183.14666,0,0,0,56.24011-3.848q3.89172-.86225,7.79663-1.88061a258.13481,258.13481,0,0,0,44.06775-16.17334L322.224,20.47937Z" style="fill:url(#b)"/><path d="M115.10382,434.12058,79.864,413.64146q-.78562-.45659-1.56547-.92936C55.9162,399.15018,37.9891,376.22617,25.00083,344.573,9.20448,306.03049.87928,254.57744.25287,191.64668l35.23979,20.47913c.62641,62.93076,8.95161,114.38381,24.748,152.92627,12.98827,31.65322,30.91537,54.57723,53.29771,68.13914Q114.31815,433.664,115.10382,434.12058Z" style="fill:none"/><path d="M57.77081,170.59751,22.531,150.11838a497.18721,497.18721,0,0,0,57.8266-46.6722,454.22654,454.22654,0,0,0,49.89123-55.37769l35.23979,20.47913a454.22654,454.22654,0,0,1-49.89123,55.37769A497.188,497.188,0,0,1,57.77081,170.59751Z" style="fill:none"/><path d="M113.53833,433.19116C91.156,419.62927,73.22888,396.70532,60.2406,365.052q-1.59082-3.88148-3.08057-7.93726c-9.38659-25.55371-15.75854-56.26757-19.05786-91.77539q-2.32617-25.03692-2.60949-53.21362l-.25293-25.93408L0,165.71264l.25287,25.93409q.28025,28.15758,2.60962,53.21337c3.29919,35.50782,9.6712,66.22168,19.0578,91.77564q1.48974,4.05542,3.08056,7.93726c12.98829,31.65307,30.91529,54.57714,53.29761,68.13916q.78.47277,1.56555.92919l35.23987,20.47925Q114.31818,433.66394,113.53833,433.19116Z" style="fill:url(#c)"/><path d="M142.98474,31.3247,130.2489,48.06848q-10.00854,13.15887-21.10339,25.68713-13.66938,15.43689-28.788,29.69055Q65.73566,117.22466,49.496,130.1206,36.4552,140.47484,22.531,150.11841L0,165.71264l35.23975,20.479,22.53112-15.59424q13.90063-9.62366,26.96485-19.99756,16.19421-12.858,30.86169-26.67456,15.07911-14.21118,28.788-29.69067,11.07384-12.50556,21.10327-25.687L178.22449,51.804Z" style="fill:url(#d)"/></g></svg>