<svg xmlns="http://www.w3.org/2000/svg" xmlns:xlink="http://www.w3.org/1999/xlink" width="459.75772" height="308.83568" viewBox="0 0 459.75772 308.83568"><defs><linearGradient id="a" x1="0.11564" y1="149.44922" x2="459.75754" y2="149.44922" gradientUnits="userSpaceOnUse"><stop offset="0" stop-color="#9a5000"/><stop offset="1" stop-color="#a75700"/></linearGradient><linearGradient id="b" x1="435.83032" y1="245.55079" x2="459.75732" y2="245.55079" gradientUnits="userSpaceOnUse"><stop offset="0" stop-color="#894700"/><stop offset="1" stop-color="#8b4800"/></linearGradient><linearGradient id="c" x1="0" y1="235.7262" x2="435.9458" y2="235.7262" xlink:href="#a"/></defs><path d="M265.26758,12.20034,290.4656.59514l22.111,13.63313c48.12958,29.67586,85.05032,60.05062,109.74255,90.27916,16.23772,19.87155,27.33444,39.86848,32.97617,59.43442,6.453,22.33658,5.90281,43.78652-1.6233,63.76866a89.74318,89.74318,0,0,1-9.0854,17.81245c-.94729,1.424-1.93221,2.80325-2.92756,4.08692l-4.69832,6.1071-.33588,41.04341-.77994,1.03376-2.18.50915-.37549-40.64252-10.35729,2.43608a298.53541,298.53541,0,0,1-32.43493,5.52632,453.92,453.92,0,0,1-62.81669,2.952c-45.15606-.88843-91.57918-7.78491-137.99649-20.487C133.19937,232.61942,76.96141,208.50869,22.53,176.42859L.11564,163.21133l20.59753-14.09814C39.692,136.1252,55.585,122.80949,67.9309,109.54827,80.69579,95.83394,90.07242,81.7447,95.82053,67.66013l4.90583-12.02847,20.7306-2.938a582.10487,582.10487,0,0,0,81.22325-17.203A449.58073,449.58073,0,0,0,265.26758,12.20034Z" style="fill:url(#a)"/><g style="isolation:isolate"><path d="M361.80329,132.70348a17.75914,17.75914,0,0,1,8.1837-2.60006,11.83714,11.83714,0,0,1,6.42519,1.58758q2.70714,1.62159,2.49914,3.72075-.20791,2.0991-4.79442,4.66762l-69.72243,39.04421a18.12276,18.12276,0,0,1-8.217,2.655,11.68642,11.68642,0,0,1-6.4-1.57252q-2.76349-1.65534-2.52334-3.7726.24669-2.12082,4.82676-4.68573Z" style="fill:#f6f6f6"/><path d="M129.65608,153.18906q1.60855-.90078,6.69689-1.7312l94.27719-14.50528L202.43268,191.0398a9.20266,9.20266,0,0,1-3.15638,3.852,14.24872,14.24872,0,0,1-12.80726-.207,4.46711,4.46711,0,0,1-2.34441-2.58727c-.199-.90533.17432-2.27642,1.11328-4.10234L204.25414,151.723l-63.22592,9.79037a32.045,32.045,0,0,1-7.12288.50258,10.22306,10.22306,0,0,1-4.37947-1.44036q-2.585-1.54842-2.53051-3.73942Q127.05257,154.64682,129.65608,153.18906Z" style="fill:#f6f6f6"/><path d="M265.2674,11.60569,290.4663,0l22.11015,13.63362C360.706,43.30948,397.62764,73.68376,422.319,103.91278c16.23772,19.87156,27.33532,39.868,32.97618,59.43442,6.45389,22.33609,5.9028,43.78653-1.6233,63.76867a89.09234,89.09234,0,0,1-9.08607,17.80494c-.94662,1.43155-1.93155,2.81075-2.92008,4.09749l-5.71983,7.423-13.0139,3.06092a298.5345,298.5345,0,0,1-32.43493,5.52632,453.91986,453.91986,0,0,1-62.81668,2.95206c-45.15606-.88844-91.57918-7.78492-137.99735-20.48752-56.48384-15.4683-112.7218-39.579-167.15322-71.66013L.11546,162.61669,20.70687,148.522C39.698,135.52712,55.5848,122.21484,67.93072,108.95362c12.7649-13.71432,22.14767-27.808,27.88963-41.88814l4.905-12.029,20.73144-2.93744a582.86564,582.86564,0,0,0,81.23008-17.19994A450.04535,450.04535,0,0,0,265.2674,11.60569ZM390.68773,112.53287c-20.8986-25.58319-53.55839-54.198-103.57882-85.044A494.82871,494.82871,0,0,1,218.5312,53.00009a630.27074,630.27074,0,0,1-88.6485,18.79059c-6.56506,16.096-17.057,31.70339-31.13192,46.8264-13.77389,14.795-30.97251,29.12535-51.29247,43.03164,57.07617,33.642,110.16263,54.66681,157.1047,67.51889,48.6847,13.32778,90.78416,17.89613,124.19008,18.55153a393.01979,393.01979,0,0,0,54.51843-2.53973,246.09145,246.09145,0,0,0,26.41812-4.46569c.59324-.78294,1.36491-1.82522,2.22622-3.12831a74.6267,74.6267,0,0,0,7.56435-14.86842c4.91894-13.05339,8.2085-32.14419,1.294-56.08923-4.602-15.97161-13.76288-34.112-30.08651-54.09489" style="fill:#f37e00"/><path d="M218.53168,53.00065a494.83542,494.83542,0,0,0,68.578-25.51208c50.02075,30.84634,82.67931,59.461,103.5782,85.04458,16.32417,19.98248,25.48447,38.12323,30.0872,54.09465,6.91366,23.945,3.62467,43.03587-1.29443,56.08953a74.66463,74.66463,0,0,1-7.56384,14.86783c-.86179,1.30317-1.63332,2.34573-2.227,3.12826a245.94108,245.94108,0,0,1-26.41732,4.466,393.14108,393.14108,0,0,1-54.51917,2.53983c-33.40571-.65567-75.50458-5.22412-124.19069-18.55173-46.94216-12.85206-100.027-33.8767-157.10376-67.51919,20.31923-13.90634,37.518-28.23668,51.29183-43.03122,14.07615-15.12294,24.56755-30.73075,31.13229-46.82641A630.35992,630.35992,0,0,0,218.53168,53.00065ZM202.432,191.03968l28.19791-54.08712-94.27745,14.50527q-5.09106.8359-6.697,1.73116-2.60685,1.45983-2.66069,3.64713-.05748,2.189,2.53051,3.73956a10.228,10.228,0,0,0,4.37949,1.44031,32.04988,32.04988,0,0,0,7.123-.50256l63.226-9.7903L185.23715,187.995c-.93867,1.8262-1.31189,3.19706-1.11342,4.10228a4.46973,4.46973,0,0,0,2.34449,2.58738,14.24933,14.24933,0,0,0,12.80737.207,9.19907,9.19907,0,0,0,3.15642-3.852m176.479-55.62791q.20706-2.0994-2.49943-3.72094a11.83292,11.83292,0,0,0-6.4252-1.5871,17.75293,17.75293,0,0,0-8.18373,2.59974L292.08,171.74782q-4.58329,2.56664-4.82631,4.68583-.237,2.11512,2.52311,3.77226a11.68677,11.68677,0,0,0,6.4,1.57269,18.1244,18.1244,0,0,0,8.21676-2.65494L374.1162,140.0793q4.5833-2.56663,4.79485-4.66753"/><path d="M453.67188,227.11574a89.08939,89.08939,0,0,1-9.08606,17.80517c-.94666,1.4314-1.93152,2.81055-2.92005,4.09741l-5.72,7.4231-.11548,40.75806,5.71985-7.4231c.98853-1.28662,1.97351-2.666,2.92-4.09741A89.09373,89.09373,0,0,0,453.5564,267.874a94.36522,94.36522,0,0,0,6.08545-33.21387l.11547-40.75806A94.36412,94.36412,0,0,1,453.67188,227.11574Z" style="fill:url(#b)"/><g style="isolation:isolate"><path d="M422.932,259.50221a298.52554,298.52554,0,0,1-32.43494,5.52637q-10.56336,1.27038-21.59094,2.01367c-13.34314.89941-27.13867,1.21484-41.22571.93823q-14.69165-.28895-29.54883-1.42383a578.2429,578.2429,0,0,1-108.44848-19.06347C133.19922,232.02467,76.96118,207.91408,22.52979,175.833L.11548,162.61671,0,203.37477l22.41431,13.21631c54.43139,32.08105,110.66931,56.19165,167.15319,71.66015A578.22294,578.22294,0,0,0,298.016,307.31471q14.85077,1.13379,29.54883,1.42407c14.087.27637,27.88257-.03906,41.22571-.93847q11.01434-.74232,21.59106-2.01368a298.5226,298.5226,0,0,0,32.43482-5.52636l13.01391-3.06079.11548-40.75806Z" style="fill:url(#c)"/></g></g></svg>