<svg xmlns="http://www.w3.org/2000/svg" xmlns:xlink="http://www.w3.org/1999/xlink" viewBox="0 0 512 512"><defs><style>.cls-1{fill:none;}.cls-2{fill:#fff;}.cls-3{isolation:isolate;}.cls-4{fill:#fc8300;}.cls-5{clip-path:url(#clip-path);}</style><clipPath id="clip-path"><path class="cls-1" d="M256,30C131.17,30,30,131.17,30,256S131.17,482,256,482,482,380.83,482,256,380.83,30,256,30Z"/></clipPath><symbol id="Smiley" data-name="Smiley" viewBox="0 0 482 482"><rect width="482" height="482"/><path class="cls-2" d="M239.78,395.49a128.35,128.35,0,0,1-30.4-3.8q-16-3.75-37.2-14.4c-14.1-7.1-22.6-12.2-25.4-15.5a4.55,4.55,0,0,1-1.5-3.2,4.92,4.92,0,0,1,1.6-3.8,5.23,5.23,0,0,1,3.7-1.6,5.7,5.7,0,0,1,2.8.9q25.2,13.8,45.6,19.6a145.76,145.76,0,0,0,82.1,0c13.7-3.9,28.9-10.5,45.8-19.6a5.41,5.41,0,0,1,2.8-.9,4.65,4.65,0,0,1,3.6,1.6,5.2,5.2,0,0,1,1.5,3.8,4.66,4.66,0,0,1-1.4,3.2c-2.8,3.1-11.1,8.1-24.9,15.1s-25.9,11.8-36.5,14.5A131,131,0,0,1,239.78,395.49Z"/><g class="cls-3"><path class="cls-2" d="M206.91,172.93l-85.12,47.44a7.46,7.46,0,0,1-3.1,1.12,4,4,0,0,1-3.93-3.93q0-2.34,3.18-4.13l72.94-40.5L118,132.43c-2.13-1.18-3.19-2.56-3.19-4.12a4,4,0,0,1,3.94-3.94,7.43,7.43,0,0,1,3.09,1.12Z"/></g><g class="cls-3"><path class="cls-2" d="M376.85,234.18H272.13a6,6,0,0,1-4-1.08,4,4,0,0,1,0-5.72,6.1,6.1,0,0,1,4-1.07H376.85c1.94,0,3.3.36,4.08,1.07a4.08,4.08,0,0,1,0,5.72Q379.76,234.18,376.85,234.18Z"/></g></symbol></defs><g id="Layer_2" data-name="Layer 2"><g id="Smiley_Orange" data-name="Smiley Orange"><path class="cls-4" d="M256,0C114.6,0,0,114.6,0,256S114.6,512,256,512,512,397.4,512,256,397.4,0,256,0Z"/><g class="cls-5"><use width="482" height="482" transform="translate(15 15)" xlink:href="#Smiley"/></g></g></g></svg>