<svg xmlns="http://www.w3.org/2000/svg" xmlns:xlink="http://www.w3.org/1999/xlink" width="322.22377" height="445.68881" viewBox="0 0 322.22377 445.68881"><defs><linearGradient id="a" x1="0.09261" y1="222.229" x2="322.22377" y2="222.229" gradientUnits="userSpaceOnUse"><stop offset="0" stop-color="#0400a1"/><stop offset="1" stop-color="#0400a4"/></linearGradient><linearGradient id="b" x1="0.00001" y1="27.34507" x2="178.524" y2="27.34507" gradientUnits="userSpaceOnUse"><stop offset="0" stop-color="#b70000"/><stop offset="0" stop-color="#0400a2"/><stop offset="1" stop-color="#030091"/></linearGradient><linearGradient id="c" x1="143.28419" y1="108.51102" x2="322.22334" y2="108.51102" xlink:href="#a"/><linearGradient id="d" x1="264.12892" y1="165.66114" x2="264.12892" y2="432.9773" gradientUnits="userSpaceOnUse"><stop offset="0" stop-color="#030086"/><stop offset="1" stop-color="#030085"/></linearGradient></defs><path d="M299.4633,149.99225l22.76047,15.66894-.40588,26.09461c-2.25258,134.14524-67.84264,259.9589-179.96344,252.376C30.40631,332.61325-2.12413,150.59669.208,20.47913L35.2402,0,57.792,10.42639C78.574,20.03613,98.05376,26.816,115.6929,30.57648c18.228,3.88147,35.06456,4.65844,50.0356,2.30914l12.7959-2.004L191.58812,47.1983a578.61013,578.61013,0,0,0,56.07806,60.992A445.17967,445.17967,0,0,0,299.4633,149.99225Z" style="fill:url(#a)"/><g style="isolation:isolate"><path d="M241.27431,412.49828l-35.23979,20.47913a108.68855,108.68855,0,0,0,25.12369-20.39476c13.86219-14.997,25.3215-34.90214,34.05574-59.16468,13.29083-36.8953,20.47918-84.39747,21.36287-141.18342l35.23979-20.47913c-.88369,56.786-8.072,104.28813-21.36287,141.18343-8.73424,24.26254-20.19355,44.1677-34.05574,59.16467A108.68855,108.68855,0,0,1,241.27431,412.49828Z" style="fill:none"/><path d="M264.22309,170.47143l22.76046,15.66892-.40673,26.0942c-.88369,56.786-8.072,104.28812-21.36287,141.18342-8.73424,24.26254-20.19355,44.16771-34.05574,59.16468-15.83179,17.11585-34.46494,27.74921-55.39431,31.61221a87.659,87.659,0,0,1-19.86089,1.40806c-1.70775-.07488-3.38845-.21479-4.99364-.39973l-9.26294-1.07131-9.23959-9.61113a297.62425,297.62425,0,0,1-21.25033-25.055A453.77707,453.77707,0,0,1,76.6436,356.93459c-22.22636-39.31675-39.97114-82.8429-52.73172-129.36323C8.37926,170.94907.37253,110.06678.11134,46.61659L0,20.47918l22.5509,10.4259c20.78285,9.61123,40.26178,16.38957,57.90181,20.14364,18.228,3.88843,35.06455,4.66637,50.03559,2.31608l12.7959-2.004,13.06374,16.30973a577.86922,577.86922,0,0,0,56.078,60.99886A445.12725,445.12725,0,0,0,264.22309,170.47143ZM241.73785,330.67149c11.24793-31.23313,19.09488-74.15907,20.017-133.18613a490.85579,490.85579,0,0,1-56.74849-45.79983,626.81824,626.81824,0,0,1-61.21042-66.5569c-17.121,2.68125-35.81753,1.73357-55.92485-2.54883C68.20542,78.39108,47.18661,71.01047,24.93516,60.72061c.27843,66.53893,9.31992,123.10274,22.22628,170.16327C60.549,279.676,78.07729,318.27178,94.5259,347.3663a393.67967,393.67967,0,0,0,29.94071,45.60776,244.268,244.268,0,0,0,17.267,20.4103c.978.11657,2.26276.234,3.81021.30395a73.67828,73.67828,0,0,0,16.57954-1.19261c13.66738-2.52245,31.67687-9.57678,48.64992-27.92262,11.3154-12.24248,22.17884-29.50748,30.96458-53.90159" style="fill:#0600f5"/><path d="M205.00662,151.68508a490.74815,490.74815,0,0,0,56.74849,45.80019c-.92221,59.0271-8.76916,101.95321-20.01726,133.18579-8.78574,24.395-19.64885,41.6606-30.96464,53.90272-16.97333,18.34515-34.98261,25.4-48.64978,27.92219a73.71577,73.71577,0,0,1-16.5793,1.193c-1.54784-.07027-2.83276-.18754-3.81058-.30428a244.21518,244.21518,0,0,1-17.26694-20.41087A393.66626,393.66626,0,0,1,94.52639,347.367c-16.44914-29.09558-33.977-67.69087-47.3646-116.483C34.25536,183.82379,25.21366,127.25989,24.93537,60.72087,47.18642,71.01,68.20536,78.3908,87.87147,82.58023c20.107,4.28234,38.8036,5.23,55.92469,2.54894A626.71,626.71,0,0,0,205.00662,151.68508ZM78.69987,209.30018l60.6363-3.73289-60.417-73.62238a23.78073,23.78073,0,0,0-4.89133-4.867c-1.71107-.98788-3.20724-1.12462-4.47538-.40126-1.26814.72267-1.90538,2.09644-1.91108,4.10653a10.39788,10.39788,0,0,0,.99766,4.52228,31.84356,31.84356,0,0,0,4.06359,5.86593l40.5648,49.34507-40.71155,2.42083c-2.04708.13332-3.40408.5261-4.08353,1.16218a4.564,4.564,0,0,0-1.02,3.35739,14.25314,14.25314,0,0,0,6.3444,11.129,8.99232,8.99232,0,0,0,4.90311.71425M216.15916,332.37827c1.26782-.6128,1.905-1.9639,1.911-4.077a11.873,11.873,0,0,0-1.91375-6.35194,17.598,17.598,0,0,0-6.385-5.69218L140.855,276.46823q-4.52987-2.61533-6.46683-1.72781-1.93041.89232-1.93629,4.12912a11.71909,11.71909,0,0,0,1.90669,6.31072,17.98267,17.98267,0,0,0,6.45556,5.70405l68.91642,39.78891q4.52987,2.61532,6.42859,1.705"/><path d="M68.472,194.10054a4.566,4.566,0,0,0-1.01983,3.357,14.25649,14.25649,0,0,0,6.34478,11.12968,8.9943,8.9943,0,0,0,4.90312.714l60.63616-3.733L78.919,131.9457a23.81692,23.81692,0,0,0-4.89092-4.86728q-2.5675-1.48168-4.476-.40122c-1.26774.72312-1.90542,2.09688-1.91076,4.10679a10.4,10.4,0,0,0,.99771,4.5225,31.83253,31.83253,0,0,0,4.06331,5.86575l40.56522,49.34554-40.71167,2.42029C70.50859,193.07156,69.15161,193.46439,68.472,194.10054Z" style="fill:#f5f5f5"/><path d="M22.5509,30.90508,57.79068,10.426c20.78286,9.61123,40.26179,16.38957,57.90182,20.14364,18.228,3.88843,35.06455,4.66637,50.03559,2.31608L130.4883,53.3648c-14.971,2.35029-31.80756,1.57235-50.03559-2.31608C62.81268,47.29465,43.33375,40.51631,22.5509,30.90508Z" style="fill:none"/><path d="M165.7281,32.88563a119.86507,119.86507,0,0,1-26.01453,1.06115,164.17157,164.17157,0,0,1-24.02105-3.37719c-17.64008-3.75409-37.119-10.53241-57.90186-20.14368L35.23982.00007,0,20.47919,22.55091,30.905c20.78284,9.61126,40.26178,16.38958,57.9018,20.14367a164.17157,164.17157,0,0,0,24.02106,3.3772,119.86477,119.86477,0,0,0,26.01452-1.06116l12.7959-2.004L178.524,30.88166Z" style="fill:url(#b)"/><path d="M299.4629,149.99232a445.1219,445.1219,0,0,1-51.79712-41.80213q-1.934-1.80578-3.86584-3.65258c-.41748-.39844-.83454-.80372-1.25189-1.20484q-1.31031-1.2594-2.61951-2.533c-.49225-.4801-.98419-.96509-1.47614-1.44885q-1.20044-1.18039-2.39972-2.37354-.77087-.768-1.54125-1.54241-1.18626-1.19166-2.371-2.39777-.7066-.719-1.4129-1.441-2.2338-2.28973-4.46228-4.62329c-.13013-.13654-.25977-.276-.38989-.41278q-2.05188-2.15772-4.09778-4.35834-.6166-.66239-1.23267-1.32874-1.91647-2.07165-3.82751-4.17694c-.22449-.24743-.44965-.49151-.674-.73968q-2.20606-2.44007-4.40345-4.92829c-.37536-.42449-.75-.8526-1.125-1.279q-1.76724-2.00985-3.52856-4.04846c-.35577-.4118-.7121-.82135-1.06751-1.23492q-2.17968-2.5362-4.3496-5.11438c-.27961-.33246-.55817-.66907-.83747-1.00257q-1.80908-2.15982-3.61065-4.34948-.59766-.7263-1.19471-1.45466-2.17455-2.658-4.33868-5.35321L178.524,30.88166,143.28419,51.36079l13.06372,16.30975q2.16257,2.70017,4.33869,5.35321.59682.72959,1.1947,1.45465,1.80157,2.1893,3.61065,4.34949c.27936.33349.55787.6701.83747,1.00256q2.16952,2.57941,4.34961,5.11438c.35541.41358.71173.82312,1.0675,1.23493q1.7613,2.03861,3.52857,4.04846c.375.42651.74957.85455,1.125,1.27905q2.19781,2.48538,4.40344,4.92828c.22436.24817.44946.49225.674.73969q1.91089,2.10636,3.82752,4.17694.61614.666,1.23266,1.32874,2.04621,2.198,4.09778,4.35839c.13013.13672.25977.27613.38989.41272q2.22785,2.33808,4.46228,4.62329c.16388.1681.32715.34119.49109.50892.307.31372.61475.61962.92182.93212q1.18486,1.20558,2.371,2.39771.77041.77416,1.54126,1.54248,1.19925,1.19459,2.39972,2.37354c.492.48364.98388.96875,1.47613,1.449q1.309,1.2766,2.61951,2.533c.41736.40112.83435.80615,1.25189,1.20483q1.93185,1.84387,3.86585,3.65259a445.13717,445.13717,0,0,0,51.79711,41.802l22.76044,15.66895,35.23981-20.47925Z" style="fill:url(#c)"/><path d="M286.98353,186.14039l-.40674,26.09411c-.88366,56.786-8.072,104.28821-21.36285,141.18348-8.73425,24.26245-20.19354,44.16772-34.05573,59.16467A108.68565,108.68565,0,0,1,206.0345,432.9773l35.2398-20.479A108.69045,108.69045,0,0,0,266.398,392.10352c13.86218-14.99707,25.32147-34.9021,34.05573-59.16467,13.29083-36.89539,20.47918-84.39746,21.36285-141.18347l.40674-26.09424Z" style="fill:url(#d)"/></g><path d="M209.7715,316.18164a17.6508,17.6508,0,0,1,6.39175,5.69634,11.9167,11.9167,0,0,1,1.91328,6.35146c-.006,2.11294-.64931,3.46839-1.91729,4.0737q-1.90191.90814-6.42861-1.70541l-68.916-39.78867a17.92761,17.92761,0,0,1-6.4493-5.70025,11.67723,11.67723,0,0,1-1.91343-6.31478c.00612-2.15691.64955-3.53433,1.943-4.125q1.93061-.89142,6.46057,1.724Z" style="fill:#e8e8e8"/></svg>