<svg xmlns="http://www.w3.org/2000/svg" xmlns:xlink="http://www.w3.org/1999/xlink" width="459.75502" height="308.83759" viewBox="0 0 459.75502 308.83759"><defs><linearGradient id="a" x1="0.11299" y1="148.85408" x2="459.7549" y2="148.85408" gradientUnits="userSpaceOnUse"><stop offset="0" stop-color="#007b00"/><stop offset="1" stop-color="#008500"/></linearGradient><linearGradient id="b" x1="435.83636" y1="245.55624" x2="459.75458" y2="245.55624" gradientUnits="userSpaceOnUse"><stop offset="0" stop-color="#006e00"/><stop offset="1" stop-color="#006f00"/></linearGradient><linearGradient id="c" x1="0" y1="235.72695" x2="435.95197" y2="235.72695" xlink:href="#a"/></defs><path d="M265.26493,11.6052,290.463,0l22.111,13.63313c48.12957,29.67586,85.05031,60.05063,109.74254,90.27916,16.23772,19.87156,27.33444,39.86848,32.97617,59.43442,6.453,22.33658,5.90281,43.78653-1.6233,63.76867a89.7431,89.7431,0,0,1-9.0854,17.81244c-.94729,1.424-1.93221,2.80325-2.92756,4.08692l-4.69832,6.1071-.33588,41.04341-.77994,1.03377-2.18.50914-.3755-40.64252-10.35729,2.43608a298.535,298.535,0,0,1-32.43493,5.52632,453.91993,453.91993,0,0,1-62.81668,2.95206c-45.15607-.88844-91.57919-7.78492-137.9965-20.487-56.48469-15.4688-112.72265-39.57953-167.1541-71.65963L.113,162.6162,20.71052,148.518c18.97887-12.988,34.87181-26.3037,47.21773-39.56492C80.69314,95.2388,90.06977,81.14957,95.81788,67.065l4.90584-12.02847,20.73059-2.938a582.105,582.105,0,0,0,81.22326-17.203A449.58107,449.58107,0,0,0,265.26493,11.6052Z" style="fill:url(#a)"/><g style="isolation:isolate"><path d="M361.80341,132.703a17.75866,17.75866,0,0,1,8.18362-2.6,11.83713,11.83713,0,0,1,6.42518,1.58759q2.70715,1.62159,2.49923,3.72069t-4.79442,4.66762l-69.72891,39.04785a18.06916,18.06916,0,0,1-8.21051,2.65133,11.68581,11.68581,0,0,1-6.4-1.57252q-2.76349-1.65534-2.52333-3.7726.237-2.11537,4.82026-4.6821Z" style="fill:#f6f6f6"/><path d="M218.532,53.00007a494.72647,494.72647,0,0,0,68.57131-25.50835c50.02075,30.84634,82.686,59.45726,103.58485,85.04085,16.32357,19.98282,25.47782,38.12695,30.0866,54.095,6.91426,23.94464,3.62527,43.03553-1.29382,56.08919a74.89516,74.89516,0,0,1-7.56445,14.86817c-.86179,1.30317-1.63332,2.34573-2.227,3.12826a246.00186,246.00186,0,0,1-26.41732,4.466,393.09127,393.09127,0,0,1-54.51856,2.53949c-33.40571-.65567-75.51123-5.22039-124.1907-18.55173-46.94821-12.84867-100.02761-33.87636-157.10436-67.51885,20.31923-13.90634,37.518-28.23668,51.29244-43.03156,14.06949-15.11921,24.56089-30.727,31.13228-46.82641A630.00446,630.00446,0,0,0,218.532,53.00007ZM202.42564,191.04282l28.204-54.0905L136.34609,151.461a24.17187,24.17187,0,0,0-6.697,1.73116q-2.59687,1.45424-2.654,3.6434c-.045,1.46306.80049,2.711,2.52387,3.74329a10.24294,10.24294,0,0,0,4.38614,1.43658,31.8239,31.8239,0,0,0,7.123-.50256l63.21932-9.78658-19.00987,36.26817c-.94533,1.82992-1.3125,3.19739-1.11343,4.10228a4.45641,4.45641,0,0,0,2.33784,2.59111,14.28131,14.28131,0,0,0,12.80737.207,9.17672,9.17672,0,0,0,3.15643-3.852m176.48569-55.63163q.207-2.0994-2.5-3.7206a11.83535,11.83535,0,0,0-6.42461-1.58744,17.753,17.753,0,0,0-8.18373,2.59974L292.07363,171.751q-4.58329,2.56662-4.81966,4.6821-.237,2.11512,2.5231,3.77226a11.68678,11.68678,0,0,0,6.4,1.57269,18.06962,18.06962,0,0,0,8.2101-2.65122l69.72934-39.04808q4.58329-2.56662,4.79485-4.66753"/><path d="M129.64972,153.1922a24.15776,24.15776,0,0,1,6.6968-1.73115l94.28367-14.50891-28.204,54.09084a9.17838,9.17838,0,0,1-3.15629,3.85194,14.27985,14.27985,0,0,1-12.80735-.207,4.45745,4.45745,0,0,1-2.33793-2.5909c-.199-.90533.16793-2.27284,1.11337-4.10239l19.00966-36.26843-63.21935,9.78669a31.845,31.845,0,0,1-7.123.50263,10.24586,10.24586,0,0,1-4.386-1.43673c-1.72334-1.03229-2.56883-2.28-2.524-3.74306Q127.05262,154.64637,129.64972,153.1922Z" style="fill:#f6f6f6"/><path d="M453.67206,227.11532a89.81463,89.81463,0,0,1-9.08545,17.8125c-.94727,1.42408-1.93286,2.79566-2.92761,4.08692l-5.707,7.42969-.11561,40.758,5.707-7.42969c.99475-1.29126,1.98034-2.66284,2.92761-4.08691a89.79965,89.79965,0,0,0,9.08545-17.81226,94.33775,94.33775,0,0,0,6.08264-33.20556l.11548-40.75806A94.33264,94.33264,0,0,1,453.67206,227.11532Z" style="fill:url(#b)"/><path d="M265.26752,11.6052,290.46554,0l22.111,13.63313c48.12257,29.67978,85.05119,60.05014,109.74254,90.27916,16.23159,19.875,27.32831,39.87191,32.97617,59.43442,6.44689,22.34,5.90281,43.78653-1.6233,63.76867a89.80235,89.80235,0,0,1-9.0854,17.81244c-.94729,1.424-1.93288,2.79575-2.92756,4.08692l-5.70707,7.42962-13.01984,3.05736a297.28956,297.28956,0,0,1-32.43493,5.52632,454.56491,454.56491,0,0,1-62.82369,2.956c-45.14906-.89236-91.57918-7.78492-137.99034-20.49144-56.48384-15.4683-112.72793-39.5756-167.1541-71.65964L.11558,162.6162,20.707,148.52148c18.985-12.99142,34.87093-26.30321,47.22385-39.56835C80.6896,95.24224,90.07151,81.14906,95.82047,67.065l4.905-12.029,20.73144-2.93744A582.51644,582.51644,0,0,0,202.687,34.89863,449.8788,449.8788,0,0,0,265.26752,11.6052ZM390.68785,112.53238c-20.8986-25.58319-53.56452-54.19454-103.585-85.04057A494.72183,494.72183,0,0,1,218.53132,52.9996a629.97075,629.97075,0,0,1-88.6485,18.79058C123.31163,87.8896,112.81965,103.497,98.7509,118.61659c-13.7739,14.795-30.97251,29.12535-51.29247,43.03164,57.07616,33.642,110.1565,54.67024,157.10469,67.51889,48.67858,13.33122,90.78417,17.89613,124.19009,18.55153a393.01988,393.01988,0,0,0,54.51843-2.53973,246.09193,246.09193,0,0,0,26.41812-4.46569c.59323-.78294,1.3649-1.82522,2.22622-3.12831a74.85828,74.85828,0,0,0,7.56434-14.86842c4.91895-13.05339,8.20851-32.14419,1.294-56.08923-4.609-15.96769-13.76288-34.112-30.08651-54.09489" style="fill:#00c200"/><g style="isolation:isolate"><path d="M422.93207,259.50155a297.2236,297.2236,0,0,1-32.43482,5.52637q-10.56792,1.27149-21.60083,2.01465c-13.34082.89917-27.13476,1.21533-41.2229.94141q-14.68139-.29-29.5299-1.42432a577.95067,577.95067,0,0,1-108.46045-19.06714c-56.48389-15.46826-112.72791-39.57544-167.15412-71.65967L.1156,162.6163,0,203.37436l22.41351,13.21655c54.42615,32.08423,110.67017,56.19141,167.15406,71.65967A577.93376,577.93376,0,0,0,298.028,307.31772q14.84215,1.13342,29.5299,1.42431c14.08826.27417,27.8822-.04223,41.223-.94116q11.01966-.743,21.60071-2.01465a297.347,297.347,0,0,0,32.43494-5.52637l13.01977-3.05737.11561-40.758Z" style="fill:url(#c)"/></g></g></svg>