<svg xmlns="http://www.w3.org/2000/svg" xmlns:xlink="http://www.w3.org/1999/xlink" width="322.22424" height="445.68416" viewBox="0 0 322.22424 445.68416"><defs><linearGradient id="a" x1="0.0836" y1="222.23213" x2="322.21475" y2="222.23213" gradientUnits="userSpaceOnUse"><stop offset="0" stop-color="#974f00"/><stop offset="1" stop-color="#a85800"/></linearGradient><linearGradient id="b" y1="27.34367" x2="178.51794" y2="27.34367" gradientUnits="userSpaceOnUse"><stop offset="0" stop-color="#a75700"/><stop offset="1" stop-color="#934d00"/></linearGradient><linearGradient id="c" x1="143.2782" y1="108.50903" x2="322.22424" y2="108.50903" xlink:href="#a"/><linearGradient id="d" x1="264.12006" y1="165.66064" x2="264.12006" y2="432.9834" gradientUnits="userSpaceOnUse"><stop offset="0" stop-color="#834400"/><stop offset="1" stop-color="#834400"/></linearGradient></defs><path d="M299.45429,149.99538l22.76046,15.66895-.40588,26.0946c-2.25258,134.14525-67.84264,259.95891-179.96344,252.376C30.3973,332.61638-2.13315,150.59983.199,20.48226L35.23119.00314,57.78294,10.42953c20.782,9.60974,40.2618,16.38958,57.90094,20.15008,18.22805,3.88147,35.06456,4.65845,50.0356,2.30915l12.7959-2.004L191.5791,47.20144a578.608,578.608,0,0,0,56.07807,60.99194A445.17779,445.17779,0,0,0,299.45429,149.99538Z" style="fill:url(#a)"/><g style="isolation:isolate"><path d="M205.007,151.6854a490.66793,490.66793,0,0,0,56.7485,45.7995c-.92219,59.01955-8.77573,101.94941-20.02384,133.182-8.78514,24.39537-19.64227,41.66439-30.964,53.89551-16.96738,18.35615-34.97664,25.40347-48.6504,27.92939a73.86453,73.86453,0,0,1-16.57273,1.19683c-1.55382-.07372-2.83874-.191-3.81058-.30428A244.1403,244.1403,0,0,1,124.461,392.97a393.16694,393.16694,0,0,1-29.93425-45.60336c-16.44914-29.09558-33.977-67.69087-47.36461-116.483C34.25572,183.82342,25.214,127.25265,24.93575,60.713c22.24507,10.28571,43.264,17.66716,62.9361,21.86,20.107,4.28922,38.80358,5.23688,55.91811,2.54447A627.24883,627.24883,0,0,0,205.007,151.6854ZM78.70022,209.29981l60.63631-3.73221L78.91955,131.937q-3.30759-3.94847-4.89134-4.867c-1.71763-.99168-3.20726-1.11639-4.4754-.39371s-1.90535,2.08888-1.91107,4.10653a10.37,10.37,0,0,0,.99765,4.52228,32.249,32.249,0,0,0,4.057,5.86214l40.57136,49.34955-40.7181,2.40948c-2.0405.13711-3.40348.52576-4.077,1.17285a4.5093,4.5093,0,0,0-1.02,3.35739,12.62514,12.62514,0,0,0,1.88139,6.36215,12.4942,12.4942,0,0,0,4.463,4.76688,9.014,9.014,0,0,0,4.9031.71425M216.15953,332.371q1.90171-.90786,1.911-4.07013a11.9164,11.9164,0,0,0-1.91376-6.35195,17.55439,17.55439,0,0,0-6.39151-5.70352L140.8554,276.46031q-4.52987-2.61532-6.46686-1.72026-1.9304.89234-1.94286,4.12533a11.75956,11.75956,0,0,0,1.91327,6.31451,17.96432,17.96432,0,0,0,6.45558,5.6965l68.90984,39.78512q4.52987,2.61531,6.43516,1.70952"/><path d="M74.02848,127.07075q1.58981.91786,4.8913,4.86683l60.41685,73.63019-60.63617,3.73281a9.01331,9.01331,0,0,1-4.90308-.7145,12.49463,12.49463,0,0,1-4.463-4.76657,12.62514,12.62514,0,0,1-1.88129-6.36229A4.50714,4.50714,0,0,1,68.473,194.1c.67329-.64745,2.03654-1.03608,4.07695-1.17349l40.71814-2.40936-40.5714-49.34937a32.238,32.238,0,0,1-4.057-5.86216,10.36563,10.36563,0,0,1-.99761-4.5221q.00858-3.02641,1.911-4.10685C70.82134,125.95387,72.31108,126.07921,74.02848,127.07075Z" style="fill:#efefef"/><path d="M209.76554,316.2461a17.55688,17.55688,0,0,1,6.39178,5.70372,11.917,11.917,0,0,1,1.91333,6.35149q-.009,3.15835-1.911,4.07008-1.9019.908-6.435-1.7091l-68.90959-39.785a17.96921,17.96921,0,0,1-6.45572-5.6967,11.7596,11.7596,0,0,1-1.91344-6.31477q.00918-3.23537,1.943-4.125,1.94026-.89691,6.467,1.72029Z" style="fill:#efefef"/><path d="M22.54485,30.90156,57.78464,10.42244c20.78891,9.61373,40.26872,16.38561,57.90181,20.14363,18.23411,3.884,35.07061,4.66888,50.04165,2.31958L130.48831,53.36478c-14.971,2.34929-31.80754,1.5644-50.04165-2.31958C62.81357,47.28718,43.33376,40.5153,22.54485,30.90156Z" style="fill:none"/><path d="M165.72815,32.88562a114.92965,114.92965,0,0,1-19.2832,1.312A157.73575,157.73575,0,0,1,115.6864,30.566a234.6111,234.6111,0,0,1-29.29858-8.41345q-13.804-4.89039-28.60327-11.73017L35.23987,0,0,20.47913,22.5448,30.90155q14.77076,6.83066,28.60327,11.73016a234.61135,234.61135,0,0,0,29.29859,8.41346,157.73642,157.73642,0,0,0,30.75854,3.63159,114.92206,114.92206,0,0,0,19.28308-1.312L143.2782,51.3573l35.23974-20.47913Z" style="fill:url(#b)"/><path d="M241.25566,412.50431l-35.23979,20.47913a108.63912,108.63912,0,0,0,25.13632-20.41226c13.86909-14.986,25.32753-34.89069,34.06177-59.15422C278.50568,316.5152,285.694,269.013,286.57769,212.235l35.23979-20.47913c-.88366,56.778-8.072,104.28017-21.36373,141.18193C291.71951,357.20136,280.26107,377.106,266.392,392.092A108.63861,108.63861,0,0,1,241.25566,412.50431Z" style="fill:none"/><path d="M156.348,67.66953,191.58774,47.1904a578.57146,578.57146,0,0,0,56.07889,60.99935,444.89873,444.89873,0,0,0,51.79627,41.79458l-35.23978,20.47913a444.899,444.899,0,0,1-51.79628-41.79458A578.57146,578.57146,0,0,1,156.348,67.66953Z" style="fill:none"/><path d="M299.46289,149.98438a444.90568,444.90568,0,0,1-51.79626-41.79468q-4.17995-3.90308-8.34888-7.98328a593.73666,593.73666,0,0,1-47.73-53.016l-13.06983-16.3122L143.2782,51.3573,156.348,67.66949a593.71975,593.71975,0,0,0,47.73,53.01606q4.16822,4.07922,8.34888,7.9834a444.88391,444.88391,0,0,0,51.79626,41.79443l22.76136,15.67651,35.23974-20.47925Z" style="fill:url(#c)"/><path d="M286.9845,186.13989l-.40674,26.0951c-.88379,56.778-8.072,104.28015-21.36377,141.182-8.73425,24.26343-20.19263,44.16822-34.06177,59.15418a108.63737,108.63737,0,0,1-25.13635,20.41223l35.23987-20.47913A108.643,108.643,0,0,0,266.392,392.092c13.86914-14.98608,25.32751-34.89062,34.06177-59.1543,13.29174-36.90161,20.4801-84.4038,21.36376-141.18188l.40674-26.09522Z" style="fill:url(#d)"/><path d="M264.22312,170.46346l22.76131,15.67637-.40674,26.0952c-.88366,56.778-8.072,104.28017-21.36373,141.18193-8.73424,24.26353-20.19268,44.16821-34.06177,59.15422-15.82487,17.11985-34.45891,27.76066-55.38828,31.62266a88.22033,88.22033,0,0,1-19.867,1.40457c-1.70081-.07784-3.38239-.2113-4.98671-.39574l-9.26987-1.07431-9.23957-9.61908a297.76261,297.76261,0,0,1-21.24429-25.04457,452.62813,452.62813,0,0,1-34.512-52.53759c-22.23327-39.32075-39.97116-82.835-52.73866-129.35928C8.37929,170.9411.37256,110.05881.1053,46.61208L0,20.47916l22.54484,10.4224C43.33376,40.5153,62.81357,47.28718,80.44666,51.0452c18.23411,3.884,35.07061,4.66887,50.04165,2.31958l12.78984-2.00749L156.348,67.66953a578.57146,578.57146,0,0,0,56.07889,60.99935A444.899,444.899,0,0,0,264.22312,170.46346ZM241.73181,330.667c11.24792-31.23312,19.101-74.16252,20.023-133.18263A490.59365,490.59365,0,0,1,205.00721,151.685a627.17346,627.17346,0,0,1-61.21732-66.56786c-17.115,2.6927-35.81149,1.745-55.91792-2.54484C68.1994,78.37961,47.18059,70.999,24.93519,60.71263c.27843,66.53894,9.32076,123.11119,22.22713,170.17074C60.549,279.676,78.0773,318.27076,94.52678,347.36578a393.01468,393.01468,0,0,0,29.93379,45.60376,244.2586,244.2586,0,0,0,17.273,20.41479c.97194.11308,2.2567.22952,3.81021.304a73.89005,73.89005,0,0,0,16.57348-1.1971c13.67346-2.52591,31.68293-9.57328,48.64994-27.92858,11.32231-12.23153,22.17882-29.50053,30.96457-53.89564" style="fill:#ed7b00"/></g></svg>