<svg xmlns="http://www.w3.org/2000/svg" xmlns:xlink="http://www.w3.org/1999/xlink" width="459.7584" height="308.83535" viewBox="0 0 459.7584 308.83535"><defs><linearGradient id="a" x1="0.1165" y1="148.85408" x2="459.7584" y2="148.85408" gradientUnits="userSpaceOnUse"><stop offset="0" stop-color="#9c0000"/><stop offset="1" stop-color="#a90000"/></linearGradient><linearGradient id="b" x1="435.83044" y1="245.55094" x2="459.75708" y2="245.55094" gradientUnits="userSpaceOnUse"><stop offset="0" stop-color="#8b0000"/><stop offset="1" stop-color="#8c0000"/></linearGradient><linearGradient id="c" x1="0" y1="235.7258" x2="435.94598" y2="235.7258" xlink:href="#a"/></defs><path d="M265.26844,11.6052,290.46646,0l22.111,13.63313C360.70706,43.309,397.6278,73.68376,422.32,103.91229c16.23772,19.87156,27.33444,39.86848,32.97617,59.43442,6.453,22.33658,5.90281,43.78653-1.6233,63.76867a89.7431,89.7431,0,0,1-9.0854,17.81244c-.94729,1.424-1.93221,2.80325-2.92756,4.08692l-4.69832,6.1071-.33588,41.04341-.77994,1.03377-2.18.50914-.37549-40.64252L422.933,259.50172A298.53541,298.53541,0,0,1,390.4981,265.028a453.92008,453.92008,0,0,1-62.81669,2.95206c-45.15606-.88844-91.57918-7.78492-137.9965-20.487-56.48468-15.4688-112.72265-39.57953-167.1541-71.65963L.1165,162.6162,20.714,148.518c18.97886-12.988,34.87181-26.3037,47.21772-39.56492C80.69665,95.2388,90.07328,81.14957,95.82139,67.065l4.90583-12.02847,20.73059-2.938a582.105,582.105,0,0,0,81.22326-17.203A449.58073,449.58073,0,0,0,265.26844,11.6052Z" style="fill:url(#a)"/><g style="isolation:isolate"><path d="M129.6561,153.18883q1.60854-.90078,6.69684-1.73118l94.27723-14.5053-28.19753,54.08724a9.20246,9.20246,0,0,1-3.15632,3.852,14.248,14.248,0,0,1-12.80733-.207,4.46749,4.46749,0,0,1-2.34442-2.58727c-.199-.90535.17438-2.27645,1.11352-4.10228l19.016-36.27218-63.22587,9.79034a32.048,32.048,0,0,1-7.123.50262,10.23184,10.23184,0,0,1-4.38576-1.44413c-1.71688-1.02841-2.56252-2.27619-2.5242-3.73567S127.91837,154.162,129.6561,153.18883Z" style="fill:#f6f6f6"/><path d="M218.53161,53.0003A496.31072,496.31072,0,0,0,287.109,27.48857c50.02135,30.846,82.67991,59.46065,103.57938,85.04459,16.32357,19.98282,25.47744,38.119,30.08662,54.09429,6.91366,23.945,3.62467,43.03587-1.29443,56.08953a74.71344,74.71344,0,0,1-7.56326,14.86819c-.86178,1.30317-1.63451,2.34572-2.227,3.12826a246.1099,246.1099,0,0,1-26.4179,4.46567,393.74612,393.74612,0,0,1-54.51917,2.53983c-33.40571-.65568-75.51044-5.22764-124.19069-18.55173-46.94158-12.85171-100.027-33.87671-157.10376-67.51919,20.31982-13.906,37.51863-28.23634,51.29242-43.03087,14.07556-15.12329,24.567-30.7311,31.13228-46.82641A630.34863,630.34863,0,0,0,218.53161,53.0003Zm-16.09967,138.039,28.19791-54.08711L136.3524,151.45749q-5.092.83641-6.697,1.73116-2.60685,1.45981-2.66069,3.64713-.0566,2.18952,2.52406,3.73569a10.227,10.227,0,0,0,4.38594,1.44417,32.02584,32.02584,0,0,0,7.12295-.50256l63.226-9.7903L185.23767,187.995c-.93926,1.82584-1.31248,3.1967-1.11342,4.10228a4.46458,4.46458,0,0,0,2.34449,2.58738,14.24659,14.24659,0,0,0,12.80678.20663,9.20127,9.20127,0,0,0,3.15642-3.852m176.479-55.6279q.20793-2.09887-2.49943-3.72094a11.79154,11.79154,0,0,0-6.4252-1.5871,17.75911,17.75911,0,0,0-8.18373,2.59973l-69.72269,39.04436q-4.58329,2.56662-4.82631,4.68582-.237,2.11513,2.52311,3.77227a11.69069,11.69069,0,0,0,6.40055,1.573,18.19437,18.19437,0,0,0,8.21617-2.65529L374.11613,140.079q4.58329-2.56662,4.79485-4.66752"/><path d="M265.26749,11.60531l25.198-11.6052,22.111,13.63313c48.12958,29.67586,85.05032,60.05063,109.74255,90.27916,16.23772,19.87156,27.33444,39.86848,32.97617,59.43442,6.453,22.33658,5.90281,43.78653-1.6233,63.76867a89.74337,89.74337,0,0,1-9.0854,17.81244c-.94729,1.424-1.93221,2.80325-2.92756,4.08692l-5.713,7.42605-13.01389,3.06093a298.53541,298.53541,0,0,1-32.43493,5.52632,453.91849,453.91849,0,0,1-62.81669,2.95205c-45.15606-.88843-91.57918-7.78491-137.9965-20.487-56.48468-15.4688-112.72264-39.57953-167.15409-71.65963L.11555,162.61631l20.59753-14.09815c18.97887-12.988,34.87181-26.3037,47.21773-39.56492C80.6957,95.23891,90.07233,81.14968,95.82044,67.0651l4.90583-12.02847,20.7306-2.938a582.10484,582.10484,0,0,0,81.22325-17.203A449.58073,449.58073,0,0,0,265.26749,11.60531ZM390.68867,112.533C369.78922,86.9493,337.13028,58.335,287.109,27.48849a496.42289,496.42289,0,0,1-68.57774,25.51222,630.41559,630.41559,0,0,1-88.64847,18.78958c-6.56507,16.096-17.05705,31.7034-31.13192,46.82641-13.7739,14.795-30.97251,29.12535-51.29247,43.03164,57.07616,33.642,110.16262,54.66681,157.10469,67.51889,48.67876,13.32422,90.78417,17.89613,124.19008,18.55153a393.74062,393.74062,0,0,0,54.51928-2.53923,246.198,246.198,0,0,0,26.41728-4.46619c.59236-.78245,1.36575-1.82471,2.22707-3.1278a74.69791,74.69791,0,0,0,7.56349-14.86893c4.91895-13.05339,8.20851-32.14419,1.29489-56.08872-4.60875-15.97568-13.76373-34.11253-30.08651-54.09489" style="fill:#f60000"/><path d="M361.8033,132.70325a17.7588,17.7588,0,0,1,8.18366-2.6,11.79134,11.79134,0,0,1,6.42516,1.5876q2.70715,1.62159,2.49921,3.72071-.20766,2.09925-4.79442,4.66762l-69.72245,39.04422a18.19352,18.19352,0,0,1-8.2168,2.65505,11.68737,11.68737,0,0,1-6.40018-1.57263q-2.76349-1.65534-2.52336-3.77259.24669-2.12082,4.82673-4.68571Z" style="fill:#f6f6f6"/><path d="M453.67194,227.11552a89.74985,89.74985,0,0,1-9.08539,17.8125c-.94727,1.42383-1.93219,2.80322-2.92755,4.08691l-5.713,7.426-.11554,40.75806,5.713-7.426c.99536-1.28369,1.98022-2.66284,2.92755-4.08691a89.74277,89.74277,0,0,0,9.08539-17.8125,94.35653,94.35653,0,0,0,6.08508-33.21265l.1156-40.75806A94.35889,94.35889,0,0,1,453.67194,227.11552Z" style="fill:url(#b)"/><g style="isolation:isolate"><path d="M422.93207,259.50175a298.5228,298.5228,0,0,1-32.43494,5.52637q-10.56325,1.27074-21.59088,2.01367c-13.34326.89941-27.13867,1.21509-41.22577.93848q-14.69164-.28932-29.54907-1.42408A578.22255,578.22255,0,0,1,189.684,247.4932C133.19928,232.02445,76.9613,207.91361,22.52985,175.83354L.11554,162.61625,0,203.37431l22.41431,13.21728c54.43145,32.08008,110.66943,56.19092,167.15411,71.65967a578.22252,578.22252,0,0,0,108.44745,19.063q14.85094,1.13379,29.54907,1.42407c14.087.27661,27.88251-.03882,41.22571-.93823q11.01433-.74268,21.59094-2.01392a298.59862,298.59862,0,0,0,32.43494-5.52612l13.01391-3.061L435.946,256.441Z" style="fill:url(#c)"/></g></g></svg>