<?xml version="1.0" encoding="utf-8"?>
<!-- Generator: Adobe Illustrator 25.0.0, SVG Export Plug-In . SVG Version: 6.00 Build 0)  -->
<svg version="1.1" id="Text" xmlns="http://www.w3.org/2000/svg" xmlns:xlink="http://www.w3.org/1999/xlink" x="0px" y="0px"
	 viewBox="0 0 512 512" style="enable-background:new 0 0 512 512;" xml:space="preserve">
<style type="text/css">
	.st0{fill:#00C900;}
	.st1{enable-background:new    ;}
	.st2{fill:#FFFFFF;}
</style>
<rect x="15" y="15" width="482" height="482"/>
<path class="st0" d="M482,30v452H30V30H482 M512,0H0v512h512V0z"/>
<g class="st1">
	<path class="st2" d="M195.4,217.8l-83-46c-4.2-2.3-6.9-4.4-8.3-6.2c-1.4-1.8-2.1-4.2-2.1-7c0-3.6,1.3-6.7,3.9-9.2
		c2.6-2.6,5.6-3.9,9.1-3.9c2.2,0,5.5,1.2,10,3.6l123.6,68.8l-123.6,68.8c-4.5,2.5-7.8,3.8-10,3.8c-3.5,0-6.5-1.3-9.1-3.9
		c-2.6-2.6-3.9-5.7-3.9-9.4c0-2.8,0.7-5.2,2.1-7c1.4-1.8,4.1-3.9,8.3-6.2L195.4,217.8z"/>
	<path class="st2" d="M392.9,367.6H252.2c-6.2,0-10.6-1.2-13.2-3.5c-2.6-2.3-3.9-5.4-3.9-9.2c0-3.8,1.3-6.9,3.9-9.3s7-3.6,13.2-3.6
		h140.8c6.1,0,10.4,1.2,13.1,3.6s3.9,5.5,3.9,9.3c0,3.8-1.3,6.8-3.9,9.2C403.5,366.4,399.1,367.6,392.9,367.6z"/>
</g>
</svg>
