<svg xmlns="http://www.w3.org/2000/svg" xmlns:xlink="http://www.w3.org/1999/xlink" width="322.22315" height="446.71847" viewBox="0 0 322.22315 446.71847"><defs><linearGradient id="a" x1="0.00075" y1="222.96679" x2="322.22314" y2="222.96679" gradientUnits="userSpaceOnUse"><stop offset="0" stop-color="#8b0000"/><stop offset="1" stop-color="#c00000"/></linearGradient><linearGradient id="b" x1="142.98462" y1="26.84852" x2="322.22314" y2="26.84852" xlink:href="#a"/><linearGradient id="c" x1="57.55707" y1="434.12512" x2="57.55707" y2="165.71887" gradientUnits="userSpaceOnUse"><stop offset="0" stop-color="#d30000"/><stop offset="1" stop-color="#900"/></linearGradient><linearGradient id="d" y1="108.76099" x2="178.22443" y2="108.76099" gradientUnits="userSpaceOnUse"><stop offset="0" stop-color="#d70000"/><stop offset="1" stop-color="#f90000"/></linearGradient></defs><path d="M264.20935,10.61426,286.98413.00037c16.92664,9.83679,35.239,20.47876,35.239,20.47876-2.8872,179.92382-48.38214,323.566-143.75463,424.736-20.2912,1.79089-38.32809.7434-59.72515-9.08411,0,0-29.61789-16.85473-40.44406-23.42016-22.38318-13.55347-40.30943-36.485-53.29857-68.1377C9.20438,306.03064.87918,254.57764.25276,191.64685l-.252-25.92761L22.537,150.114a497.25261,497.25261,0,0,0,57.82054-46.6687A454.41,454.41,0,0,0,130.24875,48.0686l12.73669-16.74414,13.11942,1.1919a183.18991,183.18991,0,0,0,56.24005-3.848A250.14358,250.14358,0,0,0,264.20935,10.61426Z" style="fill:url(#a)"/><g style="isolation:isolate"><path d="M245.99383,239.17838q4.47246-2.58218,6.40313-1.68332c1.29348.59058,1.93689,1.968,1.943,4.12494a11.84545,11.84545,0,0,1-1.88161,6.25971,17.587,17.587,0,0,1-6.42366,5.71486l-68.90961,39.785q-4.52991,2.61534-6.46685,1.76416c-1.287-.57228-1.93679-1.9314-1.94291-4.08832a11.91613,11.91613,0,0,1,1.91331-6.35137,17.77081,17.77081,0,0,1,6.45558-5.74067Z" style="fill:#9a9a9a"/><path d="M240.31934,80.64071A276.23983,276.23983,0,0,0,297.141,60.87112c-.58448,59.88942-8.16934,111.73265-19.20388,155.83013a546.78732,546.78732,0,0,1-30.55773,89.41511c-16.808,37.8557-34.71852,65.642-48.3333,83.92227-6.8104,9.135-12.54044,15.88945-16.51179,20.29887-1.54916,1.7171-2.83114,3.08183-3.79985,4.08961a67.701,67.701,0,0,1-17.332-.43516,80.51042,80.51042,0,0,1-30.09457-10.94638c-16.56007-10.037-34.24913-28.29981-47.86918-61.4991-13.13064-32.02771-22.463-77.9909-23.117-143.99164a537.25311,537.25311,0,0,0,62.85416-50.76568,504.574,504.574,0,0,0,55.74976-61.92633A198.97683,198.97683,0,0,0,240.31934,80.64071ZM114.75153,283.67566l60.417-73.62306-60.63633-3.73976a9.411,9.411,0,0,0-4.9029.78773,14.30311,14.30311,0,0,0-6.34458,11.06311,4.52974,4.52974,0,0,0,1.02,3.35739c.67347.63953,2.03645,1.02818,4.07695,1.166l40.71813,2.41635-40.57139,49.342a32.00719,32.00719,0,0,0-4.057,5.86969,10.3171,10.3171,0,0,0-.99765,4.52228q.00876,3.0924,1.91128,4.18,1.90221,1.084,4.47538-.40126,1.58944-.91767,4.89113-4.94045m137.70673-35.796a11.84823,11.84823,0,0,0,1.88169-6.25983c-.00611-2.15706-.64995-3.53458-1.94346-4.125q-1.93042-.90262-6.4029,1.68334l-68.90985,39.78512a17.77083,17.77083,0,0,0-6.45546,5.74045,11.917,11.917,0,0,0-1.91315,6.3516c.00611,2.15705.65588,3.516,1.94275,4.08824q1.94016.85264,6.46673-1.76421l68.90985-39.78512a17.59,17.59,0,0,0,6.4238-5.7146"/><path d="M299.44835,31.09307l22.7748-10.61391-.25682,26.4773c-.55935,57.6191-7.4562,113.24639-20.49471,165.34992a603.02571,603.02571,0,0,1-33.6156,98.22777c-15.6771,35.30752-34.18915,67.39364-55.02825,95.37168-6.67044,8.94333-13.33,17.12366-19.79406,24.30286-1.6957,1.88214-3.37254,3.68867-4.97353,5.35481l-9.23873,9.61063-9.26986,1.07531a83.05619,83.05619,0,0,1-21.31665-.479,92.596,92.596,0,0,1-34.69664-12.581c-22.38317-13.55346-40.30943-36.48493-53.29856-68.13765-15.79635-38.54247-24.12155-89.99551-24.748-152.92628l-.252-25.92762L57.776,170.59282a497.26169,497.26169,0,0,0,57.82055-46.6687,454.41955,454.41955,0,0,0,49.89123-55.3767l12.73668-16.74424,13.11942,1.19189a183.187,183.187,0,0,0,56.24005-3.848A250.14169,250.14169,0,0,0,299.44835,31.09307ZM277.93743,216.70129c11.03436-44.09781,18.6187-95.941,19.20368-155.83018a276.30221,276.30221,0,0,1-56.82229,19.7703,198.99354,198.99354,0,0,1-61.39321,4.22136A504.69692,504.69692,0,0,1,123.176,146.7892,537.33819,537.33819,0,0,1,60.3212,197.55534c.65418,66.00049,9.9872,111.96273,23.11779,143.99083,13.61917,33.19977,31.30862,51.46258,47.869,61.49933a80.50555,80.50555,0,0,0,30.09411,10.94663,67.73147,67.73147,0,0,0,17.33216.43547c.96854-1.00826,2.25062-2.37279,3.79947-4.08949,3.97188-4.41008,9.70226-11.16473,16.51254-20.29933,13.61447-18.2806,31.52519-46.06651,48.33285-83.92262a546.73858,546.73858,0,0,0,30.55828-89.41487" style="fill:#9a0000"/><path d="M109.62953,207.10084a9.41236,9.41236,0,0,1,4.90281-.78781l60.63624,3.74015L114.75166,283.676q-3.30763,4.02592-4.891,4.94014-2.5762,1.48738-4.47544.40142-1.90242-1.08411-1.9112-4.18007a10.32016,10.32016,0,0,1,.99761-4.5221,31.98181,31.98181,0,0,1,4.057-5.86966L149.1,225.10388,108.38189,222.687c-2.04042-.1373-3.40368-.52593-4.077-1.166a4.53037,4.53037,0,0,1-1.01994-3.35727,14.3014,14.3014,0,0,1,6.34457-11.06293Z" style="fill:#9a9a9a"/><path d="M191.34386,52.99507,156.10407,32.51594a183.187,183.187,0,0,0,56.24005-3.848,250.14191,250.14191,0,0,0,51.86445-18.054l35.23978,20.47912a250.14169,250.14169,0,0,1-51.86444,18.054A183.187,183.187,0,0,1,191.34386,52.99507Z" style="fill:none"/><path d="M286.98334,0,264.20856,10.61389a258.15994,258.15994,0,0,1-44.07788,16.17529q-3.90116,1.01752-7.78656,1.87867A183.19034,183.19034,0,0,1,156.10406,32.516L142.98462,31.3241l35.23981,20.479,13.11944,1.1919a183.186,183.186,0,0,0,56.24005-3.84791q3.88715-.86205,7.78656-1.8789a258.15335,258.15335,0,0,0,44.07788-16.175l22.77478-10.614Z" style="fill:url(#b)"/><path d="M115.11412,434.12516,79.87432,413.646q-.79083-.45962-1.5758-.93564c-22.38318-13.55346-40.30944-36.48493-53.29857-68.13765C9.2036,306.03029.8784,254.57724.252,191.64648L35.49178,212.1256c.62641,62.93077,8.95161,114.38381,24.748,152.92628,12.98913,31.65272,30.91539,54.58419,53.29856,68.13765Q114.32325,433.66556,115.11412,434.12516Z" style="fill:none"/><path d="M57.776,170.59282,22.53619,150.11369A497.26085,497.26085,0,0,0,80.35674,103.445,454.4188,454.4188,0,0,0,130.248,48.06829l35.23979,20.47913a454.41955,454.41955,0,0,1-49.89123,55.3767A497.26169,497.26169,0,0,1,57.776,170.59282Z" style="fill:none"/><path d="M113.53833,433.18958c-22.38318-13.55347-40.30945-36.485-53.29858-68.1377q-1.59082-3.88148-3.08057-7.93726c-9.3866-25.55383-15.75861-56.26782-19.0578-91.77563q-2.32626-25.03674-2.60962-53.21338l-.252-25.92773L0,165.71887l.252,25.92761Q.53225,219.80408,2.86157,244.86c3.2992,35.50781,9.67121,66.22168,19.0578,91.77539q1.48975,4.05559,3.08057,7.93737c12.98913,31.65271,30.9154,54.58411,53.29858,68.13758q.785.47607,1.57581.93567l35.23981,20.47912Q114.3233,433.66554,113.53833,433.18958Z" style="fill:url(#c)"/><path d="M142.98462,31.3241,130.248,48.06824Q120.23276,61.23242,109.13757,73.7616,95.471,89.19519,80.35675,103.445q-14.6229,13.7796-30.86645,26.67846-13.03858,10.35242-26.95411,19.99024L0,165.71887l35.23975,20.479L57.776,170.5929q13.89057-9.61744,26.954-19.99036,16.19595-12.85932,30.86646-26.67847,15.07681-14.20806,28.78088-29.68323,11.07522-12.50738,21.11035-25.69335l12.7367-16.74439Z" style="fill:url(#d)"/></g></svg>