<svg xmlns="http://www.w3.org/2000/svg" xmlns:xlink="http://www.w3.org/1999/xlink" width="461.90419" height="307.45224" viewBox="0 0 461.90419 307.45224"><defs><linearGradient id="a" x1="0.10125" y1="147.54446" x2="461.88407" y2="147.54446" gradientUnits="userSpaceOnUse"><stop offset="0" stop-color="#0500c2"/><stop offset="1" stop-color="#030092"/></linearGradient><linearGradient id="b" y1="243.8472" x2="22.40669" y2="243.8472" gradientUnits="userSpaceOnUse"><stop offset="0" stop-color="#03008c"/><stop offset="1" stop-color="#0400a8"/></linearGradient><linearGradient id="c" x1="22.29115" y1="236.56842" x2="461.90419" y2="236.56842" xlink:href="#a"/></defs><path d="M441.30475,151.2629l20.57932,14.4166-23.05328,13.01224c-50.17928,28.32514-101.8075,50.16994-153.44368,64.93351a604.0181,604.0181,0,0,1-101.87555,20.00193c-38.42182,4.07349-75.46008,4.08066-110.11534.026-11.07345-1.30111-21.48161-2.98184-30.93787-4.98723-2.48388-.531-4.8868-1.07987-7.12936-1.63279l-11.36443-2.81066-.49644,40.86644-1.07417-.26623L20.74439,292.362l-.07165-40.84319-3.84113-5.17215A82.21193,82.21193,0,0,1,6.58375,227.643,92.53115,92.53115,0,0,1,.12311,191.30781c.559-26.16063,11.44818-53.155,32.37345-80.22675,25.46679-32.95127,65.86383-65.88763,120.06407-97.8955L174.88082,0l24.77742,11.71835a498.22762,498.22762,0,0,0,69.33261,26.74321,454.45886,454.45886,0,0,0,72.90234,15.51123L362.76938,56.634,368.284,68.59215A183.42656,183.42656,0,0,0,399.73733,115.374,250.11779,250.11779,0,0,0,441.30475,151.2629Z" style="fill:url(#a)"/><g style="isolation:isolate"><path d="M193.98825,74.88369a9.4125,9.4125,0,0,1,3.13368,3.85207l27.079,54.3826L130.23326,117.6072q-5.14051-.85147-6.7239-1.76565c-1.71749-.9916-2.57086-2.21906-2.5789-3.67888-.00822-1.45973.87559-2.70564,2.66443-3.7452a10.36651,10.36651,0,0,1,4.4151-1.39707,32.23882,32.23882,0,0,1,7.1054.58236l63.017,10.4649-18.2661-36.47129c-.9012-1.83576-1.2463-3.21071-1.02861-4.11382a4.53,4.53,0,0,1,2.39747-2.562,14.27052,14.27052,0,0,1,12.75308-.03691Z" style="fill:#e3e3e3"/><path d="M368.85042,124.83443a276.3015,276.3015,0,0,0,45.52643,39.32044C362.22423,193.5972,313.54137,212.946,269.83456,225.43923a546.89273,546.89273,0,0,1-92.72174,18.24724c-41.188,4.37168-74.20689,2.75387-96.84547.10327-11.31634-1.33048-20.02436-2.91941-25.83524-4.15019-2.26163-.48307-4.08391-.91058-5.44162-1.246a67.87,67.87,0,0,1-8.28262-15.23134,80.35973,80.35973,0,0,1-5.574-31.53206c.41287-19.3603,7.38379-43.81053,29.33173-72.20928,21.16554-27.38118,56.30406-58.44519,113.136-92.01232a537.95541,537.95541,0,0,0,75.39086,29.0508,505.129,505.129,0,0,0,81.50465,17.31754A198.98607,198.98607,0,0,0,368.85042,124.83443ZM130.2331,117.607,224.201,133.11812,197.1222,78.7353a9.41486,9.41486,0,0,0-3.13424-3.85183,14.27109,14.27109,0,0,0-12.75263.03663,4.5307,4.5307,0,0,0-2.39759,2.562c-.21771.90336.1272,2.278,1.0287,4.11373l18.26585,36.47146-63.01711-10.46486a32.22469,32.22469,0,0,0-7.10527-.58242,10.37008,10.37008,0,0,0-4.41524,1.39714c-1.78841,1.03932-2.67257,2.28566-2.66436,3.74524s.86162,2.68693,2.57926,3.67861q1.58944.91765,6.72353,1.76595M230.08728,218.9662a11.85107,11.85107,0,0,0,6.368-1.50378c1.865-1.08382,2.73606-2.33016,2.60061-3.74557q-.19332-2.11743-4.66521-4.7l-68.91582-39.78857a17.81716,17.81716,0,0,0-8.18718-2.72036,11.917,11.917,0,0,0-6.45723,1.519q-2.79662,1.62522-2.57508,3.73.23078,2.10708,4.75464,4.71514l68.91582,39.78857a17.5894,17.5894,0,0,0,8.16149,2.70554"/><path d="M441.32487,151.268l20.57932,14.4166-23.05328,13.01224c-50.17927,28.32514-101.8075,50.16994-153.44973,64.93a603.02731,603.02731,0,0,1-101.87555,20.00192c-38.41491,4.07649-75.45918,4.08815-110.10842.03-11.07432-1.30161-21.4885-2.97884-30.94394-4.99173-2.47868-.52695-4.87382-1.07238-7.11728-1.63279L22.4067,253.84257l-5.56016-7.49478A82.37108,82.37108,0,0,1,6.60387,227.648,92.58029,92.58029,0,0,1,.13718,191.3094c.559-26.16063,11.45423-53.15146,32.36743-80.22325,25.47972-32.95077,65.87763-65.88763,120.07008-97.899L174.90094.00509l24.77137,11.71485a497.91452,497.91452,0,0,0,69.33261,26.74321,455.0106,455.0106,0,0,0,72.90324,15.51872l20.86927,2.65718,5.52751,11.95869a183.2038,183.2038,0,0,0,31.45251,46.7813A250.09284,250.09284,0,0,0,441.32487,151.268ZM269.834,225.4386c43.70787-12.49237,92.39067-31.84172,144.54181-61.28372a276.31943,276.31943,0,0,1-45.52494-39.3209,198.98315,198.98315,0,0,1-34.35414-51.0574,505.14178,505.14178,0,0,1-81.50464-17.31734,538.03432,538.03432,0,0,1-75.39046-29.05081c-56.83187,33.56728-91.9707,64.63054-113.13568,92.012-21.94827,28.39893-28.91874,52.84935-29.33234,72.20947A80.34967,80.34967,0,0,0,40.70832,223.162a67.78066,67.78066,0,0,0,8.28293,15.23132c1.35659.33515,3.17935.7632,5.44134,1.2457,5.81034,1.23171,14.51835,2.82,25.83515,4.15111,22.6387,2.65018,55.65736,4.26836,96.84554-.10384A546.844,546.844,0,0,0,269.834,225.4386" style="fill:#0500e3"/><path d="M234.39044,209.01743q4.47246,2.58218,4.66572,4.69991c.13529,1.41548-.736,2.66147-2.60085,3.74523a11.85008,11.85008,0,0,1-6.36818,1.504,17.58692,17.58692,0,0,1-8.161-2.70562l-68.916-39.78867q-4.52031-2.60982-4.75484-4.71469-.222-2.10107,2.57539-3.73043a11.91635,11.91635,0,0,1,6.45722-1.51875,17.81483,17.81483,0,0,1,8.18659,2.72038Z" style="fill:#e3e3e3"/><path d="M16.84651,246.34769c-.26959-.363-.5545-.7583-.84619-1.16919-.04754-.06689-.09417-.13184-.14221-.2-.28394-.40332-.57794-.8313-.87872-1.27857-.06031-.08959-.12128-.18115-.18219-.2727-.28571-.42871-.57587-.87085-.87329-1.33838l-.01551-.0249c-.28924-.45532-.5849-.9353-.88287-1.42676-.06848-.113-.137-.22607-.20587-.34082-.30133-.50293-.60559-1.021-.91278-1.56055-.04578-.08032-.092-.16455-.13782-.24585q-.41556-.73534-.83551-1.51635c-.06384-.11866-.12756-.23536-.19153-.35547q-.46288-.87012-.92694-1.79419c-.06421-.12793-.12836-.25952-.19257-.38892q-.42324-.85363-.84417-1.75049c-.04492-.09594-.09009-.18872-.13489-.2854-.30743-.66259-.61237-1.34668-.915-2.04467-.06976-.16089-.1391-.32373-.2085-.48633-.30871-.72388-.61541-1.45948-.916-2.22022-.49237-1.23877-.94855-2.4895-1.38532-3.74609-.07055-.20288-.14349-.405-.21258-.6084q-.61332-1.80542-1.14832-3.63477c-.06884-.23461-.13574-.46972-.20269-.70483-.35242-1.23706-.684-2.47974-.98389-3.73144-.03589-.14966-.06745-.30054-.1026-.45069q-.43-1.83508-.78534-3.69018c-.02631-.1377-.05609-.27442-.08179-.41211-.22241-1.19263-.41144-2.39356-.58716-3.59766-.07348-.50366-.13922-1.00879-.20452-1.51416q-.16947-1.31214-.30188-2.63257c-.051-.50732-.102-1.01465-.14478-1.52368-.0788-.93774-.13831-1.87939-.18933-2.82324-.02387-.44092-.0556-.88062-.07337-1.323-.05554-1.38184-.08844-2.76831-.08447-4.16138L.00032,233.85184c-.004,1.39331.02893,2.77954.08448,4.16138.01776.44238.04949.88208.07336,1.32324.051.9436.11053,1.88525.18933,2.823.04279.50927.09381,1.01635.14478,1.52368q.13266,1.32055.30188,2.63257c.0653.50537.131,1.0105.20452,1.51416.04145.28393.07135.5708.11542.85425.1427.918.30176,1.83227.47174,2.74365.0257.13769.05548.27417.08179.41186q.35476,1.85487.78534,3.69019c.03516.15015.06677.301.10266.45093.29974,1.25073.631,2.49292.98315,3.72876.06739.23681.13465.47314.204.70947q.53642,1.8263,1.1471,3.63086c.06958.20508.14313.40869.21423.61328.43646,1.25537.89228,2.50513,1.38422,3.74316.30115.76172.60821,1.49854.91748,2.22339.06854.16065.13672.32105.20563.47974.30316.69922.60864,1.38428.91662,2.04834.04468.09619.08948.188.13416.28369q.421.89868.845,1.7522c.06415.12939.12805.2605.19226.38842q.46389.924.92725,1.79444c.06353.11963.12658.23486.19006.35278q.42206.78442.84027,1.52515c.04431.07837.08862.15967.13287.2373.30841.54151.61365,1.061.91614,1.56592.06757.11279.13422.22266.20142.3335.29895.4934.59533.97461.88562,1.43115l.01532.02441c.29748.46778.58746.90967.87329,1.33887.032.04785.066.1023.09778.1499.02905.04322.05554.07959.08441.12256q.45172.672.87909,1.27905c.04767.06763.09314.13111.14032.19751.29229.41211.57757.80738.84771,1.17139l5.56018,7.49463.11554-40.75806Z" style="fill:url(#b)"/><path d="M438.85091,178.69681a732.59351,732.59351,0,0,1-108.938,50.4541q-22.22,8.10241-44.51166,14.47583A616.05148,616.05148,0,0,1,217.61074,258.972q-17.11231,2.85681-34.08509,4.65674a533.49865,533.49865,0,0,1-61.48889,3.0415,456.89854,456.89854,0,0,1-48.61957-3.01148C62.34291,262.35721,51.92873,260.68,42.47328,258.667c-2.47869-.52686-4.87384-1.07227-7.11731-1.63282l-12.94928-3.19165-.11554,40.75806,12.94928,3.19165c2.24347.56055,4.63862,1.106,7.11731,1.63281,9.45545,2.01294,19.86957,3.69019,30.94391,4.9917a456.89854,456.89854,0,0,0,48.61957,3.01148,533.49833,533.49833,0,0,0,61.48883-3.04151q16.95474-1.79589,34.08515-4.65674a615.93494,615.93494,0,0,0,67.7904-15.34521q22.27468-6.36621,44.51166-14.47559a732.59575,732.59575,0,0,0,108.93811-50.45434l23.05328-13.01221.11554-40.75806Z" style="fill:url(#c)"/></g></svg>