<svg xmlns="http://www.w3.org/2000/svg" xmlns:xlink="http://www.w3.org/1999/xlink" width="322.22333" height="445.68923" viewBox="0 0 322.22333 445.68923"><defs><linearGradient id="a" x1="0.07824" y1="222.229" x2="322.2094" y2="222.229" gradientUnits="userSpaceOnUse"><stop offset="0" stop-color="#007500"/><stop offset="1" stop-color="#008100"/></linearGradient><linearGradient id="b" y1="27.34826" x2="178.51703" y2="27.34826" gradientUnits="userSpaceOnUse"><stop offset="0" stop-color="#008100"/><stop offset="1" stop-color="#007500"/></linearGradient><linearGradient id="c" x1="264.11829" y1="165.66538" x2="264.11829" y2="432.98936" gradientUnits="userSpaceOnUse"><stop offset="0" stop-color="#060"/><stop offset="1" stop-color="#006900"/></linearGradient><linearGradient id="d" x1="143.27728" y1="108.51359" x2="322.22333" y2="108.51359" xlink:href="#a"/></defs><path d="M299.44893,149.99225l22.76047,15.66894-.40588,26.09461c-2.25258,134.14524-67.84264,259.9589-179.96344,252.376C30.39194,332.61325-2.1385,150.59669.19365,20.47913L35.22584,0,57.77759,10.42639c20.782,9.60974,40.2618,16.38959,57.90094,20.15009,18.228,3.88147,35.06456,4.65844,50.0356,2.30914l12.7959-2.004L191.57375,47.1983a578.61013,578.61013,0,0,0,56.07806,60.992A445.17967,445.17967,0,0,0,299.44893,149.99225Z" style="fill:url(#a)"/><g style="isolation:isolate"><path d="M205.00692,151.69009a490.64282,490.64282,0,0,0,56.74192,45.79639c-.92219,59.01955-8.76916,101.95252-20.01727,133.18579-8.78573,24.39434-19.64884,41.65991-30.96461,53.89448-16.96678,18.3565-34.97663,25.40416-48.6498,27.92974a74.10031,74.10031,0,0,1-16.57333,1.19717c-1.55381-.07441-2.83873-.19167-3.81058-.30428a244.30936,244.30936,0,0,1-17.27291-20.415A393.10858,393.10858,0,0,1,94.52609,347.371c-16.44854-29.09456-33.983-67.69364-47.364-116.4827C34.24909,183.825,25.21338,127.257,24.93507,60.72484,47.18016,71.00369,68.19908,78.392,87.8718,82.57768c20.10044,4.2861,38.797,5.23377,55.91748,2.55236A627.541,627.541,0,0,0,205.00692,151.69009ZM78.69359,209.30139l60.64229-3.72944-60.423-73.62651a23.78031,23.78031,0,0,0-4.89134-4.867q-2.56659-1.48182-4.4694-.39781-1.91118,1.07883-1.91705,4.10308a10.38278,10.38278,0,0,0,1.00423,4.52608,31.99572,31.99572,0,0,0,4.057,5.86213l40.5648,49.34576L72.5496,192.93853c-2.047.12576-3.404.51855-4.07695,1.166a4.49389,4.49389,0,0,0-1.02656,3.35291,14.27918,14.27918,0,0,0,6.3444,11.129,8.99133,8.99133,0,0,0,4.9031.71494m137.46529,123.074q1.9026-.90733,1.911-4.07013a11.91649,11.91649,0,0,0-1.91315-6.35092,17.55642,17.55642,0,0,0-6.39151-5.70352l-68.91642-39.78891q-4.52987-2.61532-6.46028-1.71647-1.9313.89079-1.94346,4.1243a11.742,11.742,0,0,0,1.91386,6.31555,17.91653,17.91653,0,0,0,6.449,5.6927l68.91642,39.78891q4.52985,2.61531,6.43456,1.70849"/><path d="M22.54486,30.90672,57.78465,10.42759c20.782,9.60974,40.26178,16.38858,57.90181,20.14264,18.228,3.88844,35.06369,4.66587,50.04165,2.31958L130.48832,53.36894c-14.978,2.34629-31.81361,1.56885-50.04165-2.31958C62.80664,47.29529,43.32685,40.51646,22.54486,30.90672Z" style="fill:none"/><path d="M165.72809,32.88981a110.29951,110.29951,0,0,1-12.22363,1.20453,150.30636,150.30636,0,0,1-37.818-3.52411c-17.64-3.75409-37.11987-10.5329-57.90185-20.14264L35.23981.00516,0,20.48429,22.54486,30.90671c20.782,9.60975,40.26172,16.38855,57.90186,20.14264a150.30444,150.30444,0,0,0,37.81787,3.52411,110.29837,110.29837,0,0,0,12.22375-1.20453l12.78894-2.007L178.517,30.88279Z" style="fill:url(#b)"/><path d="M241.253,412.51023l-35.2398,20.47914a108.6933,108.6933,0,0,0,25.139-20.413c13.86217-14.99,25.32061-34.89469,34.06177-59.15423,13.29085-36.90225,20.47312-84.4,21.36287-141.18243l35.23979-20.47913c-.88975,56.78246-8.072,104.28018-21.36287,141.18244-8.74116,24.25953-20.1996,44.16421-34.06178,59.15422A108.69264,108.69264,0,0,1,241.253,412.51023Z" style="fill:none"/><path d="M156.348,67.67468l35.23979-20.47912a578.55976,578.55976,0,0,0,56.078,60.99885,444.19033,444.19033,0,0,0,51.79714,41.79508l-35.23978,20.47912A444.18845,444.18845,0,0,1,212.426,128.67354,578.55891,578.55891,0,0,1,156.348,67.67468Z" style="fill:none"/><path d="M286.98358,186.14439l-.40674,26.09521c-.88977,56.78247-8.072,104.28027-21.36279,141.1825-8.74121,24.25952-20.19971,44.16418-34.06177,59.15417a108.69315,108.69315,0,0,1-25.139,20.41309l35.23987-20.47913a108.69757,108.69757,0,0,0,25.13892-20.413c13.86206-14.99012,25.32056-34.89478,34.06177-59.1543,13.29077-36.90234,20.47314-84.3999,21.36279-141.18237l.40674-26.09522Z" style="fill:url(#c)"/><path d="M299.46283,149.98948a441.399,441.399,0,0,1-48.09253-38.369q-1.85376-1.697-3.70459-3.426a578.568,578.568,0,0,1-56.07788-60.9989L178.517,30.88279,143.27728,51.36191,156.348,67.67466a578.555,578.555,0,0,0,56.078,60.99878q1.85083,1.72924,3.70459,3.426a441.38439,441.38439,0,0,0,48.09253,38.36914l22.7605,15.67579,35.23975-20.479Z" style="fill:url(#d)"/><path d="M264.22313,170.46861l22.76044,15.67588-.40673,26.09519c-.88975,56.78246-8.072,104.28018-21.36287,141.18243-8.74116,24.25954-20.1996,44.16421-34.06177,59.15423-15.83182,17.1228-34.45891,27.75966-55.38828,31.62266a88.27849,88.27849,0,0,1-19.867,1.40457c-1.70167-.07834-3.38239-.2113-4.98758-.39624l-9.26986-1.07531-9.23873-9.61063a297.324,297.324,0,0,1-21.24427-25.05152,453.27027,453.27027,0,0,1-34.519-52.54159C54.41123,317.61152,36.66643,274.09233,23.90584,227.573,8.3793,170.94625.36565,110.06.10444,46.61674L0,20.48432l22.54484,10.4224c20.782,9.60974,40.26178,16.38857,57.90181,20.14264,18.228,3.88843,35.06369,4.66587,50.04165,2.31958l12.789-2.007L156.348,67.67468a578.55891,578.55891,0,0,0,56.078,60.99886A444.18845,444.18845,0,0,0,264.22313,170.46861ZM241.73182,330.67213c11.24792-31.23313,19.09489-74.166,20.017-133.18613a490.62379,490.62379,0,0,1-56.74244-45.79633A627.6686,627.6686,0,0,1,143.789,85.12977c-17.12014,2.68076-35.81752,1.73357-55.9179-2.55279C68.19939,78.39173,47.17973,71.00365,24.93518,60.72475,25.21363,127.25673,34.249,183.825,47.16146,230.888c13.38154,48.78864,30.91585,87.3879,47.36446,116.48242a393.08787,393.08787,0,0,0,29.93466,45.60426,244.26034,244.26034,0,0,0,17.273,20.41479c.97108.11257,2.2567.22951,3.81021.304a74.18721,74.18721,0,0,0,16.57348-1.1971c13.67346-2.52592,31.68293-9.57329,48.64994-27.92958,11.31538-12.23454,22.17882-29.49953,30.96457-53.89464" style="fill:#00bd00"/></g><path d="M74.018,127.0716q1.58979.91786,4.8913,4.86683l60.41685,73.63019L78.69,209.30143a9.01331,9.01331,0,0,1-4.90308-.7145,12.49463,12.49463,0,0,1-4.463-4.76657,12.625,12.625,0,0,1-1.88129-6.36229,4.50708,4.50708,0,0,1,1.01994-3.35727c.67328-.64745,2.03654-1.03608,4.07695-1.1735l40.71814-2.40935L72.6862,141.16857a32.23821,32.23821,0,0,1-4.057-5.86215,10.36576,10.36576,0,0,1-.9976-4.5221q.00858-3.02642,1.911-4.10685C70.81084,125.95472,72.30058,126.08005,74.018,127.0716Z" style="fill:#efefef"/><path d="M209.755,316.24694a17.55678,17.55678,0,0,1,6.39177,5.70373,11.91675,11.91675,0,0,1,1.91333,6.35149q-.009,3.15835-1.91095,4.07008-1.90191.908-6.435-1.70911l-68.90959-39.785a17.96933,17.96933,0,0,1-6.45573-5.69669,11.7597,11.7597,0,0,1-1.91343-6.31477q.00918-3.23538,1.943-4.125,1.94025-.89691,6.467,1.72029Z" style="fill:#efefef"/></svg>