<?xml version="1.0" encoding="utf-8"?>
<!-- Generator: Adobe Illustrator 25.0.0, SVG Export Plug-In . SVG Version: 6.00 Build 0)  -->
<svg version="1.1" id="Text" xmlns="http://www.w3.org/2000/svg" xmlns:xlink="http://www.w3.org/1999/xlink" x="0px" y="0px"
	 viewBox="0 0 512 512" style="enable-background:new 0 0 512 512;" xml:space="preserve">
<style type="text/css">
	.st0{fill:#0600FF;}
	.st1{enable-background:new    ;}
	.st2{fill:#FFFFFF;}
</style>
<g>
	<path d="M256,497c-64.4,0-124.9-25.1-170.4-70.6S15,320.4,15,256S40.1,131.1,85.6,85.6S191.6,15,256,15s124.9,25.1,170.4,70.6
		S497,191.6,497,256s-25.1,124.9-70.6,170.4S320.4,497,256,497z"/>
	<path class="st0" d="M256,30c30.5,0,60.1,6,88,17.7c26.9,11.4,51.1,27.7,71.8,48.4c20.8,20.8,37.1,44.9,48.4,71.8
		c11.8,27.8,17.7,57.4,17.7,88s-6,60.1-17.7,88c-11.4,26.9-27.7,51.1-48.4,71.8c-20.8,20.8-44.9,37.1-71.8,48.4
		C316.1,476,286.5,482,256,482s-60.1-6-88-17.7c-26.9-11.4-51.1-27.7-71.8-48.4s-37.1-45-48.5-71.9C36,316.1,30,286.5,30,256
		s6-60.1,17.7-88c11.4-26.9,27.7-51.1,48.4-71.8c20.9-20.8,45-37.1,71.9-48.5C195.9,36,225.5,30,256,30 M256,0
		C114.6,0,0,114.6,0,256s114.6,256,256,256s256-114.6,256-256S397.4,0,256,0L256,0z"/>
</g>
<g class="st1">
	<path class="st2" d="M195.4,217.2l-83-46c-4.2-2.3-6.9-4.4-8.3-6.2c-1.4-1.8-2.1-4.2-2.1-7c0-3.6,1.3-6.7,3.9-9.2
		c2.6-2.6,5.6-3.9,9.1-3.9c2.2,0,5.5,1.2,10,3.6l123.6,68.8L125.1,286c-4.5,2.5-7.8,3.8-10,3.8c-3.5,0-6.5-1.3-9.1-3.9
		c-2.6-2.6-3.9-5.7-3.9-9.4c0-2.8,0.7-5.2,2.1-7c1.4-1.8,4.1-3.9,8.3-6.2L195.4,217.2z"/>
	<path class="st2" d="M392.9,367.1H252.2c-6.2,0-10.6-1.2-13.2-3.5c-2.6-2.3-3.9-5.4-3.9-9.2c0-3.8,1.3-6.9,3.9-9.3s7-3.6,13.2-3.6
		h140.8c6.1,0,10.4,1.2,13.1,3.6s3.9,5.5,3.9,9.3c0,3.8-1.3,6.8-3.9,9.2C403.5,365.9,399.1,367.1,392.9,367.1z"/>
</g>
</svg>
