<svg xmlns="http://www.w3.org/2000/svg" xmlns:xlink="http://www.w3.org/1999/xlink" width="461.90442" height="307.44639" viewBox="0 0 461.90442 307.44639"><defs><linearGradient id="a" x1="0.11745" y1="147.5461" x2="461.90027" y2="147.5461" gradientUnits="userSpaceOnUse"><stop offset="0" stop-color="#090"/><stop offset="1" stop-color="#007300"/></linearGradient><linearGradient id="b" x1="0.00002" y1="243.84693" x2="22.40606" y2="243.84693" gradientUnits="userSpaceOnUse"><stop offset="0" stop-color="#007200"/><stop offset="1" stop-color="#008300"/></linearGradient><linearGradient id="c" x1="22.29046" y1="236.56475" x2="461.90441" y2="236.56475" xlink:href="#a"/></defs><path d="M441.321,151.26455l20.57932,14.4166L438.847,178.69339c-50.17927,28.32514-101.8075,50.16994-153.44368,64.93351a604.01909,604.01909,0,0,1-101.87555,20.00193c-38.42181,4.07349-75.46008,4.08065-110.11533.026C62.339,262.3537,51.93081,260.673,42.47455,258.66757c-2.48388-.53094-4.8868-1.07987-7.12935-1.63279l-11.36443-2.81066-.49645,40.86644-1.07416-.26622-1.64956-2.46065-.07165-40.8432-3.84114-5.17215A82.2117,82.2117,0,0,1,6.6,227.6446,92.53108,92.53108,0,0,1,.13931,191.30945c.559-26.16063,11.44818-53.15495,32.37346-80.22674C57.97955,78.13144,98.3766,45.19508,152.57683,13.18721L174.897.00165,199.67444,11.72a498.23012,498.23012,0,0,0,69.33261,26.74321A454.45875,454.45875,0,0,0,341.9094,53.97444l20.87618,2.66117,5.51458,11.95819a183.42664,183.42664,0,0,0,31.45337,46.7818A250.11736,250.11736,0,0,0,441.321,151.26455Z" style="fill:url(#a)"/><g style="isolation:isolate"><path d="M234.39016,209.01593q4.46284,2.57663,4.66586,4.69979.19319,2.11788-2.60086,3.74522a11.82381,11.82381,0,0,1-6.37454,1.5003,17.55349,17.55349,0,0,1-8.15464-2.70192L153.01,176.47065q-4.52987-2.61533-4.755-4.71459c-.15421-1.40448.71068-2.64677,2.57557-3.73053a11.87057,11.87057,0,0,1,6.45721-1.51875,17.77394,17.77394,0,0,1,8.18642,2.72047Z" style="fill:#e3e3e3"/><path d="M368.85073,124.83286a276.16025,276.16025,0,0,0,45.52583,39.32078c-52.1586,29.43819-100.83548,48.79113-144.54229,61.28367a547.34555,547.34555,0,0,1-92.72175,18.24724c-41.194,4.36823-74.21286,2.75042-96.84487.10361-11.31634-1.33047-20.03093-2.9232-25.83527-4.15778-2.26278-.47547-4.08447-.90333-5.44218-1.23872a67.64148,67.64148,0,0,1-8.28263-15.23134,80.50526,80.50526,0,0,1-5.574-31.539c.41291-19.35271,7.37785-43.80708,29.32579-72.20583C85.62431,92.034,120.76342,60.97034,177.60069,27.407a537.798,537.798,0,0,0,75.38548,29.047,506.02836,506.02836,0,0,0,81.51122,17.32135A198.772,198.772,0,0,0,368.85073,124.83286Zm-238.6239-7.23124,93.98045,15.51079L197.11533,78.73027a9.393,9.393,0,0,0-3.13364-3.85217,14.27089,14.27089,0,0,0-12.75323.037,4.53171,4.53171,0,0,0-2.39105,2.55824c-.21767.91026.12067,2.28184,1.02875,4.12132l18.2664,36.46352-63.01708-10.45727a32.31677,32.31677,0,0,0-7.11243-.58587,10.44131,10.44131,0,0,0-4.41465,1.3968q-2.6737,1.5538-2.66435,3.74523c.00762,1.45993.87413,2.68728,2.58519,3.67516q1.58944.91767,6.71759,1.76941M230.081,218.96083a11.82057,11.82057,0,0,0,6.37393-1.50033q2.79752-1.62573,2.60121-3.74523-.20316-2.12312-4.66579-4.69962l-68.91642-39.78891a17.77325,17.77325,0,0,0-8.186-2.72037,11.8709,11.8709,0,0,0-6.45722,1.519c-1.865,1.08382-2.73013,2.326-2.57568,3.73039q.2218,2.10087,4.75464,4.71445l68.91642,39.78892a17.55085,17.55085,0,0,0,8.15491,2.70174"/><path d="M441.31819,151.2624l20.58623,14.4206-23.05933,13.00874c-50.17928,28.32514-101.8075,50.16994-153.44454,64.933A603.85376,603.85376,0,0,1,183.525,263.62668c-38.421,4.074-75.45922,4.08116-110.11447.02648-11.07346-1.30111-21.48764-2.97834-30.931-4.99123-2.48469-.52345-4.88762-1.07237-7.13623-1.62879L22.406,253.83348l-5.56012-7.48678A82.43726,82.43726,0,0,1,6.60324,227.647,92.4739,92.4739,0,0,1,.13741,191.30781c.55813-26.16113,11.44818-53.155,32.37346-80.22675C57.97765,78.12979,98.3747,45.19343,152.57493,13.18556L174.89512,0l24.78344,11.71485a497.45186,497.45186,0,0,0,69.32659,26.74671,454.45886,454.45886,0,0,0,72.90234,15.51123L362.78368,56.634l5.52063,11.96169a183.34372,183.34372,0,0,0,31.45338,46.7818A250.37779,250.37779,0,0,0,441.31819,151.2624ZM269.83422,225.437c43.707-12.49287,92.38374-31.84572,144.54181-61.28372a276.229,276.229,0,0,1-45.52581-39.3204A198.79686,198.79686,0,0,1,334.497,73.775a506.03909,506.03909,0,0,1-81.51071-17.32084A537.93112,537.93112,0,0,1,177.601,27.40734c-56.83794,33.56279-91.97676,64.627-113.14088,92.008-21.94914,28.39844-28.91355,52.85335-29.32632,72.206a80.49726,80.49726,0,0,0,5.5739,31.53858,67.69956,67.69956,0,0,0,8.28207,15.23182c1.35832.33515,3.18021.7627,5.44217,1.2382,5.80432,1.23521,14.51924,2.82753,25.83518,4.15811,22.63265,2.64668,55.65131,4.26487,96.84554-.10384A547.27333,547.27333,0,0,0,269.83422,225.437" style="fill:#00b300"/><path d="M193.98174,74.87839a9.39017,9.39017,0,0,1,3.13372,3.85209l27.09178,54.38258-93.98045-15.51114q-5.12134-.85147-6.71758-1.76938c-1.71108-.98789-2.57718-2.21532-2.58539-3.675s.88209-2.70947,2.66455-3.74532a10.44433,10.44433,0,0,1,4.415-1.397,32.33953,32.33953,0,0,1,7.11177.586l63.01719,10.45743-18.2661-36.46393c-.90778-1.83935-1.24626-3.21068-1.02861-4.12118a4.5316,4.5316,0,0,1,2.39106-2.55828,14.27069,14.27069,0,0,1,12.75308-.03691Z" style="fill:#e3e3e3"/><path d="M16.73036,287.10481A82.437,82.437,0,0,1,6.4877,268.40507,92.25663,92.25663,0,0,1,.00039,233.86035l.11554-40.75811A92.257,92.257,0,0,0,6.60324,227.647,82.43726,82.43726,0,0,0,16.84591,246.3467" style="fill:none"/><path d="M16.84594,246.34669c-.598-.80493-1.25372-1.72754-1.94879-2.76563A84.85083,84.85083,0,0,1,6.60326,227.647a91.08061,91.08061,0,0,1-5.374-19.7102A94.75745,94.75745,0,0,1,.116,193.1023L.00042,233.86036a94.75723,94.75723,0,0,0,1.11334,14.83447,91.07673,91.07673,0,0,0,5.374,19.71021,84.8506,84.8506,0,0,0,8.29388,15.93408c.69507,1.03833,1.35077,1.96069,1.94873,2.76562l5.56012,7.48682.1156-40.75806Z" style="fill:url(#b)"/><path d="M438.84509,178.69166A732.78075,732.78075,0,0,1,329.882,229.15675q-22.20539,8.09692-44.48144,14.468a616.999,616.999,0,0,1-67.817,15.34693q-17.09967,2.855-34.05847,4.655a533.71725,533.71725,0,0,1-61.46924,3.03735,457.61083,457.61083,0,0,1-48.64526-3.011c-11.07349-1.301-21.48755-2.97827-30.931-4.99121-2.48474-.52343-4.88764-1.07226-7.13623-1.62866L22.40606,253.8335l-.1156,40.75806,12.93726,3.19971c2.24865.55639,4.65155,1.10522,7.13623,1.62866,9.44342,2.01294,19.8576,3.69019,30.93109,4.99121a457.674,457.674,0,0,0,48.64526,3.01123,533.71537,533.71537,0,0,0,61.46912-3.0376q16.94073-1.79662,34.05847-4.655A616.99869,616.99869,0,0,0,285.285,284.38282q22.25884-6.36364,44.48144-14.46777a732.787,732.787,0,0,0,108.96314-50.46533l23.05932-13.00855.11548-40.75806Z" style="fill:url(#c)"/></g></svg>