<svg xmlns="http://www.w3.org/2000/svg" xmlns:xlink="http://www.w3.org/1999/xlink" viewBox="0 0 404.54 482.2"><defs><style>.cls-1{fill:#00c900;}.cls-2{isolation:isolate;}.cls-3{fill:#fff;}</style><symbol id="green-2" data-name="green" viewBox="0 0 404.54 482.2"><path d="M194.51,460.72a173.31,173.31,0,0,1-27.21-14.23,248,248,0,0,1-45.53-37.3C92,378.48,68.14,339.73,50.84,294,29.49,237.6,18.36,170.73,17.76,95.29l-.13-16,15.89-1.59c30.48-3,59.12-8.76,85.11-17A315.37,315.37,0,0,0,193.2,26.25l9-5.75,9.23,5.37a401,401,0,0,0,82.79,36.64,379.12,379.12,0,0,0,76.55,15.27l16.05,1.55-.23,16.12C385.58,163.79,376,225.24,358,278.1c-11.67,34.36-27,65.39-45.52,92.22-20.94,30.32-45.53,55-73.09,73.24A196.18,196.18,0,0,1,213.74,458c-2.12,1-4.2,1.89-6.19,2.68L201,463.34Z"/><path class="cls-1" d="M202.62,41A415.49,415.49,0,0,0,289,79.23a399,399,0,0,0,80,16c-1.06,72.94-11.94,131.07-27.64,177.27-12.27,36.09-27.49,64.92-43.36,87.91C274.27,394.85,249,416.22,229.72,429a178.34,178.34,0,0,1-23.32,13.18c-2.19,1-4,1.77-5.37,2.32a154.82,154.82,0,0,1-24.38-12.79A230.55,230.55,0,0,1,134.33,397c-23.26-24-48.09-58.88-67.12-109.17-18.35-48.51-31.3-111.4-31.95-192.7,31.34-3.13,61-9,88.65-17.73A331.17,331.17,0,0,0,202.62,41m-.86-41-18,11.5a297.47,297.47,0,0,1-70.43,32.55C88.5,51.92,61.06,57.39,31.78,60.32L0,63.49.26,95.43C.88,173,12.39,241.85,34.48,300.22c18.14,47.95,43.28,88.71,74.72,121.15A265.56,265.56,0,0,0,158,461.3,188.39,188.39,0,0,0,188,477l13,5.24,13-5.24c2.26-.9,4.63-1.93,7-3a213,213,0,0,0,28-15.76c29.44-19.54,55.62-45.74,77.83-77.9,19.45-28.16,35.49-60.64,47.69-96.53,18.56-54.59,28.48-117.85,29.5-188l.47-32.24-32.09-3.1a361.84,361.84,0,0,1-73.06-14.57,383.27,383.27,0,0,1-79.17-35L201.76,0Z"/><g id="logo" class="cls-2"><path class="cls-3" d="M160.08,191.65l-57.29-31.74c-2.87-1.61-4.79-3-5.73-4.32a7.8,7.8,0,0,1-1.43-4.83,8.68,8.68,0,0,1,2.68-6.38,8.58,8.58,0,0,1,6.29-2.68c1.5,0,3.8.84,6.91,2.5l85.32,47.45-85.32,47.46q-4.67,2.58-6.91,2.58A8.61,8.61,0,0,1,98.31,239a8.79,8.79,0,0,1-2.68-6.47,7.8,7.8,0,0,1,1.43-4.83c.94-1.27,2.86-2.71,5.73-4.32Z"/><path class="cls-3" d="M296.39,295.1H199.25q-6.39,0-9.1-2.42a8.1,8.1,0,0,1-2.72-6.38,8.23,8.23,0,0,1,2.72-6.43q2.72-2.46,9.1-2.46h97.14q6.3,0,9,2.46a8.9,8.9,0,0,1,0,12.77Q302.78,295.1,296.39,295.1Z"/></g></symbol></defs><g id="Layer_2" data-name="Layer 2"><g id="green"><use width="404.54" height="482.2" xlink:href="#green-2"/></g></g></svg>