<svg xmlns="http://www.w3.org/2000/svg" xmlns:xlink="http://www.w3.org/1999/xlink" width="461.90445" height="307.44593" viewBox="0 0 461.90445 307.44593"><defs><linearGradient id="a" x1="0.11105" y1="147.54711" x2="461.89387" y2="147.54711" gradientUnits="userSpaceOnUse"><stop offset="0" stop-color="#bf6300"/><stop offset="1" stop-color="#904b00"/></linearGradient><linearGradient id="b" y1="243.84517" x2="22.39993" y2="243.84517" gradientUnits="userSpaceOnUse"><stop offset="0" stop-color="#8b4800"/><stop offset="1" stop-color="#a75700"/></linearGradient><linearGradient id="c" x1="22.28445" y1="236.56272" x2="461.90445" y2="236.56272" xlink:href="#a"/></defs><path d="M441.31456,151.26556l20.57931,14.41659-23.05328,13.01224c-50.17927,28.32514-101.8075,50.16994-153.44367,64.93352a604.01905,604.01905,0,0,1-101.87555,20.00192c-38.42182,4.0735-75.46008,4.08066-110.11534.026-11.07345-1.30111-21.48161-2.98183-30.93788-4.98723-2.48387-.53094-4.8868-1.07987-7.12935-1.63279l-11.36443-2.81066-.49644,40.86644-1.07417-.26622L20.7542,292.3647l-.07165-40.8432-3.84113-5.17215A82.21227,82.21227,0,0,1,6.59355,227.64561,92.53111,92.53111,0,0,1,.13292,191.31046c.559-26.16063,11.44818-53.155,32.37345-80.22675C57.97315,78.13244,98.3702,45.19609,152.57043,13.18821L174.89063.00265,199.66805,11.721a498.22762,498.22762,0,0,0,69.33261,26.74321A454.45777,454.45777,0,0,0,341.903,53.97544l20.87619,2.66117,5.51457,11.9582a183.42669,183.42669,0,0,0,31.45338,46.7818A250.11829,250.11829,0,0,0,441.31456,151.26556Z" style="fill:url(#a)"/><g style="isolation:isolate"><path d="M193.98187,74.87479a9.38837,9.38837,0,0,1,3.13373,3.85209L224.201,133.11315l-93.97408-15.51483q-5.131-.846-6.71758-1.76938-2.56662-1.48184-2.5789-3.6715c-.01454-1.46338.86923-2.70932,2.65806-3.74887a10.38886,10.38886,0,0,1,4.42147-1.3934,32.03648,32.03648,0,0,1,7.10545.58238l63.01065,10.46123L179.86635,81.59116q-1.36142-2.75917-1.02229-4.11754a4.489,4.489,0,0,1,2.38474-2.56193,14.30182,14.30182,0,0,1,12.75307-.0369Z" style="fill:#e3e3e3"/><path d="M441.31819,151.25891l20.58624,14.42059-23.05328,13.01224c-50.18533,28.32164-101.81356,50.16644-153.4506,64.92952A603.88665,603.88665,0,0,1,183.525,263.62318c-38.42009,4.0735-75.45831,4.08865-110.10755.03048-11.08038-1.30511-21.49455-2.98234-30.94394-4.99173-2.47868-.52695-4.88074-1.07637-7.13108-1.63279L22.4,253.83348l-5.55324-7.49078A82.03139,82.03139,0,0,1,6.60411,227.643,92.45481,92.45481,0,0,1,.13742,191.30431c.55812-26.16113,11.44818-53.15495,32.37345-80.22674C57.98371,78.12979,98.37556,45.18944,152.57493,13.18206L174.90118,0l24.77137,11.71485a498.22762,498.22762,0,0,0,69.33261,26.74321,455.23973,455.23973,0,0,0,72.90238,15.51823L362.77767,56.634l5.52665,11.95819A183.33011,183.33011,0,0,0,399.75769,115.374,250.02939,250.02939,0,0,0,441.31819,151.25891Zm-171.484,74.1746c43.707-12.49287,92.38375-31.84571,144.54181-61.28372a276.22438,276.22438,0,0,1-45.52494-39.3209A198.86123,198.86123,0,0,1,334.497,73.77149a506.03872,506.03872,0,0,1-81.5107-17.32083,537.81867,537.81867,0,0,1-75.3844-29.04732c-56.83879,33.56329-91.97675,64.627-113.14173,92.00852-21.94915,28.39843-28.91269,52.85284-29.31941,72.209a80.25473,80.25473,0,0,0,5.567,31.53558,67.80391,67.80391,0,0,0,8.28293,15.23132c1.35745.33564,3.17935.7632,5.4422,1.24619,5.80342,1.22771,14.51835,2.82,25.83428,4.15062,22.63871,2.65017,55.65737,4.26836,96.84554-.10384a547.30635,547.30635,0,0,0,92.72157-18.24719" style="fill:#e07500"/><path d="M234.39047,209.01222q4.47246,2.58217,4.66569,4.69989.19344,2.11775-2.60086,3.74523a11.84991,11.84991,0,0,1-6.36813,1.504,17.58708,17.58708,0,0,1-8.161-2.70563l-68.916-39.78867q-4.52987-2.61532-4.75484-4.71469-.222-2.101,2.57539-3.73042a11.91649,11.91649,0,0,1,6.45721-1.51875,17.77413,17.77413,0,0,1,8.18659,2.72037Z" style="fill:#e3e3e3"/><path d="M368.85061,124.82931A276.21135,276.21135,0,0,0,414.377,164.14975c-52.15919,29.43854-100.83548,48.79113-144.54288,61.284A547.3881,547.3881,0,0,1,177.113,243.68135c-41.188,4.37168-74.20689,2.75387-96.84547.10327-11.31634-1.33048-20.03093-2.92321-25.83523-4.15019-2.26163-.48307-4.08451-.91093-5.44222-1.24631a67.88638,67.88638,0,0,1-8.282-15.231,80.24816,80.24816,0,0,1-5.56743-31.53586c.40633-19.3565,7.37068-43.81052,29.31862-72.20927C85.62479,92.0308,120.7633,60.9668,177.60176,27.40346a537.6998,537.6998,0,0,0,75.38429,29.047,506.02943,506.02943,0,0,0,81.51122,17.32135A198.88376,198.88376,0,0,0,368.85061,124.82931Zm-238.6239-7.23123L224.20122,133.113,197.11581,78.72638a9.39191,9.39191,0,0,0-3.13424-3.85182,14.3034,14.3034,0,0,0-12.75263.03663,4.48523,4.48523,0,0,0-2.38448,2.562q-.33636,1.36073,1.02217,4.11753l18.25927,36.46765-63.01054-10.46106a32.01468,32.01468,0,0,0-7.10526-.58242,10.38506,10.38506,0,0,0-4.42182,1.39335q-2.68261,1.559-2.65778,3.749.01232,2.18937,2.57862,3.67136,1.58944.91767,6.71759,1.76941m99.86075,101.363a11.84914,11.84914,0,0,0,6.36736-1.50412q2.79751-1.62575,2.60121-3.74523-.19331-2.11743-4.6652-4.7L165.475,169.2232a17.77719,17.77719,0,0,0-8.18719-2.72037,11.91686,11.91686,0,0,0-6.45722,1.519q-2.79663,1.6252-2.57509,3.73.22092,2.10138,4.75465,4.71515L221.926,216.25555a17.5913,17.5913,0,0,0,8.16148,2.70553"/><path d="M16.84671,246.3426c-.60327-.81176-1.26563-1.74316-1.968-2.792A84.34122,84.34122,0,0,1,6.604,227.6429,91.05741,91.05741,0,0,1,1.22916,207.932,94.74561,94.74561,0,0,1,.116,193.09871L.0004,233.85676A94.74694,94.74694,0,0,0,1.11355,248.69a91.06423,91.06423,0,0,0,5.375,19.71118,84.33153,84.33153,0,0,0,8.27466,15.90747c.70227,1.04907,1.36463,1.98022,1.968,2.79223l5.55322,7.49073.11548-40.7583Z" style="fill:url(#b)"/><path d="M438.8511,178.69172a733.22846,733.22846,0,0,1-108.96386,50.45972q-22.20813,8.098-44.4867,14.46973a616.99233,616.99233,0,0,1-67.81885,15.34717q-17.09894,2.8546-34.05676,4.65478a534.08442,534.08442,0,0,1-61.50464,3.04077,456.73624,456.73624,0,0,1-48.60278-3.01025c-11.08044-1.30518-21.49463-2.98242-30.944-4.9917-2.47864-.52686-4.88074-1.07642-7.1311-1.63281l-12.94251-3.1958-.11548,40.7583,12.94239,3.19555c2.25036.5564,4.65246,1.106,7.1311,1.63282,9.44946,2.00952,19.86353,3.68676,30.944,4.99169a456.73388,456.73388,0,0,0,48.6029,3.01026,534.0893,534.0893,0,0,0,61.50464-3.04077q16.93983-1.79626,34.05664-4.65479a616.97757,616.97757,0,0,0,67.81885-15.34717q22.26161-6.36438,44.48682-14.46972a733.2089,733.2089,0,0,0,108.96387-50.45972l23.05322-13.01221.1156-40.758Z" style="fill:url(#c)"/></g></svg>