<?xml version="1.0" encoding="utf-8"?>
<!-- Generator: Adobe Illustrator 24.2.3, SVG Export Plug-In . SVG Version: 6.00 Build 0)  -->
<svg version="1.1" id="Layer_1" xmlns="http://www.w3.org/2000/svg" xmlns:xlink="http://www.w3.org/1999/xlink" x="0px" y="0px"
	 viewBox="0 0 1856.7 512" style="enable-background:new 0 0 1856.7 512;" xml:space="preserve">
<style type="text/css">
	.st0{fill:none;}
	.st1{fill:#FFFFFF;}
	.st2{fill:#FF0000;}
</style>
<symbol  id="Prompt" viewBox="-241 -241 482 482">
	<rect x="-241" y="-241" class="st0" width="482" height="482"/>
	<path class="st1" d="M-60.6-38.2l-83-46c-4.2-2.3-6.9-4.4-8.3-6.2c-1.5-2-2.2-4.5-2.1-7c0.1-7.1,5.9-12.9,13-13.1
		c2.2,0,5.5,1.2,10,3.6L-7.4-38.1L-131,30.7c-4.5,2.5-7.8,3.8-10,3.8c-3.4,0-6.7-1.4-9.1-3.9c-2.5-2.5-4-5.9-3.9-9.4
		c-0.1-2.5,0.6-5,2.1-7c1.4-1.8,4.1-3.9,8.3-6.2L-60.6-38.2z"/>
	<path class="st1" d="M136.9,111.6H-3.8c-6.2,0-10.6-1.2-13.2-3.5c-2.6-2.3-4-5.7-3.9-9.2c-0.1-3.5,1.3-6.9,3.9-9.3
		c2.6-2.4,7-3.6,13.2-3.6H137c6.1,0,10.4,1.2,13.1,3.6c2.6,2.4,4.1,5.8,3.9,9.3c0.1,3.5-1.3,6.9-3.9,9.2
		C147.5,110.4,143.1,111.6,136.9,111.6z"/>
</symbol>
<symbol  id="Text_Dark" viewBox="-378.3 -74.2 756.6 148.4">
	<g>
		<path class="st1" d="M-311.4,2.2c-2,0.9-3.8,1.7-5.4,2.4c-2.1,0.9-4.2,1.7-6.3,2.4c-2.4,0.7-4.8,1.3-7.2,1.8
			c-2.8,0.5-5.7,0.8-8.5,0.7c-5.4,0.1-10.8-0.8-16-2.5c-4.7-1.6-9-4.2-12.5-7.7c-3.6-3.7-6.4-8.2-8.1-13.1c-2.1-5.9-3-12.2-2.9-18.4
			c-0.1-6.1,0.9-12.1,2.8-17.8c1.7-5,4.5-9.5,8.1-13.3c3.5-3.5,7.8-6.3,12.4-8c5.2-1.9,10.7-2.8,16.2-2.8c4.4,0,8.7,0.5,13,1.6
			c5,1.3,9.8,3.2,14.4,5.5v12.7h-0.8c-3.9-3.4-8.4-6.2-13.2-8.1c-4.5-1.7-9.2-2.6-14-2.5c-3.8,0-7.5,0.6-11,2
			c-3.4,1.4-6.4,3.5-8.8,6.2c-2.6,3-4.6,6.5-5.8,10.3c-1.5,4.6-2.2,9.5-2.1,14.3c-0.1,5,0.7,9.9,2.3,14.6c1.3,3.7,3.3,7.1,5.9,10
			c2.5,2.6,5.5,4.7,8.9,5.9c3.4,1.3,7,2,10.7,1.9c5,0,9.9-0.9,14.5-2.7c4.7-1.9,9-4.6,12.7-8h0.8V2.2z"/>
		<path class="st1" d="M-245.4-22.2c0,9.9-2.5,17.6-7.6,23.4c-5.1,5.7-11.8,8.6-20.3,8.6c-8.6,0-15.4-2.9-20.4-8.6
			c-5-5.7-7.6-13.5-7.6-23.4s2.5-17.7,7.6-23.4c5-5.7,11.8-8.6,20.4-8.6c8.5,0,15.3,2.9,20.3,8.6S-245.4-32.1-245.4-22.2z
			 M-255.9-22.2c0-7.8-1.5-13.7-4.6-17.5c-3.1-3.8-7.3-5.7-12.8-5.7c-5.5,0-9.8,1.9-12.9,5.7c-3.1,3.8-4.6,9.6-4.6,17.5
			c0,7.6,1.5,13.3,4.6,17.3c3.1,3.9,7.4,5.9,12.9,5.9c5.4,0,9.7-1.9,12.8-5.8C-257.5-8.8-255.9-14.6-255.9-22.2z"/>
		<path class="st1" d="M-179,8h-10.2v-34.5c0-2.6-0.2-5.2-0.5-7.8c-0.2-2-0.8-4-1.8-5.7c-0.9-1.5-2.3-2.7-3.9-3.4
			c-2.1-0.8-4.4-1.2-6.6-1.1c-3,0.1-6,0.8-8.7,2.1c-3.1,1.4-6,3.2-8.7,5.3V8h-10.2v-60.5h10.2v6.7c3-2.5,6.3-4.6,9.9-6.2
			c3.3-1.5,6.9-2.2,10.5-2.2c6.5,0,11.5,2,15,5.9c3.5,3.9,5.2,9.6,5.1,17L-179,8z"/>
		<path class="st1" d="M-128,7.5c-2.1,0.5-4.2,1-6.3,1.3c-2,0.3-4,0.5-6,0.5c-6.2,0-10.9-1.7-14.1-5c-3.2-3.3-4.8-8.7-4.8-16v-32.2
			h-6.9v-8.6h6.9v-17.4h10.2v17.4h21v8.6h-21v27.6c0,3.2,0.1,5.7,0.2,7.4c0.1,1.8,0.7,3.5,1.5,5c0.7,1.4,1.9,2.5,3.3,3.2
			c2,0.8,4.2,1.1,6.4,1c1.8,0,3.5-0.3,5.2-0.7c1.3-0.3,2.6-0.7,3.8-1.2h0.5L-128,7.5z"/>
		<path class="st1" d="M-68.6,8h-10.1V1.6c-0.9,0.6-2.1,1.5-3.7,2.6c-1.4,1-2.9,1.9-4.5,2.6c-1.9,0.9-3.8,1.6-5.9,2.1
			c-2.5,0.6-5.1,0.9-7.8,0.8c-5.2,0.1-10.2-1.8-13.9-5.4c-3.8-3.6-5.9-8.6-5.7-13.8c0-4.6,1-8.3,3-11.1c2.1-3,5-5.3,8.4-6.7
			c4.2-1.8,8.7-2.9,13.3-3.3c5.2-0.6,10.7-1,16.6-1.3v-1.6c0.1-2-0.3-4-1.2-5.7c-0.8-1.5-2-2.7-3.5-3.5c-1.6-0.9-3.4-1.5-5.2-1.7
			c-2.1-0.3-4.2-0.4-6.3-0.4c-3,0-6,0.4-8.9,1.1c-3.5,0.8-6.9,1.8-10.2,3.1h-0.5v-10.4c2-0.5,4.9-1.1,8.6-1.8c3.7-0.7,7.4-1,11.1-1
			c3.7-0.1,7.5,0.3,11.1,1c3,0.6,5.8,1.8,8.2,3.6c2.3,1.7,4.1,3.9,5.2,6.5c1.3,3.1,1.9,6.5,1.8,9.8V8z M-78.7-6.8v-16.9
			c-3.1,0.2-6.8,0.4-11,0.8c-3.4,0.2-6.7,0.8-10,1.6c-2.7,0.7-5.1,2-7.1,3.9c-1.9,1.9-2.8,4.6-2.7,7.2c0,3.5,1,6.1,3.1,7.8
			s5.3,2.6,9.6,2.6c3.4,0.1,6.7-0.6,9.8-2C-84.1-3.2-81.3-4.9-78.7-6.8z"/>
		<path class="st1" d="M-38-62.6h-11.5v-10.6H-38V-62.6z M-38.7,8h-10.2v-60.5h10.2V8z"/>
		<path class="st1" d="M32.1,8H21.9v-34.5c0-2.6-0.2-5.2-0.5-7.8c-0.2-2-0.8-4-1.8-5.7c-0.9-1.5-2.3-2.7-3.9-3.4
			c-2.1-0.8-4.4-1.2-6.6-1.1c-3,0.1-6,0.8-8.7,2.1c-3.1,1.4-6,3.2-8.7,5.3V8h-10.2v-60.5h10.2v6.7c3-2.5,6.3-4.6,9.9-6.2
			c3.3-1.5,6.9-2.2,10.5-2.2c6.5,0,11.5,2,15,5.9c3.5,3.9,5.2,9.6,5.1,17L32.1,8z"/>
		<path class="st1" d="M102.4-21.2H57.8c-0.1,3.3,0.5,6.6,1.7,9.7c2,5.1,6.1,9,11.3,10.7c2.8,0.9,5.6,1.3,8.5,1.3
			c4.3,0,8.5-0.9,12.4-2.5c4.2-1.7,7.1-3.3,8.9-4.9h0.5V4.3C97.8,5.8,94.3,7,90.7,8C87,9,83.3,9.4,79.5,9.4c-10,0-17.9-2.7-23.5-8.2
			c-5.6-5.4-8.5-13.2-8.5-23.2c0-9.9,2.7-17.8,8.1-23.6c5.4-5.8,12.5-8.7,21.3-8.7c8.2,0,14.5,2.4,18.9,7.2
			c4.4,4.8,6.6,11.5,6.6,20.3L102.4-21.2z M92.5-29c0-5.3-1.4-9.5-4-12.4c-2.6-2.9-6.7-4.4-12.1-4.4c-5.5,0-9.8,1.6-13,4.8
			c-3.2,3.2-5.2,7.5-5.5,12H92.5z"/>
		<path class="st1" d="M155.6-41.4h-0.5c-1.5-0.3-2.9-0.6-4.4-0.8c-1.7-0.2-3.4-0.3-5.1-0.3c-3.2,0-6.3,0.7-9.1,2.1
			c-3,1.5-5.9,3.3-8.5,5.4V8h-10.2v-60.6H128v8.9c3.3-2.7,6.9-5.1,10.7-6.9c3-1.3,6.2-2,9.5-2c1.3,0,2.6,0,3.8,0.1
			c0.8,0.1,2,0.3,3.6,0.5V-41.4z"/>
		<path class="st1" d="M224.7-15c0,3.2-0.8,6.4-2.2,9.3c-1.4,3-3.5,5.7-6.2,7.8c-3,2.4-6.4,4.2-10.1,5.4c-4.5,1.4-9.2,2.1-13.9,2
			C187,9.6,181.8,9,176.6,7.9c-4.9-1.2-9.6-2.8-14.1-4.9v-13.5h0.8c4.2,3.5,9,6.1,14.1,7.9c4.8,1.8,9.9,2.7,15.1,2.8
			c6.7,0,11.8-1.2,15.5-3.7c3.5-2.1,5.6-5.9,5.5-10c0-3.6-0.9-6.2-2.6-7.9c-1.8-1.7-4.4-3-8-4c-2.9-0.8-5.8-1.4-8.8-1.8
			c-3.2-0.5-6.5-1.1-10-1.8c-7.1-1.5-12.4-4.1-15.9-7.8c-3.5-3.7-5.2-8.4-5.2-14.3c0-6.8,2.9-12.3,8.6-16.6s13-6.5,21.7-6.5
			c5.2,0,10.5,0.5,15.6,1.6c4.3,0.9,8.5,2.3,12.6,4v12.7h-0.8c-3.6-2.9-7.7-5.1-12.1-6.5c-5-1.7-10.2-2.6-15.4-2.5
			c-5.7,0-10.4,1.2-13.8,3.6c-3.5,2.4-5.2,5.5-5.2,9.2c0,3.4,0.9,6,2.6,7.9s4.8,3.3,9.2,4.3c2.3,0.5,5.6,1.1,9.9,1.8
			s7.9,1.5,10.8,2.2c6,1.6,10.5,4,13.5,7.2C223.1-25.3,224.7-20.8,224.7-15z"/>
		<path class="st1" d="M299.4-15c0,3.2-0.8,6.4-2.2,9.3c-1.4,3-3.5,5.7-6.2,7.8c-3,2.4-6.4,4.2-10.1,5.4c-4.5,1.4-9.2,2.1-13.9,2
			c-5.3,0.1-10.5-0.5-15.7-1.6c-4.9-1.2-9.6-2.8-14.2-4.8v-13.5h0.8c4.2,3.5,9,6.1,14.2,7.9c4.8,1.8,9.9,2.7,15.1,2.8
			c6.7,0,11.8-1.2,15.5-3.7c3.5-2.1,5.6-5.9,5.5-10c0-3.6-0.9-6.2-2.6-7.9c-1.8-1.7-4.4-3-8-4c-2.9-0.8-5.8-1.4-8.8-1.8
			c-3.2-0.5-6.5-1.1-10-1.8c-7.2-1.5-12.5-4.1-15.9-7.8c-3.4-3.7-5.2-8.4-5.2-14.3c0-6.8,2.9-12.3,8.6-16.6c5.7-4.3,13-6.5,21.7-6.5
			c5.2,0,10.5,0.5,15.6,1.6c4.3,0.9,8.5,2.3,12.6,4v12.8h-0.8c-3.6-2.9-7.7-5.1-12.1-6.5c-5-1.7-10.2-2.6-15.4-2.5
			c-5.7,0-10.4,1.2-13.8,3.6c-3.5,2.4-5.2,5.5-5.2,9.2c0,3.4,0.9,6,2.6,7.9s4.8,3.4,9.2,4.4c2.3,0.5,5.6,1.1,9.9,1.8
			s7.9,1.5,10.8,2.2c6,1.6,10.5,4,13.5,7.2S299.3-20.8,299.4-15z"/>
		<path class="st1" d="M378.3,8h-10.7v-39.5h-40.3V8h-10.7v-80.7h10.7V-41h40.3v-31.7h10.7V8z"/>
	</g>
	<g>
		<path class="st1" d="M-353.3,73.4h-23.2V37.1h4.9v32h18.3V73.4z"/>
		<path class="st1" d="M-327.4,73.4h-4.6v-2.9c-0.4,0.3-1,0.7-1.7,1.2c-0.6,0.5-1.3,0.9-2,1.2c-0.9,0.4-1.7,0.7-2.7,0.9
			c-1.2,0.3-2.3,0.4-3.5,0.4c-2.3,0-4.6-0.8-6.3-2.4c-1.7-1.6-2.7-3.9-2.6-6.2c-0.1-1.8,0.4-3.5,1.4-5c1-1.3,2.3-2.4,3.8-3
			c1.9-0.8,3.9-1.3,6-1.5c2.4-0.3,4.9-0.5,7.6-0.6v-0.7c0-0.9-0.2-1.8-0.6-2.6c-0.4-0.7-0.9-1.2-1.6-1.6c-0.7-0.4-1.5-0.7-2.4-0.8
			c-1-0.1-1.9-0.2-2.9-0.2c-1.4,0-2.7,0.2-4.1,0.5c-1.6,0.3-3.1,0.8-4.6,1.4h-0.2v-4.7c0.9-0.3,2.2-0.5,3.9-0.8
			c1.7-0.3,3.4-0.4,5-0.4c1.7,0,3.4,0.1,5.1,0.5c1.3,0.3,2.6,0.8,3.7,1.6c1,0.7,1.9,1.7,2.4,2.9c0.6,1.4,0.9,2.9,0.8,4.4
			L-327.4,73.4z M-332,66.7v-7.6c-1.4,0.1-3.1,0.2-5,0.4c-1.5,0.1-3,0.3-4.5,0.7c-1.2,0.3-2.3,0.9-3.2,1.7c-1.7,2-1.6,4.9,0.2,6.8
			c1.3,0.9,2.8,1.3,4.4,1.2c1.5,0,3.1-0.3,4.5-0.9C-334.4,68.3-333.2,67.6-332,66.7z"/>
		<path class="st1" d="M-295.6,73.4h-4.6v-3c-1.4,1.1-2.9,2-4.5,2.8c-1.5,0.7-3.1,1-4.8,1c-2.5,0.1-5-0.8-6.8-2.6
			c-1.6-1.8-2.4-4.3-2.4-7.7V46.2h4.6v15.5c0,1.2,0.1,2.4,0.2,3.6c0.1,0.9,0.4,1.8,0.8,2.5c0.4,0.7,1,1.2,1.7,1.6
			c1,0.4,2,0.5,3.1,0.5c1.4,0,2.7-0.4,3.9-0.9c1.4-0.6,2.8-1.4,4-2.4V46.2h4.6L-295.6,73.4z"/>
		<path class="st1" d="M-263.5,73.4h-4.6V57.9c0-1.2-0.1-2.4-0.2-3.5c-0.1-0.9-0.4-1.8-0.8-2.6c-0.4-0.7-1-1.2-1.8-1.5
			c-1-0.4-2-0.5-3-0.5c-1.4,0-2.7,0.3-4,0.9c-1.4,0.6-2.8,1.4-4,2.4v20.4h-4.6V46.2h4.6v3c1.4-1.1,2.9-2.1,4.5-2.8
			c1.5-0.7,3.1-1,4.8-1c3,0,5.3,0.9,6.8,2.7c1.6,1.8,2.3,4.3,2.3,7.7L-263.5,73.4z"/>
		<path class="st1" d="M-234.2,71.7c-1.4,0.7-2.9,1.3-4.4,1.7c-1.4,0.4-2.9,0.6-4.4,0.6c-1.9,0-3.7-0.3-5.5-0.9
			c-1.6-0.5-3.1-1.4-4.3-2.6c-1.3-1.2-2.2-2.8-2.8-4.4c-0.7-2-1-4.1-1-6.3c0-4.5,1.2-8,3.7-10.5c2.6-2.6,6.2-4,9.8-3.8
			c1.6,0,3.1,0.2,4.6,0.6c1.4,0.4,2.8,1,4.2,1.6v5.1h-0.3c-1.3-1-2.8-1.9-4.4-2.5c-1.4-0.6-2.9-0.9-4.4-0.9
			c-2.4-0.1-4.7,0.9-6.2,2.7c-1.5,1.8-2.3,4.3-2.3,7.7c0,3.4,0.7,5.9,2.2,7.6c1.6,1.8,3.9,2.8,6.3,2.6c1,0,1.9-0.1,2.9-0.4
			c0.9-0.2,1.8-0.6,2.6-1c0.6-0.3,1.3-0.7,1.9-1.1c0.5-0.3,1-0.6,1.4-1h0.3V71.7z"/>
		<path class="st1" d="M-205.2,73.4h-4.6V57.9c0-1.2-0.1-2.4-0.2-3.5c-0.1-0.9-0.4-1.8-0.8-2.6c-0.4-0.7-1-1.2-1.8-1.5
			c-1-0.4-2-0.5-3-0.5c-1.4,0-2.7,0.3-4,0.9c-1.4,0.6-2.8,1.4-4,2.4v20.4h-4.6v-38h4.6v13.8c1.4-1.1,2.9-2.1,4.5-2.8
			c1.5-0.7,3.1-1,4.8-1c2.6-0.2,5,0.8,6.8,2.7c1.6,1.8,2.3,4.3,2.3,7.7V73.4z"/>
		<path class="st1" d="M-158.1,71.7c-1.4,0.7-2.9,1.3-4.4,1.7c-1.4,0.4-2.9,0.6-4.4,0.6c-1.9,0-3.7-0.3-5.5-0.9
			c-1.6-0.5-3.1-1.4-4.3-2.6c-1.3-1.3-2.2-2.8-2.8-4.4c-0.7-2-1-4.1-1-6.3c0-4.5,1.2-8,3.7-10.5c2.6-2.6,6.1-4,9.8-3.8
			c1.6,0,3.1,0.2,4.6,0.6c1.4,0.4,2.8,1,4.2,1.6v5.1h-0.3c-1.3-1-2.8-1.9-4.4-2.5c-1.4-0.6-2.9-0.9-4.4-0.9
			c-2.4-0.1-4.7,0.8-6.2,2.6c-1.5,1.8-2.3,4.3-2.3,7.7c0,3.4,0.7,5.9,2.2,7.6c1.6,1.8,3.9,2.8,6.3,2.6c1,0,1.9-0.1,2.9-0.4
			c0.9-0.2,1.8-0.6,2.6-1c0.7-0.3,1.3-0.7,1.9-1.1c0.6-0.4,1.1-0.7,1.4-1h0.3L-158.1,71.7z"/>
		<path class="st1" d="M-128.7,59.8c0,4.4-1.2,7.9-3.5,10.5c-5,5.1-13.3,5.2-18.4,0.1c0,0-0.1-0.1-0.1-0.1
			c-2.3-2.6-3.4-6.1-3.4-10.5s1.2-8,3.4-10.5c5-5.1,13.3-5.2,18.4-0.1c0,0,0.1,0.1,0.1,0.1C-129.9,51.9-128.7,55.4-128.7,59.8z
			 M-133.5,59.8c0-3.5-0.7-6.2-2.1-7.9c-3-3.2-8-3.4-11.2-0.5c-0.2,0.2-0.3,0.3-0.5,0.5c-1.4,1.7-2.1,4.3-2.1,7.9
			c0,3.4,0.7,6,2.1,7.8c2.8,3.2,7.7,3.5,11,0.7c0.2-0.2,0.5-0.5,0.7-0.7C-134.2,65.8-133.5,63.3-133.5,59.8L-133.5,59.8z"/>
		<path class="st1" d="M-98.5,73.4h-4.6V57.9c0-1.2-0.1-2.4-0.2-3.5c-0.1-0.9-0.4-1.8-0.8-2.6c-0.4-0.7-1-1.2-1.8-1.5
			c-1-0.4-2-0.5-3-0.5c-1.4,0-2.7,0.3-4,0.9c-1.4,0.6-2.8,1.4-4,2.4v20.4h-4.5V46.2h4.6v3c1.4-1.1,2.9-2.1,4.5-2.8
			c1.5-0.7,3.1-1,4.8-1c3,0,5.3,0.9,6.8,2.7c1.6,1.8,2.3,4.3,2.3,7.7L-98.5,73.4z"/>
		<path class="st1" d="M-75.3,73.2c-0.9,0.2-1.9,0.4-2.9,0.6c-0.9,0.1-1.8,0.2-2.8,0.2c-2.8,0-4.9-0.8-6.4-2.3s-2.2-3.9-2.2-7.2V50
			h-3.1v-3.8h3.1v-7.8h4.6v7.8h9.6V50h-9.6v12.4c0,1.4,0,2.6,0.1,3.4c0.1,0.8,0.3,1.6,0.7,2.3c0.3,0.6,0.9,1.1,1.5,1.4
			c0.9,0.4,1.9,0.5,2.9,0.4c0.8,0,1.6-0.1,2.4-0.3c0.6-0.1,1.2-0.3,1.8-0.6h0.3L-75.3,73.2z"/>
		<path class="st1" d="M-48.2,73.4h-4.6v-2.9c-0.4,0.3-1,0.7-1.7,1.2c-0.6,0.5-1.3,0.9-2,1.2c-0.9,0.4-1.7,0.7-2.7,0.9
			c-1.2,0.3-2.3,0.4-3.5,0.4c-2.3,0-4.6-0.8-6.3-2.4c-1.7-1.6-2.7-3.9-2.6-6.2c-0.1-1.8,0.4-3.5,1.3-5c1-1.3,2.3-2.4,3.8-3
			c1.9-0.8,3.9-1.3,6-1.5c2.4-0.3,4.9-0.5,7.6-0.6v-0.7c0-0.9-0.2-1.8-0.5-2.6c-0.4-0.7-0.9-1.2-1.6-1.6c-0.7-0.4-1.5-0.7-2.4-0.8
			c-1-0.1-1.9-0.2-2.9-0.2c-1.4,0-2.7,0.2-4.1,0.5c-1.6,0.3-3.1,0.8-4.6,1.4h-0.3v-4.7c0.9-0.3,2.2-0.5,3.9-0.8
			c1.7-0.3,3.4-0.4,5.1-0.4c1.7,0,3.4,0.1,5.1,0.5c1.3,0.3,2.6,0.8,3.7,1.6c1,0.7,1.9,1.7,2.4,2.9c0.6,1.4,0.9,2.9,0.8,4.4
			L-48.2,73.4z M-52.9,66.7v-7.6c-1.4,0.1-3.1,0.2-5,0.4c-1.5,0.1-3.1,0.3-4.5,0.7c-1.2,0.3-2.3,0.9-3.2,1.7c-1.7,2-1.6,4.9,0.2,6.8
			c1.3,0.9,2.8,1.3,4.4,1.2c1.5,0,3.1-0.3,4.5-0.9C-55.3,68.4-54,67.6-52.9,66.7z"/>
		<path class="st1" d="M-34.3,41.6h-5.2v-4.8h5.2L-34.3,41.6z M-34.6,73.4h-4.6V46.2h4.6V73.4z"/>
		<path class="st1" d="M-2.4,73.4h-4.6V57.9c0-1.2-0.1-2.4-0.2-3.5c-0.1-0.9-0.4-1.8-0.8-2.6c-0.4-0.7-1-1.2-1.8-1.5
			c-1-0.4-2-0.5-3-0.5c-1.4,0-2.7,0.3-4,0.9c-1.4,0.6-2.8,1.4-4,2.4v20.4h-4.6V46.2h4.6v3c1.4-1.1,2.9-2.1,4.5-2.8
			c1.5-0.7,3.1-1,4.8-1c3,0,5.3,0.9,6.8,2.7c1.6,1.8,2.3,4.3,2.3,7.7L-2.4,73.4z"/>
		<path class="st1" d="M29.6,60.3H9.3c0,1.5,0.2,3,0.8,4.4c0.5,1.2,1.2,2.2,2.1,3.1c0.9,0.8,1.9,1.4,3,1.8c1.3,0.4,2.6,0.6,3.9,0.6
			c1.9,0,3.9-0.4,5.7-1.1c1.5-0.5,2.8-1.2,4.1-2.2H29v5c-1.6,0.7-3.2,1.2-4.8,1.6c-1.7,0.4-3.4,0.7-5.1,0.7c-4.6,0-8.1-1.2-10.7-3.7
			s-3.8-5.9-3.8-10.4c0-4.5,1.2-8,3.7-10.6c2.5-2.6,6.1-4.1,9.7-3.9c3.7,0,6.6,1.1,8.6,3.2s3,5.2,3,9.1L29.6,60.3z M25.1,56.8
			c0.1-2-0.5-4-1.8-5.6c-1.2-1.3-3-2-5.5-2c-2.2-0.1-4.3,0.7-5.9,2.2c-1.5,1.4-2.4,3.4-2.5,5.4L25.1,56.8z"/>
		<path class="st1" d="M53.8,51.2h-0.3c-0.7-0.2-1.3-0.3-2-0.4c-0.8-0.1-1.5-0.1-2.3-0.1c-1.4,0-2.8,0.3-4.1,0.9
			c-1.4,0.7-2.7,1.5-3.9,2.4v19.4h-4.6V46.2h4.6v4c1.5-1.2,3.1-2.3,4.9-3.1c1.4-0.6,2.9-0.9,4.4-0.9c0.8,0,1.4,0,1.8,0.1
			s0.9,0.1,1.6,0.2L53.8,51.2z"/>
		<path class="st1" d="M77.8,65.6c0,2.4-1.1,4.7-3.1,6.1c-2.1,1.6-4.9,2.4-8.5,2.4c-1.9,0-3.8-0.2-5.6-0.7c-1.5-0.4-2.9-0.9-4.3-1.6
			v-5.2h0.3c1.5,1.1,3.1,2,4.9,2.6c1.6,0.6,3.4,1,5.2,1c1.7,0.1,3.3-0.3,4.8-1c1.1-0.6,1.8-1.8,1.7-3.1c0.1-0.9-0.3-1.8-0.9-2.5
			c-1.1-0.7-2.3-1.2-3.6-1.4C67.9,62.1,67,62,66,61.8c-1.1-0.2-2-0.4-2.9-0.6c-2-0.4-3.8-1.4-5.1-2.8c-1-1.3-1.6-2.9-1.5-4.5
			c0-1.1,0.2-2.2,0.7-3.2c0.5-1,1.2-1.9,2.1-2.7c1-0.8,2.2-1.4,3.5-1.8c1.5-0.5,3.2-0.7,4.8-0.7c1.7,0,3.4,0.2,5,0.6
			c1.5,0.3,2.9,0.8,4.2,1.4v4.9h-0.3c-1.3-0.9-2.8-1.7-4.3-2.2c-1.6-0.6-3.3-0.9-5-0.9c-1.5,0-3,0.3-4.3,1c-1.6,0.9-2.2,2.9-1.3,4.6
			c0.2,0.3,0.4,0.6,0.6,0.8c1,0.7,2.2,1.2,3.4,1.4c0.9,0.2,1.8,0.4,2.9,0.6s2,0.4,2.6,0.5c1.9,0.3,3.6,1.2,5,2.5
			C77.3,62.1,77.9,63.8,77.8,65.6z"/>
		<path class="st1" d="M125.7,59.8c0,4.4-1.1,7.9-3.5,10.5c-5.1,5.1-13.3,5.2-18.5,0.1c0,0,0,0-0.1-0.1c-2.3-2.6-3.4-6.1-3.4-10.5
			c0-4.4,1.1-8,3.4-10.5c5-5.1,13.3-5.2,18.4-0.2c0.1,0.1,0.1,0.1,0.2,0.2C124.6,51.9,125.7,55.4,125.7,59.8z M120.9,59.8
			c0-3.5-0.7-6.2-2.1-7.9c-3-3.2-8-3.4-11.2-0.5c-0.2,0.2-0.3,0.3-0.5,0.5c-1.4,1.7-2.1,4.3-2.1,7.9c0,3.4,0.7,6,2.1,7.8
			c2.8,3.2,7.7,3.5,11,0.7c0.2-0.2,0.5-0.4,0.7-0.7C120.2,65.9,120.9,63.3,120.9,59.8z"/>
		<path class="st1" d="M155.9,73.4h-4.6V57.9c0-1.2-0.1-2.4-0.2-3.5c-0.1-0.9-0.4-1.8-0.8-2.6c-0.4-0.7-1-1.2-1.8-1.5
			c-1-0.4-2-0.5-3-0.5c-1.4,0-2.7,0.3-4,0.9c-1.4,0.6-2.8,1.4-4,2.4v20.4h-4.6V46.2h4.6v3c1.4-1.1,2.9-2.1,4.5-2.8
			c1.5-0.7,3.1-1,4.8-1c3,0,5.2,0.9,6.8,2.7c1.6,1.8,2.3,4.3,2.3,7.7L155.9,73.4z"/>
		<path class="st1" d="M205,73.4h-4.6v-2.9c-1.3,1.1-2.7,2-4.2,2.7c-1.5,0.6-3.1,1-4.7,0.9c-3.1,0.1-6-1.3-7.8-3.8
			c-1.9-2.5-2.9-6-2.9-10.4c0-2.1,0.3-4.2,1-6.2c0.6-1.7,1.5-3.3,2.7-4.6c2.2-2.4,5.3-3.8,8.5-3.8c1.3,0,2.6,0.1,3.8,0.5
			c1.2,0.3,2.4,0.8,3.5,1.4V35.4h4.6L205,73.4z M200.3,66.7V51.1c-1.1-0.5-2.2-0.9-3.4-1.1c-1.1-0.2-2.1-0.3-3.2-0.3
			c-2.3-0.1-4.6,0.9-6.1,2.7c-1.5,1.8-2.2,4.3-2.2,7.6c0,3.2,0.6,5.7,1.7,7.4c1.2,1.7,3.3,2.7,5.4,2.5c1.4,0,2.7-0.3,4-0.9
			C197.9,68.4,199.2,67.6,200.3,66.7z"/>
		<path class="st1" d="M237.2,60.3h-20.3c0,1.5,0.2,3,0.8,4.4c0.5,1.2,1.2,2.2,2.1,3.1c0.9,0.8,1.9,1.4,3,1.8
			c1.3,0.4,2.6,0.6,3.9,0.6c1.9,0,3.9-0.4,5.7-1.1c1.5-0.5,2.8-1.2,4.1-2.2h0.3v5c-1.6,0.7-3.2,1.2-4.8,1.6
			c-1.7,0.4-3.4,0.7-5.1,0.7c-4.6,0-8.1-1.2-10.7-3.7c-2.6-2.5-3.8-5.9-3.8-10.4c0-4.5,1.2-8,3.7-10.6c2.5-2.6,6.1-4.1,9.7-3.9
			c3.7,0,6.6,1.1,8.6,3.2c2,2.1,3,5.2,3,9.1L237.2,60.3z M232.6,56.8c0.1-2-0.5-4-1.8-5.6c-1.2-1.3-3-2-5.5-2
			c-2.2-0.1-4.3,0.7-5.9,2.2c-1.5,1.4-2.4,3.4-2.5,5.4L232.6,56.8z"/>
		<path class="st1" d="M284.4,73.4h-4.6V57.9c0-1.2-0.1-2.3-0.2-3.4c-0.1-0.9-0.3-1.8-0.7-2.6c-0.4-0.7-0.9-1.2-1.6-1.6
			c-1-0.4-2-0.6-3.1-0.5c-1.4,0-2.7,0.4-3.9,1c-1.4,0.7-2.7,1.5-3.9,2.4c0,0.4,0.1,0.8,0.1,1.3s0,1,0,1.5v17.5H262V57.9
			c0-1.1,0-2.3-0.2-3.4c-0.1-0.9-0.3-1.8-0.7-2.6c-0.4-0.7-0.9-1.2-1.6-1.6c-1-0.4-2-0.6-3.1-0.5c-1.3,0-2.6,0.3-3.8,0.9
			c-1.3,0.7-2.6,1.5-3.8,2.4v20.4h-4.6V46.2h4.6v3c1.3-1.1,2.8-2,4.3-2.8c1.4-0.7,3-1,4.6-1c1.7-0.1,3.3,0.4,4.8,1.2
			c1.3,0.8,2.3,1.9,2.9,3.2c1.6-1.3,3.3-2.5,5.1-3.4c1.6-0.7,3.3-1,5-1c3,0,5.3,0.9,6.7,2.7c1.4,1.8,2.2,4.4,2.2,7.6L284.4,73.4z"/>
		<path class="st1" d="M314.7,73.4h-4.6v-2.9c-0.4,0.3-1,0.7-1.7,1.2c-0.6,0.5-1.3,0.9-2,1.2c-0.9,0.4-1.7,0.7-2.7,0.9
			c-1.2,0.3-2.3,0.4-3.5,0.4c-2.3,0.1-4.6-0.8-6.3-2.4c-1.7-1.6-2.7-3.9-2.6-6.2c-0.1-1.8,0.4-3.5,1.3-5c1-1.3,2.3-2.4,3.8-3
			c1.9-0.8,3.9-1.3,6-1.5c2.3-0.3,4.9-0.5,7.6-0.6v-0.7c0-0.9-0.2-1.8-0.5-2.6c-0.4-0.7-0.9-1.2-1.6-1.6c-0.7-0.4-1.5-0.7-2.4-0.8
			c-1-0.1-1.9-0.2-2.9-0.2c-1.4,0-2.7,0.2-4.1,0.5c-1.6,0.3-3.1,0.8-4.6,1.4h-0.2v-4.7c0.9-0.3,2.2-0.5,3.9-0.8
			c1.7-0.3,3.4-0.4,5.1-0.4c1.7,0,3.4,0.1,5.1,0.5c1.3,0.3,2.6,0.8,3.7,1.6c1,0.7,1.9,1.7,2.4,2.9c0.6,1.4,0.9,2.9,0.8,4.4V73.4z
			 M310.1,66.7v-7.6c-1.4,0.1-3.1,0.2-5,0.4c-1.5,0.1-3.1,0.3-4.5,0.7c-1.2,0.3-2.3,0.9-3.2,1.7c-1.7,2-1.6,4.9,0.2,6.8
			c1.3,0.9,2.8,1.3,4.4,1.2c1.5,0,3.1-0.3,4.5-0.9C307.7,68.4,308.9,67.6,310.1,66.7z"/>
		<path class="st1" d="M346.7,73.4h-4.6V57.9c0-1.2-0.1-2.4-0.2-3.5c-0.1-0.9-0.4-1.8-0.8-2.6c-0.4-0.7-1-1.2-1.8-1.5
			c-1-0.4-2-0.5-3-0.5c-1.4,0-2.7,0.3-4,0.9c-1.4,0.6-2.8,1.4-4,2.4v20.4h-4.6V46.2h4.6v3c1.4-1.1,2.9-2.1,4.5-2.8
			c1.5-0.7,3.1-1,4.8-1c3,0,5.3,0.9,6.8,2.7c1.6,1.8,2.3,4.3,2.3,7.7L346.7,73.4z"/>
		<path class="st1" d="M378,73.4h-4.6v-2.9c-1.3,1.1-2.7,2-4.2,2.7c-1.5,0.6-3.1,1-4.7,0.9c-3.1,0.1-6-1.3-7.8-3.8
			c-1.9-2.5-2.9-6-2.9-10.4c0-2.1,0.3-4.2,1-6.2c0.6-1.7,1.5-3.3,2.7-4.6c2.2-2.4,5.3-3.8,8.5-3.8c1.3,0,2.6,0.1,3.8,0.5
			c1.2,0.3,2.4,0.8,3.5,1.4V35.4h4.6L378,73.4z M373.3,66.7V51.1c-1.1-0.5-2.2-0.9-3.3-1.1c-1.1-0.2-2.2-0.3-3.2-0.3
			c-2.3-0.1-4.6,0.9-6.1,2.7c-1.5,1.8-2.2,4.3-2.2,7.6c0,3.2,0.5,5.7,1.7,7.4c1.2,1.7,3.3,2.7,5.4,2.5c1.4,0,2.7-0.3,4-0.9
			C370.9,68.4,372.2,67.6,373.3,66.7z"/>
	</g>
</symbol>
<symbol  id="red" viewBox="-256 -256 512 512">
	<use xlink:href="#Prompt"  width="482" height="482" id="XMLID_3_" x="-241" y="-241" style="overflow:visible;"/>
	<path class="st2" d="M226-226v452h-452v-452H226 M256-256h-512v512h512V-256z"/>
</symbol>
<g id="Layer_2_1_">
	<g id="Wide_Dark_Red">
		
			<use xlink:href="#red"  width="512" height="512" id="XMLID_1_" x="-256" y="-256" transform="matrix(1 0 0 1 256 256)" style="overflow:visible;"/>
		
			<use xlink:href="#Text_Dark"  width="756.6" height="148.4" id="XMLID_2_" x="-378.3" y="-74.2" transform="matrix(1.69 0 0 1.69 1199.0291 255.3085)" style="overflow:visible;"/>
	</g>
</g>
</svg>
