<svg id="bafe6146-1e7d-478a-9092-68915aa26c1d" data-name="Layer 1" xmlns="http://www.w3.org/2000/svg" xmlns:xlink="http://www.w3.org/1999/xlink" viewBox="0 0 512 512"><defs><style>.a2f52bc2-2e73-4ef9-8854-3cc54cc32785{fill:none;}.b5c50a22-e839-4d10-8721-9f5c684668f3{fill:#fff;}.edaf9fef-14f8-4805-a104-5d8ecc776869{fill:red;}</style><symbol id="e4c2e155-ae3c-4a92-a2cb-d4cd5d088787" data-name="Prompt" viewBox="0 0 482 482"><rect class="a2f52bc2-2e73-4ef9-8854-3cc54cc32785" width="482" height="482"/><path class="b5c50a22-e839-4d10-8721-9f5c684668f3" d="M180.4,279.2l-83,46c-4.2,2.3-6.9,4.4-8.3,6.2a11.23,11.23,0,0,0-2.1,7,13.33,13.33,0,0,0,13,13.1c2.2,0,5.5-1.2,10-3.6l123.6-68.8L110,210.3c-4.5-2.5-7.8-3.8-10-3.8a12.39,12.39,0,0,0-9.1,3.9,12.75,12.75,0,0,0-3.9,9.4,11.23,11.23,0,0,0,2.1,7c1.4,1.8,4.1,3.9,8.3,6.2Z"/><path class="b5c50a22-e839-4d10-8721-9f5c684668f3" d="M377.9,129.4H237.2c-6.2,0-10.6,1.2-13.2,3.5a11.71,11.71,0,0,0-3.9,9.2,12.08,12.08,0,0,0,3.9,9.3q3.9,3.6,13.2,3.6H378c6.1,0,10.4-1.2,13.1-3.6a12.92,12.92,0,0,0,0-18.5C388.5,130.6,384.1,129.4,377.9,129.4Z"/></symbol><symbol id="ecc59354-633f-4027-b358-933c26c53d9f" data-name="red-2" viewBox="0 0 512 512"><use width="482" height="482" transform="translate(15 15)" xlink:href="#e4c2e155-ae3c-4a92-a2cb-d4cd5d088787"/><path class="edaf9fef-14f8-4805-a104-5d8ecc776869" d="M482,482V30H30V482H482m30,30H0V0H512Z"/></symbol></defs><g id="e3c6abdc-efed-4d4c-b60f-b547e5eee895" data-name="Layer 2"><g id="b12eb1ac-6199-4679-a6d9-5412e6f20293" data-name="Red"><use width="512" height="512" transform="matrix(1, 0, 0, -1, 0, 512)" xlink:href="#ecc59354-633f-4027-b358-933c26c53d9f"/></g></g></svg>